<mxfile host="Electron" agent="Mozilla/5.0 (Windows NT 10.0; Win64; x64) AppleWebKit/537.36 (KHTML, like Gecko) draw.io/24.7.8 Chrome/128.0.6613.36 Electron/32.0.1 Safari/537.36" version="24.7.8">
  <diagram name="docker0構成" id="qeOBU1-xUn_S8pOAExUd">
    <mxGraphModel dx="625" dy="658" grid="1" gridSize="10" guides="1" tooltips="1" connect="1" arrows="1" fold="1" page="1" pageScale="1" pageWidth="827" pageHeight="1169" math="0" shadow="0">
      <root>
        <mxCell id="9pdm4Na_A3fy9SokRHZq-0" />
        <mxCell id="9pdm4Na_A3fy9SokRHZq-1" value="base" style="" parent="9pdm4Na_A3fy9SokRHZq-0" />
        <mxCell id="9pdm4Na_A3fy9SokRHZq-2" value="windows(WSL)" style="points=[[0,0],[0.25,0],[0.5,0],[0.75,0],[1,0],[1,0.25],[1,0.5],[1,0.75],[1,1],[0.75,1],[0.5,1],[0.25,1],[0,1],[0,0.75],[0,0.5],[0,0.25]];outlineConnect=0;gradientColor=none;html=1;whiteSpace=wrap;fontSize=12;fontStyle=0;container=0;pointerEvents=0;collapsible=0;recursiveResize=0;shape=mxgraph.aws4.group;grIcon=mxgraph.aws4.group_vpc2;strokeColor=#8C4FFF;fillColor=none;verticalAlign=top;align=left;spacingLeft=30;fontColor=#4D4D4D;dashed=0;connectable=0;allowArrows=0;" vertex="1" parent="9pdm4Na_A3fy9SokRHZq-1">
          <mxGeometry x="80" y="80" width="600" height="600" as="geometry" />
        </mxCell>
        <mxCell id="9pdm4Na_A3fy9SokRHZq-3" value="&lt;div&gt;&lt;span style=&quot;background-color: initial;&quot;&gt;efk_stack_network&lt;/span&gt;&lt;br&gt;&lt;/div&gt;" style="sketch=0;outlineConnect=0;gradientColor=none;html=1;whiteSpace=wrap;fontSize=12;fontStyle=0;shape=mxgraph.aws4.group;grIcon=mxgraph.aws4.group_availability_zone;strokeColor=#545B64;fillColor=none;verticalAlign=top;align=left;spacingLeft=30;fontColor=#545B64;dashed=1;" vertex="1" parent="9pdm4Na_A3fy9SokRHZq-1">
          <mxGeometry x="120" y="240" width="520" height="400" as="geometry" />
        </mxCell>
        <mxCell id="KCpZ5k9DulybXE29dxYF-21" value="own-route" parent="9pdm4Na_A3fy9SokRHZq-0" />
        <mxCell id="KCpZ5k9DulybXE29dxYF-22" style="edgeStyle=orthogonalEdgeStyle;rounded=0;orthogonalLoop=1;jettySize=auto;html=1;exitX=0.5;exitY=1;exitDx=0;exitDy=0;exitPerimeter=0;entryX=0.5;entryY=1;entryDx=0;entryDy=0;entryPerimeter=0;" edge="1" parent="KCpZ5k9DulybXE29dxYF-21" source="9pdm4Na_A3fy9SokRHZq-7" target="9pdm4Na_A3fy9SokRHZq-31">
          <mxGeometry relative="1" as="geometry">
            <mxPoint x="260" y="360" as="sourcePoint" />
            <mxPoint x="180" y="160" as="targetPoint" />
          </mxGeometry>
        </mxCell>
        <mxCell id="KCpZ5k9DulybXE29dxYF-23" style="edgeStyle=orthogonalEdgeStyle;rounded=0;orthogonalLoop=1;jettySize=auto;html=1;entryX=0.5;entryY=0;entryDx=0;entryDy=0;entryPerimeter=0;exitX=0.5;exitY=1;exitDx=0;exitDy=0;exitPerimeter=0;" edge="1" parent="KCpZ5k9DulybXE29dxYF-21" source="9pdm4Na_A3fy9SokRHZq-7" target="9pdm4Na_A3fy9SokRHZq-16">
          <mxGeometry relative="1" as="geometry">
            <mxPoint x="260" y="360" as="sourcePoint" />
            <mxPoint x="300" y="440" as="targetPoint" />
          </mxGeometry>
        </mxCell>
        <mxCell id="KCpZ5k9DulybXE29dxYF-24" style="edgeStyle=orthogonalEdgeStyle;rounded=0;orthogonalLoop=1;jettySize=auto;html=1;entryX=0.5;entryY=0;entryDx=0;entryDy=0;entryPerimeter=0;exitX=0.5;exitY=1;exitDx=0;exitDy=0;exitPerimeter=0;" edge="1" parent="KCpZ5k9DulybXE29dxYF-21" source="9pdm4Na_A3fy9SokRHZq-7" target="9pdm4Na_A3fy9SokRHZq-15">
          <mxGeometry relative="1" as="geometry">
            <mxPoint x="260" y="360" as="sourcePoint" />
            <mxPoint x="220" y="440" as="targetPoint" />
          </mxGeometry>
        </mxCell>
        <mxCell id="KCpZ5k9DulybXE29dxYF-25" style="edgeStyle=orthogonalEdgeStyle;rounded=0;orthogonalLoop=1;jettySize=auto;html=1;exitX=0.5;exitY=1;exitDx=0;exitDy=0;exitPerimeter=0;entryX=0.5;entryY=0;entryDx=0;entryDy=0;" edge="1" parent="KCpZ5k9DulybXE29dxYF-21" source="9pdm4Na_A3fy9SokRHZq-39" target="9pdm4Na_A3fy9SokRHZq-19">
          <mxGeometry relative="1" as="geometry">
            <mxPoint x="260" y="160" as="sourcePoint" />
            <mxPoint x="260" y="230" as="targetPoint" />
          </mxGeometry>
        </mxCell>
        <mxCell id="KCpZ5k9DulybXE29dxYF-26" value="" style="edgeStyle=orthogonalEdgeStyle;rounded=0;orthogonalLoop=1;jettySize=auto;html=1;exitX=0.5;exitY=1;exitDx=0;exitDy=0;exitPerimeter=0;entryX=0;entryY=0.5;entryDx=0;entryDy=0;entryPerimeter=0;" edge="1" parent="KCpZ5k9DulybXE29dxYF-21" source="9pdm4Na_A3fy9SokRHZq-15" target="9pdm4Na_A3fy9SokRHZq-18">
          <mxGeometry x="-0.5" relative="1" as="geometry">
            <mxPoint x="260" y="630" as="targetPoint" />
            <mxPoint as="offset" />
            <mxPoint x="300" y="480" as="sourcePoint" />
          </mxGeometry>
        </mxCell>
        <mxCell id="KCpZ5k9DulybXE29dxYF-28" style="edgeStyle=orthogonalEdgeStyle;rounded=0;orthogonalLoop=1;jettySize=auto;html=1;entryX=0.5;entryY=0;entryDx=0;entryDy=0;exitX=0.5;exitY=1;exitDx=0;exitDy=0;exitPerimeter=0;" edge="1" parent="KCpZ5k9DulybXE29dxYF-21" source="9pdm4Na_A3fy9SokRHZq-39" target="9pdm4Na_A3fy9SokRHZq-21">
          <mxGeometry relative="1" as="geometry">
            <mxPoint x="260" y="160" as="sourcePoint" />
            <mxPoint x="420" y="230" as="targetPoint" />
          </mxGeometry>
        </mxCell>
        <mxCell id="KCpZ5k9DulybXE29dxYF-31" style="edgeStyle=orthogonalEdgeStyle;rounded=0;orthogonalLoop=1;jettySize=auto;html=1;entryX=0.5;entryY=0;entryDx=0;entryDy=0;entryPerimeter=0;exitX=0.5;exitY=1;exitDx=0;exitDy=0;exitPerimeter=0;" edge="1" parent="KCpZ5k9DulybXE29dxYF-21" source="9pdm4Na_A3fy9SokRHZq-26" target="9pdm4Na_A3fy9SokRHZq-18">
          <mxGeometry relative="1" as="geometry">
            <mxPoint x="420" y="480" as="sourcePoint" />
            <mxPoint x="420" y="560" as="targetPoint" />
          </mxGeometry>
        </mxCell>
        <mxCell id="KCpZ5k9DulybXE29dxYF-32" value="" style="edgeStyle=orthogonalEdgeStyle;html=1;exitX=0.5;exitY=1;exitDx=0;exitDy=0;exitPerimeter=0;rounded=0;entryX=0.5;entryY=0;entryDx=0;entryDy=0;" edge="1" parent="KCpZ5k9DulybXE29dxYF-21" source="9pdm4Na_A3fy9SokRHZq-39" target="9pdm4Na_A3fy9SokRHZq-20">
          <mxGeometry relative="1" as="geometry">
            <mxPoint x="260" y="160" as="sourcePoint" />
            <mxPoint x="340" y="230" as="targetPoint" />
          </mxGeometry>
        </mxCell>
        <mxCell id="KCpZ5k9DulybXE29dxYF-33" style="edgeStyle=orthogonalEdgeStyle;rounded=0;orthogonalLoop=1;jettySize=auto;html=1;exitX=0.5;exitY=1;exitDx=0;exitDy=0;entryX=0.5;entryY=0;entryDx=0;entryDy=0;entryPerimeter=0;" edge="1" parent="KCpZ5k9DulybXE29dxYF-21" source="9pdm4Na_A3fy9SokRHZq-21" target="9pdm4Na_A3fy9SokRHZq-25">
          <mxGeometry relative="1" as="geometry">
            <mxPoint x="420" y="250" as="sourcePoint" />
            <mxPoint x="420" y="320" as="targetPoint" />
          </mxGeometry>
        </mxCell>
        <mxCell id="KCpZ5k9DulybXE29dxYF-34" style="edgeStyle=orthogonalEdgeStyle;rounded=0;orthogonalLoop=1;jettySize=auto;html=1;exitX=0.5;exitY=1;exitDx=0;exitDy=0;entryX=0.5;entryY=0;entryDx=0;entryDy=0;entryPerimeter=0;" edge="1" parent="KCpZ5k9DulybXE29dxYF-21" source="9pdm4Na_A3fy9SokRHZq-19" target="9pdm4Na_A3fy9SokRHZq-7">
          <mxGeometry relative="1" as="geometry">
            <mxPoint x="260" y="250" as="sourcePoint" />
            <mxPoint x="260" y="320" as="targetPoint" />
          </mxGeometry>
        </mxCell>
        <mxCell id="KCpZ5k9DulybXE29dxYF-35" style="edgeStyle=orthogonalEdgeStyle;rounded=0;orthogonalLoop=1;jettySize=auto;html=1;exitX=0.5;exitY=1;exitDx=0;exitDy=0;entryX=0.5;entryY=0;entryDx=0;entryDy=0;" edge="1" parent="KCpZ5k9DulybXE29dxYF-21" source="9pdm4Na_A3fy9SokRHZq-20" target="9pdm4Na_A3fy9SokRHZq-30">
          <mxGeometry relative="1" as="geometry">
            <mxPoint x="340" y="250" as="sourcePoint" />
            <mxPoint x="298" y="300" as="targetPoint" />
          </mxGeometry>
        </mxCell>
        <mxCell id="KCpZ5k9DulybXE29dxYF-36" style="edgeStyle=orthogonalEdgeStyle;rounded=0;orthogonalLoop=1;jettySize=auto;html=1;exitX=0.5;exitY=1;exitDx=0;exitDy=0;entryX=0;entryY=0.5;entryDx=0;entryDy=0;entryPerimeter=0;exitPerimeter=0;" edge="1" parent="KCpZ5k9DulybXE29dxYF-21" source="9pdm4Na_A3fy9SokRHZq-16" target="9pdm4Na_A3fy9SokRHZq-18">
          <mxGeometry relative="1" as="geometry">
            <mxPoint x="260" y="650" as="sourcePoint" />
            <mxPoint x="420" y="600" as="targetPoint" />
          </mxGeometry>
        </mxCell>
        <mxCell id="KCpZ5k9DulybXE29dxYF-45" style="edgeStyle=orthogonalEdgeStyle;rounded=0;orthogonalLoop=1;jettySize=auto;html=1;exitX=0.5;exitY=1;exitDx=0;exitDy=0;exitPerimeter=0;entryX=0.5;entryY=0;entryDx=0;entryDy=0;entryPerimeter=0;" edge="1" parent="KCpZ5k9DulybXE29dxYF-21" source="9pdm4Na_A3fy9SokRHZq-25" target="9pdm4Na_A3fy9SokRHZq-26">
          <mxGeometry relative="1" as="geometry">
            <mxPoint x="420" y="360" as="sourcePoint" />
            <mxPoint x="420" y="440" as="targetPoint" />
          </mxGeometry>
        </mxCell>
        <mxCell id="KCpZ5k9DulybXE29dxYF-46" value="9200" style="edgeLabel;html=1;align=center;verticalAlign=middle;resizable=0;points=[];" vertex="1" connectable="0" parent="KCpZ5k9DulybXE29dxYF-45">
          <mxGeometry x="0.4689" y="-1" relative="1" as="geometry">
            <mxPoint x="1" y="-18" as="offset" />
          </mxGeometry>
        </mxCell>
        <mxCell id="KCpZ5k9DulybXE29dxYF-0" value="docker0" parent="9pdm4Na_A3fy9SokRHZq-0" visible="0" />
        <mxCell id="KCpZ5k9DulybXE29dxYF-2" style="edgeStyle=orthogonalEdgeStyle;rounded=0;orthogonalLoop=1;jettySize=auto;html=1;exitX=0.5;exitY=1;exitDx=0;exitDy=0;exitPerimeter=0;entryX=0.5;entryY=1;entryDx=0;entryDy=0;entryPerimeter=0;" edge="1" parent="KCpZ5k9DulybXE29dxYF-0" source="9pdm4Na_A3fy9SokRHZq-7" target="9pdm4Na_A3fy9SokRHZq-31">
          <mxGeometry relative="1" as="geometry">
            <mxPoint x="260" y="360" as="sourcePoint" />
            <mxPoint x="180" y="160" as="targetPoint" />
          </mxGeometry>
        </mxCell>
        <mxCell id="KCpZ5k9DulybXE29dxYF-3" style="edgeStyle=orthogonalEdgeStyle;rounded=0;orthogonalLoop=1;jettySize=auto;html=1;exitX=0.5;exitY=1;exitDx=0;exitDy=0;exitPerimeter=0;entryX=0.5;entryY=0;entryDx=0;entryDy=0;entryPerimeter=0;" edge="1" parent="KCpZ5k9DulybXE29dxYF-0" source="9pdm4Na_A3fy9SokRHZq-7" target="9pdm4Na_A3fy9SokRHZq-16">
          <mxGeometry relative="1" as="geometry">
            <mxPoint x="260" y="360" as="sourcePoint" />
            <mxPoint x="300" y="440" as="targetPoint" />
          </mxGeometry>
        </mxCell>
        <mxCell id="KCpZ5k9DulybXE29dxYF-4" style="edgeStyle=orthogonalEdgeStyle;rounded=0;orthogonalLoop=1;jettySize=auto;html=1;exitX=0.5;exitY=1;exitDx=0;exitDy=0;exitPerimeter=0;entryX=0.5;entryY=0;entryDx=0;entryDy=0;entryPerimeter=0;" edge="1" parent="KCpZ5k9DulybXE29dxYF-0" source="9pdm4Na_A3fy9SokRHZq-7" target="9pdm4Na_A3fy9SokRHZq-15">
          <mxGeometry relative="1" as="geometry">
            <mxPoint x="260" y="360" as="sourcePoint" />
            <mxPoint x="220" y="440" as="targetPoint" />
          </mxGeometry>
        </mxCell>
        <mxCell id="KCpZ5k9DulybXE29dxYF-5" style="edgeStyle=orthogonalEdgeStyle;rounded=0;orthogonalLoop=1;jettySize=auto;html=1;exitX=0.5;exitY=1;exitDx=0;exitDy=0;exitPerimeter=0;entryX=0.5;entryY=0;entryDx=0;entryDy=0;" edge="1" parent="KCpZ5k9DulybXE29dxYF-0" source="9pdm4Na_A3fy9SokRHZq-39" target="9pdm4Na_A3fy9SokRHZq-19">
          <mxGeometry relative="1" as="geometry">
            <mxPoint x="260" y="160" as="sourcePoint" />
            <mxPoint x="260" y="230" as="targetPoint" />
          </mxGeometry>
        </mxCell>
        <mxCell id="KCpZ5k9DulybXE29dxYF-6" value="" style="edgeStyle=orthogonalEdgeStyle;rounded=0;orthogonalLoop=1;jettySize=auto;html=1;exitX=0.5;exitY=1;exitDx=0;exitDy=0;exitPerimeter=0;entryX=0.5;entryY=0;entryDx=0;entryDy=0;" edge="1" parent="KCpZ5k9DulybXE29dxYF-0" source="9pdm4Na_A3fy9SokRHZq-16" target="zy84ghSX6Ssc-HXoNrMQ-1">
          <mxGeometry x="-0.5" relative="1" as="geometry">
            <mxPoint x="260" y="630" as="targetPoint" />
            <mxPoint as="offset" />
            <mxPoint x="300" y="480" as="sourcePoint" />
          </mxGeometry>
        </mxCell>
        <mxCell id="KCpZ5k9DulybXE29dxYF-7" value="" style="edgeStyle=orthogonalEdgeStyle;rounded=0;orthogonalLoop=1;jettySize=auto;html=1;exitX=0.5;exitY=1;exitDx=0;exitDy=0;exitPerimeter=0;entryX=0.5;entryY=0;entryDx=0;entryDy=0;" edge="1" parent="KCpZ5k9DulybXE29dxYF-0" source="9pdm4Na_A3fy9SokRHZq-15" target="zy84ghSX6Ssc-HXoNrMQ-1">
          <mxGeometry x="-0.3684" relative="1" as="geometry">
            <mxPoint x="260" y="630" as="targetPoint" />
            <mxPoint as="offset" />
            <mxPoint x="220" y="480" as="sourcePoint" />
          </mxGeometry>
        </mxCell>
        <mxCell id="KCpZ5k9DulybXE29dxYF-8" style="edgeStyle=orthogonalEdgeStyle;rounded=0;orthogonalLoop=1;jettySize=auto;html=1;exitX=0.5;exitY=1;exitDx=0;exitDy=0;exitPerimeter=0;entryX=0.5;entryY=0;entryDx=0;entryDy=0;" edge="1" parent="KCpZ5k9DulybXE29dxYF-0" source="9pdm4Na_A3fy9SokRHZq-39" target="9pdm4Na_A3fy9SokRHZq-21">
          <mxGeometry relative="1" as="geometry">
            <mxPoint x="260" y="160" as="sourcePoint" />
            <mxPoint x="420" y="230" as="targetPoint" />
          </mxGeometry>
        </mxCell>
        <mxCell id="KCpZ5k9DulybXE29dxYF-11" style="edgeStyle=orthogonalEdgeStyle;rounded=0;orthogonalLoop=1;jettySize=auto;html=1;entryX=0.5;entryY=0;entryDx=0;entryDy=0;entryPerimeter=0;exitX=0.5;exitY=1;exitDx=0;exitDy=0;exitPerimeter=0;" edge="1" parent="KCpZ5k9DulybXE29dxYF-0" source="9pdm4Na_A3fy9SokRHZq-26" target="9pdm4Na_A3fy9SokRHZq-18">
          <mxGeometry relative="1" as="geometry">
            <mxPoint x="420" y="480" as="sourcePoint" />
            <mxPoint x="420" y="560" as="targetPoint" />
          </mxGeometry>
        </mxCell>
        <mxCell id="KCpZ5k9DulybXE29dxYF-12" value="" style="edgeStyle=orthogonalEdgeStyle;html=1;exitX=0.5;exitY=1;exitDx=0;exitDy=0;exitPerimeter=0;rounded=0;entryX=0.5;entryY=0;entryDx=0;entryDy=0;" edge="1" parent="KCpZ5k9DulybXE29dxYF-0" source="9pdm4Na_A3fy9SokRHZq-39" target="9pdm4Na_A3fy9SokRHZq-20">
          <mxGeometry relative="1" as="geometry">
            <mxPoint x="260" y="160" as="sourcePoint" />
            <mxPoint x="340" y="230" as="targetPoint" />
          </mxGeometry>
        </mxCell>
        <mxCell id="KCpZ5k9DulybXE29dxYF-13" style="edgeStyle=orthogonalEdgeStyle;rounded=0;orthogonalLoop=1;jettySize=auto;html=1;exitX=0.5;exitY=1;exitDx=0;exitDy=0;entryX=0.5;entryY=0;entryDx=0;entryDy=0;entryPerimeter=0;" edge="1" parent="KCpZ5k9DulybXE29dxYF-0" source="9pdm4Na_A3fy9SokRHZq-21" target="9pdm4Na_A3fy9SokRHZq-25">
          <mxGeometry relative="1" as="geometry">
            <mxPoint x="420" y="250" as="sourcePoint" />
            <mxPoint x="420" y="320" as="targetPoint" />
          </mxGeometry>
        </mxCell>
        <mxCell id="KCpZ5k9DulybXE29dxYF-14" style="edgeStyle=orthogonalEdgeStyle;rounded=0;orthogonalLoop=1;jettySize=auto;html=1;exitX=0.5;exitY=1;exitDx=0;exitDy=0;entryX=0.5;entryY=0;entryDx=0;entryDy=0;entryPerimeter=0;" edge="1" parent="KCpZ5k9DulybXE29dxYF-0" source="9pdm4Na_A3fy9SokRHZq-19" target="9pdm4Na_A3fy9SokRHZq-7">
          <mxGeometry relative="1" as="geometry">
            <mxPoint x="260" y="250" as="sourcePoint" />
            <mxPoint x="260" y="320" as="targetPoint" />
          </mxGeometry>
        </mxCell>
        <mxCell id="KCpZ5k9DulybXE29dxYF-15" style="edgeStyle=orthogonalEdgeStyle;rounded=0;orthogonalLoop=1;jettySize=auto;html=1;exitX=0.5;exitY=1;exitDx=0;exitDy=0;" edge="1" parent="KCpZ5k9DulybXE29dxYF-0" source="9pdm4Na_A3fy9SokRHZq-20" target="9pdm4Na_A3fy9SokRHZq-30">
          <mxGeometry relative="1" as="geometry">
            <mxPoint x="340" y="250" as="sourcePoint" />
            <mxPoint x="298" y="300" as="targetPoint" />
          </mxGeometry>
        </mxCell>
        <mxCell id="KCpZ5k9DulybXE29dxYF-16" style="edgeStyle=orthogonalEdgeStyle;rounded=0;orthogonalLoop=1;jettySize=auto;html=1;exitX=0.5;exitY=1;exitDx=0;exitDy=0;entryX=0.5;entryY=1;entryDx=0;entryDy=0;entryPerimeter=0;" edge="1" parent="KCpZ5k9DulybXE29dxYF-0" source="zy84ghSX6Ssc-HXoNrMQ-1" target="9pdm4Na_A3fy9SokRHZq-18">
          <mxGeometry relative="1" as="geometry">
            <mxPoint x="260" y="650" as="sourcePoint" />
            <mxPoint x="420" y="600" as="targetPoint" />
          </mxGeometry>
        </mxCell>
        <mxCell id="KCpZ5k9DulybXE29dxYF-41" style="edgeStyle=orthogonalEdgeStyle;rounded=0;orthogonalLoop=1;jettySize=auto;html=1;exitX=0.5;exitY=1;exitDx=0;exitDy=0;exitPerimeter=0;entryX=0;entryY=0.25;entryDx=0;entryDy=0;" edge="1" parent="KCpZ5k9DulybXE29dxYF-0" source="9pdm4Na_A3fy9SokRHZq-25" target="KCpZ5k9DulybXE29dxYF-20">
          <mxGeometry relative="1" as="geometry">
            <mxPoint x="420" y="360" as="sourcePoint" />
            <mxPoint x="620" y="395" as="targetPoint" />
          </mxGeometry>
        </mxCell>
        <mxCell id="KCpZ5k9DulybXE29dxYF-42" style="edgeStyle=orthogonalEdgeStyle;rounded=0;orthogonalLoop=1;jettySize=auto;html=1;exitX=0;exitY=0.75;exitDx=0;exitDy=0;entryX=0.5;entryY=0;entryDx=0;entryDy=0;entryPerimeter=0;" edge="1" parent="KCpZ5k9DulybXE29dxYF-0" source="KCpZ5k9DulybXE29dxYF-20" target="9pdm4Na_A3fy9SokRHZq-26">
          <mxGeometry relative="1" as="geometry">
            <mxPoint x="620" y="405" as="sourcePoint" />
            <mxPoint x="420" y="440" as="targetPoint" />
          </mxGeometry>
        </mxCell>
        <mxCell id="9pdm4Na_A3fy9SokRHZq-4" value="instance" parent="9pdm4Na_A3fy9SokRHZq-0" />
        <mxCell id="9pdm4Na_A3fy9SokRHZq-15" value="service_a" style="sketch=0;points=[[0,0,0],[0.25,0,0],[0.5,0,0],[0.75,0,0],[1,0,0],[0,1,0],[0.25,1,0],[0.5,1,0],[0.75,1,0],[1,1,0],[0,0.25,0],[0,0.5,0],[0,0.75,0],[1,0.25,0],[1,0.5,0],[1,0.75,0]];outlineConnect=0;fontColor=#232F3E;fillColor=#ED7100;strokeColor=#ffffff;dashed=0;verticalLabelPosition=bottom;verticalAlign=top;align=center;html=1;fontSize=12;fontStyle=0;aspect=fixed;shape=mxgraph.aws4.resourceIcon;resIcon=mxgraph.aws4.ec2;labelBackgroundColor=default;" vertex="1" parent="9pdm4Na_A3fy9SokRHZq-4">
          <mxGeometry x="200" y="440" width="40" height="40" as="geometry" />
        </mxCell>
        <mxCell id="9pdm4Na_A3fy9SokRHZq-16" value="service_b" style="sketch=0;points=[[0,0,0],[0.25,0,0],[0.5,0,0],[0.75,0,0],[1,0,0],[0,1,0],[0.25,1,0],[0.5,1,0],[0.75,1,0],[1,1,0],[0,0.25,0],[0,0.5,0],[0,0.75,0],[1,0.25,0],[1,0.5,0],[1,0.75,0]];outlineConnect=0;fontColor=#232F3E;fillColor=#ED7100;strokeColor=#ffffff;dashed=0;verticalLabelPosition=bottom;verticalAlign=top;align=center;html=1;fontSize=12;fontStyle=0;aspect=fixed;shape=mxgraph.aws4.resourceIcon;resIcon=mxgraph.aws4.ec2;labelBackgroundColor=default;" vertex="1" parent="9pdm4Na_A3fy9SokRHZq-4">
          <mxGeometry x="280" y="440" width="40" height="40" as="geometry" />
        </mxCell>
        <mxCell id="9pdm4Na_A3fy9SokRHZq-19" value="80" style="rounded=0;whiteSpace=wrap;html=1;" vertex="1" parent="9pdm4Na_A3fy9SokRHZq-4">
          <mxGeometry x="240" y="230" width="40" height="20" as="geometry" />
        </mxCell>
        <mxCell id="9pdm4Na_A3fy9SokRHZq-20" value="8080" style="rounded=0;whiteSpace=wrap;html=1;" vertex="1" parent="9pdm4Na_A3fy9SokRHZq-4">
          <mxGeometry x="320" y="230" width="40" height="20" as="geometry" />
        </mxCell>
        <mxCell id="9pdm4Na_A3fy9SokRHZq-21" value="5601" style="rounded=0;whiteSpace=wrap;html=1;" vertex="1" parent="9pdm4Na_A3fy9SokRHZq-4">
          <mxGeometry x="400" y="230" width="40" height="20" as="geometry" />
        </mxCell>
        <mxCell id="9pdm4Na_A3fy9SokRHZq-25" value="visualizer" style="sketch=0;points=[[0,0,0],[0.25,0,0],[0.5,0,0],[0.75,0,0],[1,0,0],[0,1,0],[0.25,1,0],[0.5,1,0],[0.75,1,0],[1,1,0],[0,0.25,0],[0,0.5,0],[0,0.75,0],[1,0.25,0],[1,0.5,0],[1,0.75,0]];outlineConnect=0;fontColor=#232F3E;fillColor=#ED7100;strokeColor=#ffffff;dashed=0;verticalLabelPosition=bottom;verticalAlign=top;align=center;html=1;fontSize=12;fontStyle=0;aspect=fixed;shape=mxgraph.aws4.resourceIcon;resIcon=mxgraph.aws4.ec2;labelBackgroundColor=default;" vertex="1" parent="9pdm4Na_A3fy9SokRHZq-4">
          <mxGeometry x="400" y="320" width="40" height="40" as="geometry" />
        </mxCell>
        <mxCell id="9pdm4Na_A3fy9SokRHZq-26" value="log_analyzer" style="sketch=0;points=[[0,0,0],[0.25,0,0],[0.5,0,0],[0.75,0,0],[1,0,0],[0,1,0],[0.25,1,0],[0.5,1,0],[0.75,1,0],[1,1,0],[0,0.25,0],[0,0.5,0],[0,0.75,0],[1,0.25,0],[1,0.5,0],[1,0.75,0]];outlineConnect=0;fontColor=#232F3E;fillColor=#ED7100;strokeColor=#ffffff;dashed=0;verticalLabelPosition=bottom;verticalAlign=top;align=center;html=1;fontSize=12;fontStyle=0;aspect=fixed;shape=mxgraph.aws4.resourceIcon;resIcon=mxgraph.aws4.ec2;labelBackgroundColor=default;" vertex="1" parent="9pdm4Na_A3fy9SokRHZq-4">
          <mxGeometry x="400" y="440" width="40" height="40" as="geometry" />
        </mxCell>
        <mxCell id="9pdm4Na_A3fy9SokRHZq-28" value="" style="shape=image;verticalLabelPosition=bottom;labelBackgroundColor=default;verticalAlign=top;aspect=fixed;imageAspect=0;image=data:image/png,iVBORw0KGgoAAAANSUhEUgAABhgAAAFoCAYAAACll/HOAAAAAXNSR0IArs4c6QAAAARnQU1BAACxjwv8YQUAAAAJcEhZcwAADsEAAA7BAbiRa+0AAHJcSURBVHhe7d0PnB1XXf//M3c3f9tmkza0pemftAKiCEloUfnbRFFQbJMCKpU/TYEWELEJwtcvyp8UEUGRpICCLdAUi4CiSSgI+AWSgiBSShL+ioBNoSAtoU3a0t0kuzPfz/veGbrd3s3uvXfOzJmZ1/Pxe5M7t9+f2ey9d+7M+ZzzOQ4AAAAAAAAAAAAAAAAAAAAAAAAAAAAAAAAAAAAAAAAAAAAAAAAAAAAAAAAAAAAAAAAAAAAAAAAAAAAAAAAAAAAAAAAAAAAAAAAAAAAAAAAAAAAAAAAAAAAAAAAAAAAAAAAAAAAAAAAAAAAAAAAAAAAAAAAAAAAAAAAAAAAAAAAAAAAAAAAAAACoryj9EyjF6O55y4edW67HUau10t6Qi9v/IXHLk/T5yVpRdG768KjiKD5o/7MnPfypKHK70ocuieN99nfs0+O73aE9S1a5A+3/AAAAAAAAAACYEQUGeJUVELLiQZK41Xp+toWCosUuudklbl/kkgMuivZkRQgKEAAAAAAAAABwXxQYkItOIaG1stVyK12SrNTqg1bUWpH+59qIk+R6+9DsSyKn4sMeCg8AAAAAAAAAmooCA3o2uZjQXpHQSla2ktZI+p8bR6seoiTZoxUPcRzvougAAAAAAAAAoAkoMGBGh3bPWTnUGl4dJcnqJIpWtlx0RvqfMI04ifdGLtqTJPGuI87tWrDqUHuvBwAAAAAAAACoCwoMuJ/7FBRabnWTVyfkpbPKwe1SweEud2g7KxwAAAAAAAAAVB0FBrg7drvFx7oFq1uRW5dEbjUrFPxrr3CIou3j8fj2eauO7EmfBgAAAAAAAIDKoMDQUNpHYY5zq6MoWhdFrbXp0yhBHMUHozjaHidu+5xVo9vTpwEAAAAAAAAgaBQYGqRdVGi11rkkWd+KWivSpxGQTrFBrZSS7bRSAgAAAAAAABAyCgw1p/ZHx7l561wUbaCoUC2sbAAAAAAAAAAQMgoMNXVk94J1rShZT/ujemgXGybc1nE3sZU9GwAAAAAAAACEgAJDjagF0lwXbUiG3PpW0hpJn0bNaINolyRbaKEEAAAAAAAAoEwUGGpgfPe89S5qrW9F0bnpU2iArIXSeDK+hVUNAAAAAAAAAIpGgaGitLfCotaCDYlz61suOiN9Gg2VrWoYXnVoa/oUAAAAAAAAAHhFgaFi2m2QotamKIouSp8Cfip2yc32od56Zzy6hfZJAAAAAAAAAHyiwFARR3bPWx1FrU20QcJsZJtCH3bJlgWrDu1LnwYAAAAAAACA3FBgCByFBQwqSZJrDifxJgoNAAAAAAAAAPJEgSFQFBaQNwoNAAAAAAAAAPJEgSEwFBbgG4UGAAAAAAAAAHmgwBAICgsomgoNdyajG9gMGgAAAAAAAEA/KDCUbHT3vOVzo2hLFLXWpk8BhWlvBp1EW+6MR7dQaAAAAAAAAADQCwoMJbljt1u8yM3fFLVal6VPAaVRocFNJBuGVx3amj4FAAAAAAAAAEdFgaEE43sXbHBRsqmVtEbSp4AgxEm8N0mSDXNWHdqVPgUAAAAAAAAAXVFgKFBnn4VoSytqrUifAoLERtAAAAAAAAAAZkKBoQDtdkjRgi1RFF2UPgUEr902KYk2Da8Y3ZI+BQAAAAAAAAA/RYHBs/Hd89a7oWgL7ZBQVWqbNJFMrJ+36sie9CkAAAAAAAAAoMDgy+juecvnRK2trSg6N30KqLQkjq+4041tWrLKHUifAgAAAAAAANBgFBg8OLLzmDdEx8cvarloUfoUUAuxS25O4ng9m0ADAAAAAAAAoMCQo9FtI8ujKNkaRa1zo5HxsdbiibgVRQvT/wzUBqsZAAAAAAAAAFBgyMnYjpENLoo3RcnQT/daiIYT11p6aH9rfmtp+hRQG1rNMBGPr2NvBgAAAAAAAKCZKDAM6I5tI4sXRMl2rVpIn7qf1vGHDw4tcmzyjFpKXHL50IrRTekhAAAAAAAAgIagwDCAsW0j69xQvHXyqoXpRHMT1zr50MFWq0WhAbUTJ/HeI0mybsGqQ/vSpwAAAAAAAADUXCv9Ez06tGPRlqgVbZtNcUGSw5GbuGX+yMQ9ye3pU0BttKLWijlD0Z4juxesS58CAAAAAAAAUHOsYOiRNnJ2Uby9FQ2tSJ/qWXTsxGjrhPGEDaBRR9oAemjV2Ib0EAAAAAAAAEBNUWDoQS8tkWbSbpl04qH9rWE2gEb90DIJAAAAAAAAqD9aJM3SoR0jm3ppiTSTdsukH8xfSssk1BEtkwAAAAAAAID6YwXDDO7YNrJ4QZRsj6LWuelTuYtGxseGl8Tz00OgVhKXXD60YnRTeggAAAAAAACgJigwHMWhbSMr4yjeOsh+C7MVzY9d6+Qjoy0XLUifAmojSeIddyZj65escgfSpwAAAAAAAABUHAWGaeS538JssS8D6ox9GQAAAAAAAIB6ocDQxaFtI+tdK7o6PSxWy7mhE8f2t+ZTZED9xFF8cGJiYvW8VUf2pE8BAAAAAAAAqCg2eZ5ibNuiraUVFyR2buKHbP6MemolrZGhoaFd47vnrU+fAgAAAAAAAFBRrGBIaTPnY1yyNWm11qZPlY7Nn1FncTxx8fCqQ1vTQwAAAAAAAAAVQ4HBqLgwP4p3FbGZc6+iYydGh5dOsPEzailJkmuGVo6ymgEAAAAAAACooMYXGEa3jSx3Ubw9xOJCpr358ymHR1suotCA2qHIAAAAAAAAAFRTowsMh7aNrEyG4l1RMjSSPhUsigyoszhJrr8rGV23ZJU7kD4FAAAAAAAAIHCNLTBUqbiQociAOouTeO9dydhqigwAAAAAAABANbTSPxulisUFSQ5HLr5l7oJ4PL49fQqojVbUWnFcNH/XHbvd4vQpAAAAAAAAAAFr3AqGqhYX7qPl3NApY7e3hlvHp88AtcFKBgAAAAAAAKAaGlVgqEVxIUORATVGkQEAAAAAAAAIX2MKDLUqLmQoMqDGKDIAAAAAAAAAYWtEgaGWxYUMRQbUGEUGAAAAAAAAIFy13+S51sUFiZ2b+MH84+PxeH/6DFAbbPwMAAAAAAAAhKvWKxhqX1yYJJqbuNYph0dbLlqQPgXUBisZAAAAAAAAgPDUdgVDk4oLkhyOXPyDuQtil4ymTwG10VnJsGB7eggAAAAAAAAgALUsMNyxbWRxFMXbm1JcyFBkQJ21oujciT0LtqaHAAAAAAAAAEpWuwKDigvzo3hXEg2dkT7VKO0iww/n0CYJtRRF0UUUGQAAAAAAAIAw1K7AoOJCKxpakR42UjLWcuP7h1jFgFpSkWF874IN6SEAAAAAAACAktSqwDC2bdHWphcXMsndQwvG72iNpYdArbRctHl897z16SEAAAAAAACAEtSmwHBox8imqNW6KD2ESQ4Oz5+4J7k9PQRqpdUauvrQ7jkr00MAAAAAAAAABYvSPyvt0LaR9a4VXZ0eYoqhk8f2t+a3lqaHQG3EUXzwyESycsGqQ/vSpwAAAAAAAAAUpPIFhkPbRla6VrQ7PUQ3LeeGThnb3xqmyID6iZN4713J2Oolq9yB9CkAAAAAAAAABah0i6Q7to0sTobiXekhphPb/3fbvKWxS9j4GbXTilorFkXzt6aHAAAAAAAAAApS6QLD/CjeFSVDI+khjiI5HLn4R0NJegjUShS11k7sXbApPQQAAAAAAABQgMoWGMa2LdraioZWpIeYheQnwwsn7nQH00OgViIXvebI7gXr0kMAAAAAAAAAnlWywKBNnaNW66L0ED2Ib587Et+T7E8PgVqJhpKth3bPWZkeAgAAAAAAAPCocps8s6lzDrTp86ljB1utFu2lUDts+gwAAAAAAAAUo1IrGLSpcxTF29ND9EubPv9wHsUF1FJn0+cFW9JDAAAAAAAAAJ5UqsBwjEu2JtHQGekhBqBNn8fvaI2lh0CtRFF00fjueevTQ9TTpyyxRZvX553XWiq7RxEAAAAAABXzQYvGKbvdow+aN1sWWeBJZQZQxnaMbEharbXpIXKQHByez34MqK2haAv7MQAAAAAAAAD+VKLA0N53IYo3pYfI0cT+eUvjOD6YHgK10UpaI0PR0Nb0EAAAAAAAAEDOKlFgiKN4a5QMsWeAD9qP4ba5/G5RS9qPYWL3fPZjAAAgX7p2fLbl3ZYvWSYs3Zajf9nyHsvTLEMWAAAAADUTfIHh0I5FW1rR0Ir0EB4kYy03cadjFQNqKWq1Ljuye97q9BAAAAzmlZbvWFQ4uNiyyjLdPcXDLSpEqKfu/1ieb6HQAAAAANRI0AWG0W0jq+1HvCw9hEfx7XNH4vGY/RhQS1GrtfWO3W5xeggAAHr3CMsNlsstJ+iJHp1uucqy03KiJbIAAAAAqLhgCwx3bBtZPBTF9E8vUHzbvKXpQ6BWWi46Y1G0gFZJAAD0R8WFT1jOsQx6//B4i/5vPcBCkQEAAACouGALDAtbyaYkGjojPUQBksMRrZJQW0krWZc+BAAAs6f9Ft5p6WfVwnTUOkltk+a0jwAAAABUVpAFBlojlYdWSaijOIoPTkxMsA8DAAC9e4nlaPss9EsrGS6ysCcDAAAAUGHBFRhojVQ+WiWhTrLiwrxVR/akTwEAgNnR6gUVGIbbR/nThtGsYgAAAAAqLLgCA62RykerJNQFxQUAAAZyvmVJ56EX2vh5hSXYtq0AAAAAji6oi/lD20ZW2o9Ea6QAtFslxTFFBlRWnMR7j0wkKykuAADQt/Msvu8Xivg7AAAAAHgS1MV8TGukoMS3zdWyeKByVFy4KxlbvWDVoX3pUwAAoHdFrC54goUCAwAAAFBRwVzMj+0Y2dCKhnQTg0AkYy0X35Ow4TMqJUmSa4ZXjq1cssodSJ8CAAD9UQujqPMQAAAAAO4viAKDNnZ2UbwpPURAJvbPWxq7ZDQ9BIJm79WNQytH16eHAAAgfI+3DHUeAgAAAKiaIAoMC1yyJUqGaMcToti55M7ocHoEBKm9mXM8sWZ4xeiW9CkAAAAAAAAAnpVeYNDGzlGrdVF6iACx4TNClm3mPGfVoV3pUwAAAAAAAAAKUHqBIYkSZhxXABs+I0SJSy7Xfgts5gwAQGV9xRJ3HgIAAAComlILDGPbRtZFUevc9BABa2/4fCS5NT0EShW75Ga1RBpaMcreLQAA+PNdS9J56M0Bi++/AwAAAIAnpRYYWlHM6oUKiX8096T0IVCaJI6vuCsepSUSAAD+7bX4Xl3waQsrGAAAAICKKq3AMLZjZEMSDZ2RHqICksORm7ibVQwoh/ZaaK9aWDW2Ycmq9mxHAAB8+G+LBrw1q76XaKB8rqVOrrP4Hvwv4u8AAAAA4EkpBYY7to0sdlFMa5MKSg6wigHFiqP4YOySjdprgVULAADPVlg0ASZqH+FDljs6D71QC6YiVkkAAAAA8KSUAsPCltsQJUNsGlxByXjkJu50B9NDwKskSa65a2Js+fCKUdqpAQCK8BLLUOchjK753moZbx/l7+WWI52HAAAAAKqo8AKDVi8kUbwhPUQFxQfmjsQuGU0PgdwlSbzjUDxx5tDK0fW0QwIAFOg8CwWG+3qd5UuWvFcZfNiy3TLRPgIAAABQSYUXGFi9UAN2e5ncGR1Oj4DcxElyfXufhZVj6xasOrQvfRoAgCKcb1nSeYgpfseyv/MwF1+xPM/C6gUAAACg4gotMLB6oT5YxYA8qRXSkfjIquGVo6vZZwEAUBIVGEppH1oBN1t+0XKDZdCVDJ+xPNHyI4s2xwYAAABQYYXeRLF6oUZYxYABafPmJI6vyFohzVt1ZE/6nwAAKAPtkY4uKzK8xvJjPdEjbeh8iWWN5TYLxQUAAACgBgorMLB6oX5YxYB+qA1SHE9cPPyIscVDq8Y20AoJABAA2iPNnvZkWGp5juVqy27LdKsa1Arp7y1Pt5xleaeFPRcAAACAGimswMDqhRpiFQNmKXbJzZaNWq2gNkjDqw5tTf8TAAAhoD1S71Q4eK7lkRat/Ii65BEWFSL+2UJhAQAAAKihwm6kWL1QT8mdcygaoas4ifeqqNDeW2HF6HLLFlYrAAACRXskAAAAAOhDIQWGQ9tG1rN6oZ6S8chN3J3cmh6iwbRKQZs1q/3RwfieJcMrx1aqqMDeCgCAwNEeCQAAAAD6VEiBIYriTelD1FByYO5J6UM0hDZo1l4K2qR5Ik4uaLc+WjG6XJs1q/3RklXuQPr/FACA0NEeCQAAAAD65P1mamzbyLokGjojPUQNaRVDfIRVDHWTFRHahQSXXK52RxPxxJp2MeERY4u1l4I2aZ6zanQ7rY8AABW12PIsC+2RAAAAAKAP2nzNq9FtI8vtDwU11jpu/OTWCeM/TA9RUbGLD9DSCBXxKctqi4/vsT+zaOVd3D4CUGfPtrzbMtw+GsxnLE+0HG4fAQAAAJitD1p+yzKvfZSvzRbd49/ZPgIAADAqMKgAkHjIay20SwGa4Z8sE5Zu54Je82nLXAsAAACA3qjAMGbpdp09aN5sWWSBJwygAAAAoInUHuk8C9fDAAAAANAnbqgAAADQRCousPcCAAAAAAyAAgMAAACa6HwL18IAAAAAMABuqgAAANA0tEcCAAAAgBxwUwUAAICmoT0SAAAAAOSAAgMAAACahvZIAAAAAJADbqwAAADQJGdYKDAAAAAAQA6i9E8AgH/nWs60LLestKgHuB5rsGu29loOWPal2ZNGj5vkU5bVFh/fY39m2WSJ20fNssKyxKL3qn632Z96jyq9/L6/a9H7MrFcP+nP7L2rYwxGr1d2PtHrpmO9RvpT55defcai973OMTrX6DX6tOX2Scd18CrLqy3D7aP86Pf3RMvh9hEwe4+wZOfe7LOsApie12e533Pvly13WPT51Z/6PE9Ymka/R11/Zd9xg/x+5d8t+j0etOh3q/OmPv/ZubKJ1w95eZzlLIu+2/Q6HW/JrkFmWxT+qkWvxc0WfRb0muha+SYLr41/D7foddNrOcfy2PTP0y29vI7yPYteQ71un7UcSf/8jiV7HuF7jEX3bY+0nJAez7XM5E7LVyzjls9Z9Lpnn2c9VycPs+h3o8/NUos+R/rcZM/38j11i0WfD31Pfc3yY4t+j/pT318hX6d+0PJblnnto3xttugeX++rvD3aovd3dq2h1+wXLHoNZ+PrFr0+2TWc3uf6ztKfOu9VQq8XUwCA2dENqy6kNFigPzUA6JNucnWxpQHc7ZbdljqjwDA4vTf1vsyii6GirguyQZldk0LB4eh0U673fHY+KfL1ymiwMitqZuebKn1OnmB5jUW/Qx+rFzTASIEBMxmxTL420GMf78fp6OY1G6DRZ1jn3zoVHXSu1Gddv99VlqyYUCQN5Ew9VzaxsDMTfRYeb5n83eZzbxwNKul7TK/HDsuXLLwug1HxQINqk68li9rfKBt8zs5jSmUG4mpOn+3ftKyzrLXkOVj8H5anWFQ0r6pFFhUSsu8pfWfNpuCSFxUgsmv67PMTyrVrVQoMKvz8nkXX/XoNZ1tI6MfnLdk5TjlkAQDUnIoKF1m2WTTopgHTsqIZyNdY1ljqWExWgcHX7/i1lqIHI3zTe1MX+LqwUvGp7Pdnt+hm/2KLZpeiQzfqb7b8jyXE10zRQOVbLE+1hPq50Y3bJy0aSOr2b6hDXmfJe0VG5t8svn53Pn/ukGimvFbO3GgJ8X2ogQYV13/VUsXNz/X7fZNFs1tDPVfqd/xWy9MsTXjPT0cDj8+0/JNFg8HdfldFRZMd3mv5dUuTX5PZ0mungT991r5o0Qzybr/XMvOvlkstJ1rqdv+jCWQaBO727+4lf2c51uKDVia8wzJq6fZ355ErLcdZqkYD0v/XosHiss993aKVDm+w6HxYZLFjKhUYxizdfsZB89uWQQoXeg1fb/mGpazzn4ojH7BcaFlgAQDUjGYfhFBUmC5aZne5pU4DtxQYZqbBac3WDrWgcLSo2KAB6zoWx2ai2behFxWOlg9ZXmpRi4uyXz/9Lj9hqXNhIQsFhvDo/fcSy7ctVfosa9D17y0aCA+52KDf719ZQi4qHC0ftvyR5UGWuk1q6Eazdf/REuLAmqKVPRo4OsnSxGuP6ahNy59YvmAJsaBwtKjY8LuWMgdL85RXgUEtpjTxKE8qLHzEksfPN1N03vdVIMnbaZYXWjR4X6XPjwax3295hmW+pUghFhjU/kj3N75+rn6jlSj6POh91oTrCACoNa1WUG+8bif8UKNVDeoNWHUUGLpTUUGrFKr2vpwu6p/8XEsTLprUJkWz7Ks4UDZdtLqhjGKDBh7fZanaYMggocAQDq2Yeacl1IHUXpIVG86xhHIeVkud/2ep0+dbqxtebqljsUGrFb5pqVKh9x8sD7U0dcBGRYU3Wv7bUocCvYpHv2/x0XKlSHkVGHReV4//PGhgUwOvRRQWsvyhJfSZ2yq4vN1yj6Xbv6FKyYoN2V4qvoVUYAi1sDA1eo3+2kKhAQAqSK1mqj6Ae4WlyisaKDDcSxshaqVCXYoK3aJCg2bT1nFWYR0LC92izWV9F4uaWFjIQoGhfCosaOC7DgNy3aJB8Odbynq96lhY6Bbt5XKJpYiBHJ/USue/LFX+PGiA8GRLE1Y0aAPmV1iqVgzqJSo0qOBV1RUNeRUYlAdYBqWi6N2Wbv/3feYCS6ivoQoLWp2mHvndfvaqRysxXmxZaPElhAKDBuq3WqpWIFKhYYPlGAsAIHAayN1p6XZCr2K0T4N63lfxxokCQ6fQFXJrLh/RRmQ/Y6nDzb6Wp+siuq438tNF5x3t2ZDn66jfpWaMN7GwkIUCQ3lU2FI/+aa8/661FDm4o77v6jfctM+3Zhn/jeUhlipNetBA9UctdVjBo+h1eJGlLm12ptJGvPp8FTkDveyoRdAvWKo20zfPAoM2X+63iKnBV12Pl/UZD7HAoN/Jeyyhz3TPK2p3l3ebrUzZBYbfsai9dJXvz7QReikrInO7QX/Uox61Mo5jX28yVNg3nv2mY+856UGqbsO3sfE97uIzNXiD/GmGuFLHWUyaWayLtdvbR9WgAoP2vvDxemijy00WDdyHRt+zKizovViHVlf90M3+8yxZcaWKnmNRK6vj20fNdZ1FLZTUQ10XxL3S50E97jVbp+m/yz+36LylQdi8qcCgzX993Kj4/LmL8KcWnY+rPtu8F+rJnBVHfXuWRXvSqJ1HHa+/Zku9zbVfw7csIX/vaQa8Pg9Vb0XTjQal1c//B5Z+vq9Ckm3W/EpL1QpYedFMX83E1kCpBu2rQAUGFYTy+L5Rm6GrLBrI7cVvWLRJ9KmWss7JWlV0a+dhEF5m0XmvKvtC5EH3YWol1+v7ZzZ0faHzk4/vEb1vv995eD+LLJpkqBWEPldoFOUui1aO615LK2oKkctJYcWKFYvnzp17R3oI3Md3nvSi0dsf/iR2OC9SrAG4ZI99xPe5KN5jl8F73IWn7Ur/K3qjVQsayFzZPqovDdpqNYMuXqtw49S0AoMGUnUzoIHUOm3WPYi3WjZaihjkyoteR/XIXG9p4g19Nz9r0aBZL+cdCgv3R4GhWI+waNXM2ZYmfZbVYkS96UfbR/5oAFQbF+q6pC4ttAalGdffsIRYYNCqBfXo/kVLyBuDD0qD0lrNoBVLmr1dNfpc6efXd+eJliYX7TJXWjTR4Sfto7DlWWB4k0Xfvb38u9USSQPpZbdfCaXAoHOyVpmpLVKTvqe0sbD2ZfL1GpRRYFBx4Z8taltbtwkjmpygomAh57hcLojnzp2rJVZAVw/Y88n96UMUpWUXkK3oXPvzIhe1NrtWa6f7wPcT975bdtmfm9y1t9R9sDwvmim+29KE35duOv7FootNbjjCoiKXZnhfbqG4cC8NMF9tOaF9FD4Nin/CogEzigsd2jz2fyy9FjU1uPsqC8UFlOHZFu2bEtLGx0XRTDjfRV1dj3zcohmSFBc6NFNU1wEhFhc0EPSfll+21Lm4IBqEeq9FE1Hm64kKURHoK5bXW06ycK3fcalFxeJllib9TjQo3stAqlpbanZ32cUF7QEQwoQErWZSKzjtDdS076mPWXysXCjLwyw3Wn7FUsfVqJrY9gJLIZ/dXC6KkyShwIBpLbr1v9WTDiFQ0UEzD+ZEu937v7fPvf+WLRQbpnWRRSsXNCjYJK+2aFMjbjzCoT6QVV+O74sG+lQYC/3ifoXl2xbNduazdS8VGKra5grNpNmuKmw2tWWPZmv6nLmt4qE2mdVMeAqx99Kgdogz5rVhrlrMNGUj5MwfW95tqVIbDa0+4vu2O7V90/tYBaSmUMFptgVBFRfUNiaEoppWEZX9Pr7CouuAMttElUkFuSq2P9fKi6kTJFRc0Mqgsyx1vuYorMiQyy8xiiK1qQCmteTbmtiCoEStM+zDe1m72PCBH+xx77tlvbv6pqYNpk9HFw1KUwcC1R9eX7bMlg+HLu65MezuCRbd6Ic6c1IbwGq2c1VWWhTlyxa17uN9jSrQrHq1itKs+rrP0p6OZj/fZPFV8Na5UisXaN1yX/q961wZWjvAt1t0rdzUNrgXWtQq6RRLVd6ves3qNPM4T5rR/w5LU/roa3B8NmOBIRUXRC19y5p0pesA3R+/0NLU897XLVp5XKX2tJmpBQYVFPUdpj0NmzChQUUGfW95fe8O/Is8++yzVVzQhw2Y1si3/mO6zVQQhGSFa0VXu/lz97VbKDW70KAvGq1eaPrN7fmWnZYmfOFWAQWGo9NKBvWFDe39qnOpenrSyuf+tIdGFW9Q0DxZccHXPhRV8TaLr9YU+h1/wEJx4f7+1hLa6gUNVKvYVsd2Er1QP3wVxaoyKK0B9MI2+6wgrWTQSu46bPA6G9pD4GgrgEMrLshXLWW0SNJ3lDobPMUyV080lDYGr8J+JTPJ9lxQJ48mTRp5s0Vtvby9h/O4SGb1Ama05L+/0JQv6mrT3g0apGtuoYHiwn2prYt+JxQZynfAonYytEqannryq39mSJ9fLSNeZeGccl+agfYeC0UzhC4rLjRxv4WpPmzxVRRU6yl+x/endiDXWkIqMFBcuC8N0moDzSrc6+q7V/t5HG4foRttZPxrlia8v4/WJkm/h+daqrbXiA9ZcaGJ+y1MVeX9F7R/R3bu076Gve5DUgfHWTZbvE18y+Mijv0XMKPhI/csmXfwtvQIwZtcaFDrpGbQyZbiwv2pXRJFhjBoczUGZI/uXZZQWhH9oUXXSHx27o/VC6gCigv30h4A+y0+itwvtuhc2dTWU0ejPS9CGgx+g0WDjhQX7kttJzShoApFhjdaRjsPMQ1dozRh0+fpVjD8huVPLWVv6NzN5yxFnhMpLtxLLeF+aKnqvagK9rqGeZJFK9+bOgH65y3aR0jv7dwNdLG8YsWKxa1WSzNcgRkd893dXMxUjQoNap30vlt2uffdtDx9to5UWLjMQnGhOxUZVGji91MubfZ8vYVVDNPTbCwtby97oEq9xEP4OULF5s6ogr+yaGN2ioTOXWfxURTUufKVFgasu1Nhp4x2IN1oQ2cVzpvcHuRoVGTQtXLovx9t9vwZSyjvqxCdZnmFpe4DkN0KDPq3q7DZpA2vj0aTu37Z0vTiglR59YJoBZfa2WmT7qbvM7nBog2uc39fD3TBPDw8THskzNoJ3/y8Zj6hilrRuXa9vMe9/3s6GdWNeu9pg1gGz49OM8PV6gXlYhXDzF5i0YZdZX6mVVxgk/TuVFzQBnEUyhAyzd7UYCFFws6A5IcsPgoMf2JZauEa7P7UyuY7lhC+8x9uURugpm5sOlsamP0lS+jnDVYxzOxSy0MsdS4wq5gw9b16jUXPh3pO/p6lqBWwL7NoxRbnvc4GyR+xVLnA8DuWf7c8yMLEEec2WnJfxTDQL7bValFgwKwd+/1vVmUDLHSj1QxRa3N7NUN99mbQv+NTlrK+ZFRJ14x0DRpfbFlzlOhLQBX3PZay/IuFzWrLpffLzZ2HOAoN8Jf1udaMXC295eK1O1YvIHTnWXQOYVZ9h8/VCzpXMjO0O61eCGHvBQ1AfNRS1mxutbXQoNCfW7T3gzZb73adrGiFhVqe3mgpqw2fXrdTLCEXzfT7vMnCd/HR/R9LnVcxTJ3BrH0XftES8jm5qAJD1iaK8auOqq9eELUG0gQ0Jo50PN3yKEuuq+4G+uI7++yz99AiCb348iVXukMjJ6ZHqKzYHXQTyWr3rFPLHOzOw05L0YVSFRV2WLZadln6mcWrwshai3oW688ib2LeYtFKlrJnH6swpNfOx7/9zyybLKHeeKmll1bd+B7A/rRFbZmUOyx7LTO97uda1E5NK4N0fVDmDfaDLZr9WfR7Vat9NPO5jAKDXjOdl7PXS3/O5AkW/az6UxfeGvTz9bppJrRel0H75+pn/YSFAeB7afBN5y0fbS+0D4EG9Xy8p33+3P3Q+/8LlgdYyjx/hUQ35f9lyftcqhnxmh1axmCWBlh3WyafK2f696kHtwYm9OdZFp/nSg2i/ZzlJ+2jcv2r5dctRQ7KqKigTcU1m1rXe/2cH1QY+S1Ldq1c5PfFOywvtYS8SkAtna6y+O6zr575uhbLriW/bJlpgPixlp+xPMKi68kyBwQfadE5IoR7gu2W37Tk+V7WHkO6btT5RteQIa++1XlB15C+N/bUCg7do5e9GjokahP1RUsRxZ0PWnTuntc+gk/6Xb/Q8uP2UQ76/sBo/4W5c+fO5sYV+KnvPOlFo7c//EksM6uLOLnYXXiqBsqrSHsuaJZTURcOmnV+uUUXh3meOzWY+xpLkRtUa6BJxZkyiwxNLjCIbtY0wJEXvT9V+NJNhi6qdSM46OubFcL03vT1Wh2NXkd95oqexfgji1p+FEED9nrddF7J8zOpAXy1RFPBSK9dXjecl1hUHCvzs/Uqi86ZPgYs1Nf6iZaQNmXNQ5MKDB+36DUso0A41VcsmmWswa2scDjdZ1yDqSrqakBE1wVZ4XBQGoj/NYuPmYs/sJxsKeK7QedKrcTIzpV5fS+o2DD1XJnHv+dFFhWry17B8PuWv7bMbx/5p8KKzglaMZvnpuLan0ntuLRauKg9ErQSSrN+Q97rQOcW9eHP63yn10+FIa0g0WB1Hi2+dG57ikXXklqlUvTEAu3Fo++oe9pH5fJRYLjAotY32sA37//befsPi94Lvscgdf7R3xPCfipft6itqApzug7QQPB0nyntm6F2dro/1HXA4yx5/Bv0e9f5LLdB6BlUqcBwl0XXajrf6f5Pj4/2vX2qRa+Nrh1UvFRniLKvN1XQ1cSaXL6r+r4AOvvss1e3Wi1doAGzdmD5qu996+mvUVUYdVHNIoNO7F+yFDVLQy2Qtlh8XhDp33S1RTe5vm/WNRiti5cyBwmbXmBQ+w4Nkg5yUaKe2iom6IYlj4LC0eh9qZ+3yEKDBpQ0A67Im/vzLf9s8T0jV/82nVf0mS/ifaqBy2wATUWjft53Wr2lfsa+Z57NhAJD75pSYFC7nndayhxU0OCczsnK7ZZBzsvZ7F99bhVdJ/R6/n2BRUXBvF8fDVZoQMv3AILOlXqP+fg3dKPfeXau1PdBP98FmqWrVSMqwPj8Xp6JBuU1sPRASxHf22+waOKPBml8/bv1b9LqAhXNfH9Pa7Bdg/d6PUP1xxZ9Hw4y+U/tszQmpMkO37b4vCbRQJg2hdf3UVED4XoddQ0UwsRaHwWGN1m0Qk2fveP0RMCKKDD8rkWr63LvTd8DTXTIrgN0zTzIZ0ptsHQdkH0v6f691+tftWm+0lJUkS30AoOuifXaaCxCRdRBri0ebdG1wnMsmnBRRrFBY1S6Dtd92sAG+QfoDQr0ZOFt+0KoBCNPrehq977vV63AoEG5IooLmhmk6rQu3n1fmGqAWDN7NGPb9w2p2gJoBUhRA8W4P7WqOtB52BPNgFEPY82Y0ECxbig0Q9b3e0Z7R/yKRTOlNGhWBA0k9DsY3q8i/j7tYaDCiWa3FlUE07lM77mnWnRjon+nzqO9nNf0cxf12gO90mCCZqqWMXtTg+Avt6gtk2409dnWTMFBz8s637/HojZEGlTQ6gbNAtbszNkULzQw6mv/BQ0e+G57ol74KmpqYKSoApZ+52+1PM2i95IKKb2+nvq585y93y8NxJ9k8X2t91XLYywaONZgms9/tz5rGqBVodl3P3FNqHuxJeRZuHqN+yno6DXTKhu9PzTgq3Pnf1t8X5N81qLe+Gp79X1LEZ8RvY76HNd1DEMbGauw7ru4oO8TvX7XWl5n0f3q8y2alJHtofISiwY69d80WUeToCZP2ND7zue5XNcB+tm0EqBo2kRZ58BTLDpH6bP5Q8ugn6mvWfSdkm1aruuAZ1o+YNFnf6b/+5qhryJi1fdfGJReH53ndD7QOejtlm9aBn0/qmj2CotalGnPF/09Rd3bZX7bklurvL5vgtngGf2Ye88dJw0dCqGdKHLVshvW6hQZdO5SFd83DajqYkk9foukizItAe9n8LkXKpqE3Kez7vT6arbYbG6utOJEqzI0KK1ZLJrJWdZMLP3MKjQUNdCsz3qRhTC1JfH59+lGUJ/vogbLpqPVLxq0zApVsyk2aNCt6HZVwGzpxv4ES5HnCw24aHb9gyyaRep7UFnfBSo4aPBb/1Z9dvV9MF2xQcWFPAod3ehc6bPAoJnZOlceah+VRytSNIimtnmzLR79jaXs1khq36DvT99FIA04PsnyeUuR3w9aLaHJFhrA8/mZ+7+WIoo0/dKMVb1HZ7PqTjP59Xt7qEUz+jUA6rsgNB3tC/Jkiwbjivj7tXIi5NZBIdL3mwam1d/9Zy26XlTLHq0UVIFPhQSdDz9pUSFBeZtF97H6b9qAVvfRKtBpwpCKPO+z+Dyn6xpbA/xFXwfo+18DzLoe+F+LzwFmfY7/wfIMizZGVYFQKzZutXT7e9Xmbbr/1gQqsKhNoFaC+CwA6H2Q/T3ae6jI/XuWWbT6Mpci6iCz7DRIAfRs4W2aLIvaUZHh/bdoiVXodDPt+8JBN/C6KCprEFdfTPr7fV4MaJYHqxjKpRY5R3uN9T7UMnLNVlFLJfXwLONGcCrNhi+qyKABtKLeo9pzwuemnxrsu8IS2iD91GLDNsvU96V+9lDef8BU+tz+gaXIzYY/Y3mURQMtZQ0m63OpQdbJxYbJxUvNNPVxvtH1gwaMfJ0rNWCqFVdlD9JPNbXYoDYQU4vFH7HoXFn2YI5mZ/red0GDXGpVVFYrKP392rz67vaRH5oJrX0sQl7F8EbL0WYnv9+iwXytgtJMW83aLfv9KZrNrpneRRQZNGOZLgyzo029s9Uten00eK3VLYN8l2R7e6gVl68WlJqZrpaAC9tHxdDsdRXbVYj0eR46GhUQVARSe56s2DC5FZJWOoSw/0gZ1ApJxVQVFlQAKIL+Ht1TadJLUX+nqNCfyz65fRUYVqxYoR6eZfYlQ4Ut+vZ/qgqKOoqiy9z7blmfHoVIrQF0/vJJKxc0a67sgTRtBKUvKJ8/R5EbS+P+1BZr6ioGzVBV4UEDRnp91B+y7PdiNyoyqN2O78FyDWL103e8H7oI9fn3/JEltOLCVCo26HXVQIQKkFlRQasXQhiQALr5U0uRs1Nfb1HxV4MuoZyfs2KDBr/VC1htlPLcDHkyzZTz2UpOqxfKXrkwEw2WqS2BVhaqLci3LDpHavVC2Xu4qH2GzuE+XyOtXFDLjiJnaXajDTk1uOZzAO33LCEPTqttlN6Pkwty2WoF7b+hn1894cteOdmNigwXWjTL2CcNPuta0udnouo0EK09RzRgrtUtVWupo9ULx3YeFkKz1VXg1P1QKNf2WbFBn3t9rvSa+izqhEwrabTaUzOjy7h/ebNFExKKWvGv92J5BYbh4WFWL6Bvx97yzSaepJpDezK8//vqjRkitfXxOQCYDZqGMpCmlQz6gvQ1gKFZnyooUWQoj2Zp6v2W7a2g1Qp6nxd1QTIIFeNmWoWRh6LaJPlcvfBpSxF7ZeRFhS69NzV4prZ0WgIfynkRmEyfW7Vs8N0KJqMZkjpHhza7PqOWKdovRTfWvgbpfZ4r/91SpdVSGtxVWxD1xta5UjMmyx5s0ix1nzPuNSisjVRDmRWrlQxqI+lrQFSD08+yhFxkyAaEs70VHmzR+8B3C6k8qFil1jK+i1W0SepOPf7VvkiFaT0OfSJMN/qMakA9lwHWWdhg0erFslYtzEQz57VySW2UqnA/mbeXWv7SUvbr808WjeUU0V/+5y2ltkiiwIC+Lbz9liKrwyhD4ra6a28J7TxRxOoFrRgI7YtYBQatZvCFVQzl0iD92ZZsb4WqDKpkNAjtu5WY75UFGQ2a+aICQ9Ve24x+dooLCFWRqxdUXJjahqiJdK70NRNYraeqer7Rz1724FwRqxc0gB3awLVm63/R4uv3H/oqBhXmNICua0kVG0JfATRV1kPe53vq4ZYi2+hVgfYO+CWLVsBUeQJpkasXVFy40lL26i10p+LC1DZRZdLPoyJqEZNSftky8OSCvi4e2OAZgxg+cs8SNnquuZYbcXNaW93VN6kneSh87xegmdhFb+g8Wxstvm64tRTWd+EGR6eVM1UdfNZm1dkqDF+KKjD4pBUBVX2NgVCp3atmFhexekFtkbQZetOLC77pXElBs3/aL8DnQLgG8m+whDjLWTP2fQ36afDed+FmUGoXVcXZ56KVV9o3xGdbHrX/ocDQoRnu2ktNn5mqD+roOkAz9YtYvaC2SNrYmuJCmLS5+FWW0Pac0M9VxL6ej7YMvPcSKxhQCjZ6boJkhVswRyfEEKgo6vO8pRtan62IBqVZ7trw19fPx2bPGAQFhpmpEAMgX2qNVMSAkWZ3ahJCqG2R6kQDjejP4y26VvZVcFNffxXaQp0dr1n8ag/maya2Vm6EvNlz1WnWsc+BWwoMHWqDpPPELksdCuZq11ZEcUH7mKiVV6htkZpO7QnVrjDE10ebgWssx/d3p9okDbyit+cCw4oVKzQjmQ2eMZAFt3yjiCocyqZNn8PYj0FtfHwKYVPnmfgsgKy1UGBAvzR4rs2Bfb0/63DNUociCRCaP7D4HjDSTM9LLOw/VgzfG0jXmdr4+GwXpgH20GfuaoWFr1nwT7HQw98fFRf/1eLrXLvI0vTrsGy/hX2W0O97Z0vfzws7D73RdYA286cAHiZtEq/JkiGPT262+H7/nGoZ+Jq45wswNnhGHhYe+H5oS4/gi/ZjKLdVkv5ubTzl66JQFWUl9AstXQz6+jnVT5nvBgxC701WMUzP56aoQBNpIFrt/Xx/rl5u2W+py2BM6E63cK7snQrx2n/B1wC4ekhXYcazNt3WXhg+fk5tJKtrkaI2lG8i373Km7yKQcWF37LUqbig1/NMi+/P5Kstt1ho3xcmta4K/fXRKgbtqenz/JbLRs89FxiiKGIQCQM77pb/ogdtU2g/hnJbJfmeXa/d/atyoaWf1ZdzLdzUo1++i3Qh7QfTj/MtfL6A/Kg9ku9BBQ1U6nuXa97iaHYtbUx6p4FDn7Pr32upyiqef7D4+lkfZ+H96Y/aXPkcgFMhronXYhp81XVo3fYDK6I9kgaG1XqNfRfCpPe22qtVoXXVP1p873milVoDrQLt+f/nJEmqfpOOAMy5c/+J6UM0gVolXXtLWcVJny2adKFVtQKDr17u2ueCAVD0q8obVRdBN7Vq9UbrDyAfGoj2XWBQv2X2XSiWbo61cTeDuL1RgcHX70x7L1xrqcpnQQUGX6uOKDD49VVLVTeqDpXa+6ggr9U9dbtOf7LF974ob7Kw70K43mzRe7wKtI+H70LVwPsw9Hyj2mq1NIgEDGQoGS9iMx2EZMhtSR8VSQVRnzN/d1iqdrGlJeo+fmb9noFBfNni6/P0BIvvwflPW3yeD3STckLnIYABFNEeSasX9H1LS4T707nS5yDgX1o0kYlJD7OjArb2B/A18K1NzqtWaNNMeB8rj37Twj4MfqnI4GvV2GMtTXv9XmX5vKVuK/GKaI+k1Qu6DmAPpjBp74WPWnztu5M3rbbQ5NagP4s932zHccwKBuTiuO/p+x+N0YrOde/7XtEFSt9te6q0eiGjoogvtNDDINj87Og0CPQJC4MTwGCKKDhqxjYzacuhVQwfs8xvH2Emj7f4nFWvFQFVKzB8xOLrZ364hX0Y/NFs5Krdm4VK51Hd61ZlALYXj7EM3G9+Bh+w0BopXHp/32qp0kQQFa0OdR56MfBGz/2sYNDmRADQh6jovRh8t0fSZjtV47MVDfswYBD6PFX5prCIzd418/pdFlYyAP3z3R5JA1zquczeC91pdYfv4osGca+ysJJhZj5XL6g9kq47q1Zs+4rF189MmyS/fL52TaLvsT+11LW9j+/2SPr9vd9CgSFc77RU7f2tzdZ9FuxPsxRXYFixYoWWEwO5WPTt/1TFEE1S/CoGnwPeVWyPJD6LInxHYBB1WMHgs81TRr1wP2V5kIWBM6B3mrHtcwUDxYWZaRDQ96zBZ1q06utnLZwrp6fPg6+CWxXbI4nPQerTLb5XUDWZriVpTTe4Ky3ftNS1WON7BYM25KW4EC61R1I7lap9P33dEnTLrZ6+3IaHhxk8Qm6ieKKOy+0wo8JWMeh8dUbnoRfqqVhVvmZaq0USN/FosqI2q9ZKhi9aXmqh1QIwe7RHCoOKsUUMAmolw39aXm6hvdz9abBb18q+PhO+9jIowmctPn52WiQhdJp9/w7LPe2j+lFxwff3Ae2Rwqb2SFV8fbQqMOjry14vJth/AblZtG8vy0ObqL2K4aYiipVq5+ZzsLuogUQf1N7JB1rooem0sqmomXPak0EbP3/J8qsWinvAzFSc81lg0MCMrg+YQXt0mtle1E2y9mR4o+VGy69bGNy9lz4PPn8fRRWSfPiuxcfPToEBodPqhR9aqnqfOxNt8OyzwKDrAK2CquLqrabwvZeBL9rouVabPLOBJ3IzFE+wfLypojkb0kc++WzFpAH6fZ2HleTrZ9eAJ9Bkn7YUfUOmASK1AdGqKgoNwNH5XsHwIQurF2amc2XRvycN7H7conMlhYYO7Qfg6/egmZa63qTAcF8qePE9jZD9naWuqxfEd3skzY6nU0fYqlpgCJ7PC2zgqOYf/KHP9jUIWRKtTx/55LNdT5WLC+Lz51dhhxsnNNUBi/qvlzGgooHTyYUGrvGA+9O1p8/vKG1gXNUB1SKpT7paSZUx2UiD6hQaOnyuYNAAfZVnQPsqMAgbPSNUau1zm6WuqxdEG9n6PO9/zhJ0n/yG0yoAjYVUdTLI5y3BFkd6uvlstVpFbs4KoK5absS9//vr0iNffLbr8bWHQVH0pVrnC0egTO+xlDnAmBUadlqea6HQANxLs9h9fiaq3BKmaGUVGDKTCw3PtzRxwNfn50HFtiqvVvdZYABC9VFL3Wd2P8zi83z/NQudOsKlAgMrTT3hphOlGjr0k/QRGidxPgsM2i/GZ7sezVJGd+zDgKZTATKEIqQKDe+y3GT5I8vxFqDJ2H8hLBqA1rmy7Bt9FRqusnzHos2gl1qasBJT18mKr3+rVqkwmaU79mFAqOpeYND+Cz6LC+y/ED7aI3nU00V2HMds8oxcLbxN4x5oKJ8FBp/tkWRP+ifuj+8JwLk/s4QyO+Z0izaD/h+LVlecbaGNGZrI9/cTxYXe/bkllIEYnSv/0qJCg1rdPcpS58l4vjd41iAbn4fufBZ2gH5p74C6D7z63gNFqxcoLoRN+wOxwsSTni6aWq0WM1MB5ENtkq69xdfG8b7PVVWflaVNqoHZUs/ycy1qk6hcZtnUJVssasujdhPdosKcBhv02emWyy11GczRrNwdlpAGVzSg8WzLFy16LZ5nqfPgGTCVVvX4HFClPVLvtIohtI2xNQD1TMsXLDpXXmKpY/sk3+3Cqn6tTIukfKmAp3Nwdi35EstrLFOvJTdbsv2kumW3RYODU68hs7zRstCC3n3WUvfBcd8bPNMeKXy0SPKIG0uUapgWSc02nPja18X3LMUbLd0uaqsSLR3i/I+MCnJrLbrRy4oEk4sB2rNDN3V6XtH/G/2/nRoVHvSZVjGiW/T3NGnGnnp63955GBzNXH2nRT/fWyyPtDCbEhiMBlTRu0stP7Lo+yY0GoS/0vJjy9ss51jqcv3kexZ9tgfD5OvPKkWTcVRswuzos3K+5VUWFQk+aZlcDNDvU5MvsmtJXXuooDD1WnKD5Vct3a4jFU1Oo72UH1+1MPt+MLoOoDAZNlaZeMQAE0p1zM17mUndZFF7MNIHXysjMDO9pgxUhks3ZyoEXG3RjZ8uglVM2G7RjV5WJGhaMcAH7dWiVQIhz2TSAJNmEapomq1qYK8G1NXjLT7vfT5tYVZc7zQgoyLD4fZRmDTQ/GLLDZZsVUPV92rw3SIJ09O+H1VeFaOfX9cO2udJ1w+6ztEKLq3cfK1FRYJfsVAMqJbPWVjBMBj9DkP+LgNFIK9mfZH9qEc9igE7APmKWz5XMDA4CnQKCpoRptliupjSSgStQFhv0fc6nxO/1PpDN9tVGHTMVjWwVwOAol1n0d41VRjcylY1VH2vBvYBwGypoPBKi1oX6TOq1SlagfBci1ZAUkSoPm1OzKAr6o72SJ7N+mKIDZ4B5E77MLzvpuXpEYB8qN2RVijcYVFBQSsTWFlSHg2aXWOpyo0bezWgrrSfjM/zoFYwMEDTP234rO+uqvSv7rZXwxwLUAe/aVEh7TaLzm26llHrojruR4JOe6SqnHsHcZrFZ0GMFQxho8DgGTeMAEo27KPAoE3EgCZRS6N3W1RUULsjrVBgYkA4NEi/1VK1wcfJezVocOEEC1BV2mSUQmvYXmDRd1nVBrqyVQ37LSqUPMAS+ntNs9KZeY7J9D5+h0VFhQ9bVDSrwnsZg9MKBu2VUXe+CwxAo1FgQKmO+cG3eQ82XctbmySgCS6yqP2R9lO42EJRIVwqMmy0VHHmjFY1qD2CBs/UPulnLAw4APBBRQb1cK/iLFCtavgTiwZor7U8xMK9DkJ3oeXjli9Z9PmjqNA8TVnBgGZj/wXPuOBBqeaO3ckHvOmShAFRoHcqLKhXvmbF0/6oOtSz+KkWrQioKrVP+rZFbZ8oNAAdX7E0YfZnUf7G8nSLBuqr+nv9Pcs3LdqngUIDQqTCwjcsKob9uoX2R0D/vmahSBO2r1vqvpF5qWZ9odNqteiTDiB/SXujWQCzo1ZIn7KoT/WZegKVo42ftSniJy1VHpCk0ADc64CFAkO+tPHzL1r+n6XKPZMpNCA0aoX0rxatSHyohfckMDg2ykbjzfrLJI5jCgwAqoBzFepIK33ebNHy9TUWBnOr7WbLEy1qA1Ll1QySFRpea2GPBoRK+4kwiFY9Olc+yXKZRS3aqlzEyQoNr7OU3YKG/UiaSe0O/8Kijcl/w8KKBTTJL1h4zwMecaENoFytVt4tklRg4KYJdZKtWtBgNN/b9aKWSVrN8C+Wqs960h4N37GorQnvU4SGdozVppZJ51g+aKnyagZ5hUVF2d+1lDXYdYaF83SzZKsWXm6ZryeAhtEeOYwRAB5xYQGgZIkGTwF0t9aiTZxXWbgorifN0H2a5VcsWqFS5Rm6mh35T5btlqV6AgByonPl71i0iu8GS5WLshroep9F58qTLXy/w6enWD5mebRlSE8AAJA3CgwAAIRJGzlrZvuS9hHq7nrL2Zb1Fm3gXeVCw3kWzdBVGyiuNQHk6TMW7c2g70idZ6p8rtTAr9omPdnCwC980EbOH7CcYqGQBQDwhps+AADCo4GTd1v4nm4ebbqoTZOrXmjQagZtzvpcC+9jAHm71vJgy3Ms37JU9Vyp1QxqXXOJZY6eAHKifT+ushzTPgIAwCNu+AAACEsViwvftXzaoln4k6ONfy+fko0WtQNSm4vJqXp7oLzVpdCgwY0rLGysB8AHFRoeYql6oeHtli2Wee0jYDAqLlxpqVJx4XsWrVCaei35esvUa8mXWn7NMvVa8nOWcQsAoGAUGADUzYH0T6CKtCfJuyyhfT+reKABbxUMnmrRTdxZFv2cWnKvDSPPtayektdYNk2JBlC0r8SuKeGz293kQoN+b1UcPPsDi4pmFBkA+DK50PBJSxU3g/59i86Vvjfh1fctBf360obOKliFVlzQ4P/fW/7M8nSLJpvo+kbtwXQtebrlCZap15J/apl6LbnZ8gnL1GvJH1t4bwNACSgwAKibPRYuLFFFiy3ac6HsPswHLRrU1uywR1p0raDigVZWqGCwzaKbuJssfNaKo9ckW/lxtaVqG5w+26IBAYoMKIOKpFXeFBizp0KD9n/RuVIF+6rNZtbM8zdbfK5k+IqFz0M9qT3hey3Hto/Kc6dFG5m/zKI9U/Td/1iLCoCvtvyzRZMmtEKT9yKKoALXkc5DAD5QYABQrjjR0lcAnVmLZ3YeFk5FhbdatMmwNpVWMUGDwbstFBHConOm9jU4waKb9CoVerSSQSsxuP5E3WgVFxuohkWtVp5vWWp5peU7lqqcK19kudjCngzo1d9YHmop43tWRYV3WH7ZcrxFxbK/ttxgqeKKIqAXp1nYrB+Nxg0eAPRGg3vZUl5y/2imOzOReqff2/kW/Q6LpFm9z7PoRvAPLeyDUB1qcaE2A2pVtc5SlVUNb7KokFX0ex3wSa09eE+HSQX0P7c8yKLv2aqsanij5VGWKt6vf9aiGfTZtSG5bx5nuduSN/3f1Xu86MKUXu8XWk60qDj2nxYKCmiaUy0UGNBovVywqO0IAOSrldB3HeisXijyovRmy9Ms6m2rv5uiULV9yJKtarjMEvKm0Grf8E4LrZIAFO3DlmxVw0ss37aEeq5cZNFscN/7MaA+tHqhyH0XtCnzMy1q3/h3lkMWAEBD9VJgYBAQgActH8XLL6d/AlWgdkTLOw8LoVZI2ltB+z2wWqFedK32Fos2TVT/cb3GIRaPHmFReydmeqFI37X4POfRJqk6tKrhbZYHW7SC8IOWEFc1aLNetXea2z7KF/sw1IvaEem7v6gVLyoo/JJF+ywc1hNABago5nN1DW2S0Gi0SEKpxpY8kPdg0yWxj+Klz4KobkSBPKk1UVGDUmqHtMFye/sIdaZ2blqlohZK2pw7tNdcs4e14gIoilZuUWDAVNqr4bctaqH0Kst+S0jF9xdbHmDJ+72lIouvf6c282WQrVhqUVTUahftp6TVkv9rYaIKqoQCA+ARg7so1eiSBzJzpukSL+3X9lm44EUVrEhTxKDUOZaq9OlHfjSo+lqLZjZqtUwo7ZPUKklFBm7EUBcqMHBvVV06V77OokLDcyzfsoRwrlSrJBUZ8u6rrxU9XA/Ug1a66FqyiO9TtdZU6y7aIQH3R4EBjcZFMIByjY37KjD4tDL9ExiUBnyLKC5o5cJuC4W35tLKrvdYVGhYbwmh0MAqBhRJ7RN9DqiygqEeNLP/WstDLKEUGnysYlBBxefnQa3wGGgrxoWWeZ2HXmnlwuctbOCMqvqaxWc7PAoMaLRZFxjGx8d9D9gBaJokvtldfKaPdka+z1eaecsgAvKw1uK72K9B5WsszFREJpRCg86l51uY8IIiaODYJw2ocm1QL6EUGrSK4TxLnpvj+96ThGvl4jzFkvcKl6neb9lqYeUCqkzXAT7vhx5m8f1ZBII16xu6vXv3UmBA7g4vXKILZjRV0tqVPsqbZmX5pOXBwKC0nF0zXn3ShfQfWZhthm4mFxrK2qNBBQZme6EIey2+Z2xTLKunyYWG2yxlFBp+y5J3gcHn5+FxFs7t/qk90nKLz3PPnZZXWO5pHwHV5XsFwy9Y8jxPA5XCRTBKNXrqzy1JH6KREl8FBv3f9XnzR4sk5EEbhvue3fcWCxs6YyZZoeHNlqKLUZqVy/UoiuBzU1s53aLrWmZt11dWaHiT5YieKJBmqec5cKXNrX2e7zXwTYHBPxVyfA9oas+FWy1lreAB8uJ7BcOpluMtXNeikXjjAyjREV8FBvG5iqGoTXlRbypUFVFgqEprpMdb+FyVR+3qtNrlbMuNliIHEp5g4ZoUvn3a4vt8SJuk+tMA1f+xnGP5gqXI71h9T+Y5aO9zFQMreopRxIxpFRjGOg+D9xgLLWownc9ZfBeH1SaJVQxopF6/9K9P/wSAAUV73YVn+my9plYIvgbI1NZGy5GBQahQ5dOHLHd0HgKzpnPnEy3vthQ1cKYCA4OyKILvvvNakcOs7WbQpuG/bnmnxWfLjcnynq3+FYuv87w2O/Xdugf+V4p81PIjC6sXUBffs/hcvfUblvmdh0Cz8IWPUt11miZdoJGS2OfqBfH9f1+b8zIghkH4num6w1KVG0K1i+KaJBxazfB8ywZLES2TVGzj9UcRNCjss3CmYhkFhubQaoYXWHSuLGLz27xXBahNks/iSN77RuD+dDPt85zzEUvR7cD69VgLqxcwE9/7MDzaMrfzEGiWni5QkiTRDScADG7cbU0f+aJZuD6x0TMGsdjiu0DlcxVP3nyv5kB/3mp5rsX37Fx9HoAiqMDg87yYbbjKBIRm+RvL8yy+28iMWPJ8b/lcwSBF7A/QZHm/H7rRe6SoFTqDYt8PzMZXLT6LZmqRdKaF9yIap9cCw570ITCw8TkLad3RWNFe96xTfZ9PtILBZ1H0fAublKNfRQyoV63AwIBcmLQB9DUWn4NQ9K1HUbQPg+9VObRJaqb3WnSu9Dlw5WMFw+0WX9cK2pj6BAvndz+KGFDXYGwRKxnzUMR+FKg+7cNwuPPQG9okoZFYjo7SjC9cdGf6EE2TTPhevZDRvjE+B1gvsnDThBD5nqWbN7Uc45okXC+zaBDKlyJmYQJSROH12RYGuZrpjy0++9UvsuR9rvx3i88B5GdaaFtTTVUqLshvWmhNg5n4bpEkv2NZ0HkINEevN/O+e5qjQQ7PX8RgUhPF7qAbHS+qwLA9/dOXyywMiiFEVWppqNULGmBGuPR+eoulSgMNQDfqme97HwbNKl5p4Tq3efT+UrukqvSslw9bfA62/b5lXuchKkbvZ5/nyjxp9cLxFu7LMBO9r1U883neU5skXQdQXEWjcOGL0vzklAdV5YIF+druLj6zqMFP3ysYzrCw2TMwmD+0cD0SPrVK4nsbdaA2Sb7fy39gYRVDM11rqVKBwfdGz6dZ1DaMzwN8eqGFljSYrSLaJF1iWdh5CDRDTzf0N954IysYkJvDC5domS8a5/Cm9EER9ll8b/b8GgsFBqA/2tyX9kjVcLOlSitjysBKnGq4zuJ7NY7awpxl4fqgeb5r0QzZqrQp1M+rVT0+PxOvsDD4C1/03av9PmiPhNn6qMX3pvxqk/QQC3syoTG4oUdpRk/9OTbIbZrYXeMuPFOD/kW6wuLzJk/tXdiLAeiPVi/wXVAdKtiyimF6bFZdDVrBcIfF9wDwKy20R2gm32248va3Fp+rLtS+RnuT8HmADy+wnGTh+xezpRUMP7b4vg7QHmbHdh4C9ddPgUEtR4CBHV50YvoIzVHo6oXMDovvi4fNFgZJERIVvkK/0dLqBdojoW7UOo9BjvBpFYPvAWCtYlhj4RyH0GkfBt9tnd5gOdnC+bE6tJ9M6K2ttHrhRRZWyKBXRa1i+FULq2vQCD1f8CZJwvJ45OLQCAWGRkmSK0pYvSA6Z6l3uM8igy5ur7Zw04RQ6D2pAfyQvcpCYQ5F03eCz++Dcy0MKIeviDZJ8lcWBhYQOrV0eq/FZ5FBrXHfblnQPkIV6DXTtWTI9zf/x0LhCv34mOVQ56FXr7XQGhyN0E+BYU/6EOjb4YVLbk0fogliu3EZPVLG6oXMNemfPp1vWW/hAheh0EBnqO9H/WyXWRiIrZblFh/vKfUA973SLKM2Tz7/ridYeF+HTwWGmyy+33eaAfwmC61hmuV0i4/zwPcsvlbe/IPF9yoG9clXW1E+D9XxWEuor5d+Nm2oz+oF9EMrGL5t8T3Z4GGWv7BQZEDt9XPhQ4EBAzsyb+F4+hCNkGxwF59Z5uonbVBfRHu3d1tWdR4CR6X3o++BrVALDGoh888WNj2rFr1uvtr/aAPpogoMvp1nYWVONfy9pYjr0RdbLraE3moE+VBxoYrnys9YdG3ie7BN+z38koVrgMH9u8X3OexxlhDPXfqcqSh2XPsI6M8HLKOdh14936LrAFZwodZ6LjC0Wq0yWpygZu5cvoICQ1PEyfXuwlO3pkdlutxSxADWpyyP7DwESvUcS2gzqbXU/l8sx7eP6kUFHRUZ9fkPdeXIIHwWrHyvKpjM9+arak+21sLgWfiutRTRJkn+znKOpYqrW/Se1obVZ1vy+Pkfb3mn5VGWKv4+ZqJ/n6/P/1csPt+zmmVbRMuQj1h+2cJ5MnwXWuZ1HgZD5ySdv5dZ6ni9heIUVWCQLZaQVwQdjVZfvNyi8zYr0DCtni/qbrjhBlYwYGD3nHgGGzA0gVojuSNqGxSColYx6KK37kUGDTRus2jzSi7s+/dpi89BVb0XQyoyqLjwSYtW+dT1ffNsy40WnW+eaqnT4Jn2zPA1GFTkCoYiVtNpMPaEzkMETO87rWIoqsjwcUuVBtWzwsJ3LOoh/QBLXudubYD9BYuuy37bUqeB5j+x+BqQ9X2uLGoVgwar/tVS5yKDZv5r8PJJFp8rAD5r8TlxT6/V71lCKTLovKQWd4+xUKDCoNR27n2WoooMWsGtInRVBumzwsI3LNqoX0W9Ok4MQE76enPEcayZZkDfxk56CMvDGiHZUNLGztMpahVDVmS4wFKXgVQNDqtvrnpWa/B0nYXiwmA0UODbmy0hrBZQu4i6FxcmUx9+3UTo86KBubMsVf53v8RypsXXv6HIFQyiQTSfqxjUuuGvLczyCp9mwRa1qlY36p+3qFVCyO2SphYWVCzz9dnXIOw/Wv7H8jrLgyxVPleqHdbPWHz9G3yvYJCiVjFkRYbfsdTlXKnPjopn/2VRoaaIf5v2MPL5fSavtzzQUvZnU9+tH7ZQXECeilzFoPOe7od+3xLyeNjUwsIpFgoLmFFfb5IoimiThIHcc6LGKVBrsbsmkNZIk2lgfIelqCKDWsFoOWSVb5a1WuFqy+0WvZ7a5BX50IpA3+9FvQ/fZSnzRkzvoS9Z6to66Gh0M6yZ/xqo07nnuZaqXaCvsGiw3Nd76KBFAzG+B0gmK2LFxLMsWsHHIEjYtJKs6Pef2iXp+zTPFQF5yFoX7bf8mcVnYWEqnSv/1PIty4csz7NUbc+KR1j+0uJrpvedFr1ffRcYVIDVa1BE4U2DWOqjf4Wlyhv1qlB2peU2i4qWP2sp6rv+qxbfr5VeJ+2dcUz7qBxqLaPVGvqT71Xk6XMWXQccbh8VQ+MDug7Qd19I9wUq3umz/r8WfZ9RWEBP+nqzJElCmyT07fDCJbemD1Fb0V43dnhDehCajZYiN5z+Q8tuS5XaCa20bLZkqxU0SNa0geEi6GK2iGLX+RbtDVD0DZlWvWgFhVbz1HHPhV5p818Ve1Sse4+lCi2UtBJDM618zsD03Sqsm6I+expw0so5NvcN259bjnQeFkaznL9oebqlzMEyrS7TCqVvW/S5CGFg/7csKnT82KIWVk+zhD6gqOLMv1l8zkjVwH9R7bz+2KLB8qLOzS+y3GB5sqUq58uHWzQAp6KYPjuXWOZailbERs/yG5arLEUXGTRRRqtqPmE51cL9CHx4k+XuzsPCaIWTimaakFJmgfU0ywstX7Pomlzn44UWoGf93thqwAnoyz0nLi+yOoyiad+Few6tdhefWeQgfi+0AkszpYoc0NIMYA2ybreEunxHs8yzooIKIioQsVrBL7WF0eztImgvBq2oKaovvP4+zdpXQY+ZL/elm2Xt1aAWSlmx4WJLSEUYFYe0akHnLd/vGc2ULWrQLON7o+fJNCtbv8cHW3wNjOg75tUWvY+Y2dk73VDrc1j0+1AzF9UeaKelyLZJmmmvlVXaL0atid5i8dnWp1+aNa2Blw9adK5UsUEFkCJXVsxE53MNMqsQe5LF58+l1jBFtfNS2523WYq8Z/sFy0ctWu33UEuI1w5aqfBXFhUVNOFSLUTU1qvMn1Vts+6wFHFf8wzLP1mK2lxZG0x/3aKCV5VXuCB8WsWg1UdFtUrKqGh2jUXXiRrYL6pt0sMs/9eito26X3u75ectXENiIH19GY6Pj7OCAX07uOznj00fom5UXJhIQi4uZDSjtIzzmGaS62ZeM53K3p9BqxQus2izZt2YqHBMUaF4RbXsEr3/NKDkq02PBqU1yKn3uJb9smphZlmxQStMNFtXRSf1PC9rxZNew6yl00stvm80VGBTgaHI9jSi33ORG0trdvN/WzSIfbZl0NdWK0v0WdP5WwOv+j7T91qIg8RVoVUM+gwWOfkgo/eHZgbr79eg7q9a8jpH6xyTvV9UZM7eLzrPqG1diIO43WTFhqyFkz7DauOk31UZAyL6vap4qJUfL7P47rOv9kja2LaoAoNo1riuGYouvP2mRX2/Vfgre38GrVL4A4uKXHrf6WfS6112UWGqj1iKWoWllQz/YdGMZx/twPTZ0sDnNy0a8D3FwvcaiqBVDGoNVMZ1wKMtak30Q4vaKGo1V14rovT9qdZif2JRgVCr01SY1Dn+lyx12QMHAej7ZH3OOefsi6JIy2qBnnztOZvZg6GOsuLCs06tSgFSA+nqC7+kfVQODa5pgFmD+4pWD/ig1Qn60KmooGiwIY+Ldd3Ya+ZlGRdimumx2uLjpkODFpssRQx6auNsDS4XfaOqwVUNMGUFpn7pOkAbfuu1WGsJ9SZQr6kGYH0OlOhzpiX8ec5C1kx7nRt0XtXqKz3O+/Om11A/u15HvYZFvhc1I1kFryIHzTIaqCxrjwS9rio0a7WYXtfpXlMVfLQ6Qd9T+lPfW3q9pvucaZBc5668f59q/ZLnoPdkvn7mfmggUW3dQrnZVkscffZ1jtb7ZabvJL039B7J3jf6vtfjvM7LGlj8f5ZBz6NZO6E8ZyRrsCT7TOlaSgPBeZ/v9fvV9ZPOk0qRrXy0T4FWb4y1j4qjVTYaTC5zg18VV7R6Q9eb+g7UJAYf12danXCWJfvs6LXO4zVWe8SPWXye437PopZ8Rbcv+p5Fg5RakfkjS7/XJ3qfqTWaJldoMkwZraZmQ6tX9H11T/uoeFoJrwKcj+8oDa7r3/aT9lFzXWrR7+K49lH5dP7V95omIKgd2kyrytTuSNcBum5UgVTnsjxX/amto87Hh9pHfqigq/OBjwKmujXofa7vlarSyledJ338frQ3iH4/fXdY6PuNds4552yNokgDI0BPbniZvhtRK9UrLmR0DtMGxmXdNE2lQV8NNukmWRfp2Z+zoYsJRbJBBf2pmUC+UGDIhy4ay5ztnw1i672nz/DRXs9ssFMD0tn7rAqqWmDoRq0rstdKA49aMabZvLP5HE4dsC77NdRGmGo1UcY5RBfnuomp08wtCgyD+7jliZaQZieHIuQCQzfZuVLnx8nnytl8t+vaqdu5sqzrRbUP0qz+oq5LJtN+IVphU1TrjploUFuvq4pIOm/0sgeBBrJ1razPtwbfdO2llmF6nX29tkUUGES/E/37ynqParNpvSZaAanP2dHOE9nvXkUdraTy+fvPEwWGZtBqv6dYQi10lYkCQ/lqW2DYEEWRXiBg1sZGTr75K5e8QzOAUBfVLS5kdB5Tq6AqXNiGhgJDPrSCgY20/apTgaEuyly9kFHbIrW6qMtnjwLD4HSN+gXLAyyck++ragWGuihr9cJkb7BoTyUG3HpXVIHhbyzay4XXyB8KDM2gVQCaeKXV/1wH3BcFhvIFXWDo+0YhiiJ96ICe3HXqQxl4qZPqFxdEN0xF9sEHplKrojJmJYZIN8fav4HfR73pwlVFH58Fn9koY2NfhE0rCXUeKqqfOXA0GgRREa7IzZa7UU98tcEJpRCI+3ujpegNakP1EovaIPocBEV9aZWUWib2PcgKNFXfBYYbbrihygOKKMnBBz96WfoQlRftdWOHl1e8uJC52KLlvEAZtKxdA51NL3JpRruKC5qhRcGv3l5nUR/tsl9nvecoZmEqbab7FguDqSjb6y3aSDqE89SLLDdYKMqGSS3B3mspuxhVtvdbdC2pPcaa/rtA/z5qeZulrNUqQCUNutRZ/cGBWbvzNLUQReXF7hp3z6HV7uIz1c+2DvTv0MZiFE5RlqavYlDfXhX6NHDRy94jqB5tXHuFJYRBKs1WV5GBATNM9XKL9mjivYGyaG+Bt1pCGSTVbF61yVILMT4XYWr6KobPWV5gudvyWQsr0TCIV1m0EoaVQcAsDVRgiOOYNkmYtcMLl9w6Me+Y9AiVpJZIcXKxu3DZ+hoVFzIUGVAmrWJoapFBm0w/1ZINWOiz+CELRYb60QCV+reGdNOvVk23dx4C96Eiw40WVrmgaGqN9AxLaANbFBnCplUMf2Fp4oDo1ywXWu5qH3Xeq/9qYRUDBvFqy+ctrGgEZmHQFQwUGDBrB89cwYm5yuLkertGW+kuPFXLTuuKIgPKpAKD3ntNGlhXceFXLD9uH91L+6IwqFcvutn/NcuP2kfh0CoG2uGgG71nf93yRQvnIxRFxQUN4v+vJcTrAYoMYdMqBp2zmvTaqLigzY/VO3/yZ4YCAwal890FFq2+5ToRmMFABYYbb7xRBQZ96IAZsf9CRWnVQhJvdBeeutpdeKZmWdedigyrLCqkMIMaRXuu5Y7Ow9rT9cPTLN1mj9MmqV70Wqu4oEGPEF9X7Qmx28J7DlPpvasiwyctFBngW1Zc0IzZkN9v+lw8xnKVhTY04XmxJdQCVd70mXmW5RbL1H8vbZKQB53vVGT4iIWCFXAUg65gcEmSsIoBs8L+CxWkvRa0kfMzTtuSPtMk6ge/0cKAE4qkzcZVZKj7QJZWLpxt+Y6l22dMs8r1u+DzV32hFxcyl1imrqQBJCsyvMvCjG34ooHSJ1tCLy5Mpo2fN1jG2kcIxVcsL7T8pH1UX1+1PM6ia8punxm1jNJ/Y+Y5BqXrgHWWd1jYkwGYxsAFBkOBATP6yZJl32f/hQpRO6T48Jk13WuhF9qIVO1bmrByA+FQe6A6FxmytkjTFRcy7MNQfbq5f6Il9OKCqKD1PAuzHTGdSy0aTOU9gryptYuKC/9pqdp3/99aVET+L0vdJ0dUiWZba8PjuhYZVFx4Svrn0d53tElCni6z6Dog2+sDwCQDFxiOHDmyPX0ITOvgWY8cTh8iZFqx0C4sNKYd0myoiKqWSTrXMdiJolxjqWOR4dOWbnsudMM+DNV2nUWrVKpQXMioqKUiA7MdMZ23WVQ0+5aFawLkQQPBv2ip0sqFqf7d8suWf7Rw/gzHP1i0Oq9uRYbPWbrtudANBQbk7UqLCsKaMMWqRmCSgQsMe/fu3ZckiVoZANO642G/clL6EKFJYn1+L//pigUKC91oFYd6L7KaAUWqW5HhrZbZFhdEM8p1fmIQr1q0jPxlFp0z9+uJivl7iz53zFLHdFQofZTlry0MpqJfaon0x5anWn5oqfp3nc79F1rWWFjNEI73WepUZPg7i1rWzaa4IFrhoHs33o/Ik4pcT7C8wXKPngCQT4skF0URqxgwrfE5C++458Qz0yMEQUWFJLnCHUlWuWecttz97rJNFBZmRasZ9GbeZGly6yjN8tVA8U4Lg79+qcjwSMv/tI+qSYMOT7doWXGvM320iqEq7zGdQ5teENGqhXMsb7ZUeVaXigx6z1axQIJi6Lz2csuvWrRKp+6DV+rpfpMlj3+nWqc1/VyZrVp4k6Vus6u1muHnLK+0/MjS1NdZM+c1y/ljlrILkSoyPNryNUtVz1UqyD3b8oeWXoslrGKAD7oO0HlOLeI+Y6n7hIOvW3QdwMQKTCuXAkMcx+zDgGndvexn704foiztVQrxDvtz40+LCs84dYN71ql70v8X6M3llqYVGnQR9RbLWZa1FooLxdFMfrWa2Wap2u9cxaifsfyzpZ+fXTOFq/Jv1oDZgyzrLU37fOjGSm1jtAHety11+LfrvVuV/SNQnmw1w0WWurz3J1MxQHtPqND9TUse/z6dKx9qeY7lk5YmtZjQ4PuTLLqO0u+zzoWpv7A82NKkQoMGwd9u0fv7PMvHLaEMxqlI+FjL+y1VW6H3UcvDLO+19FMo+KyFVYnwJVvN8CyLinh1+067xaLCnq51vmShLRSmlUuB4cYbb9QKBg0+Afezf+WTT0sfwqtob2dzZktnAPxyF8dr3D2Hl3RWKZy2zv7cQlEhNyosZIUGbfZU1xUgGmTT8v0lFs1A18wFFE/vN70Oaj1Qhdcg29xXA86zbYnUjVYwVK2I9x6LVvho75bNljssdaWZ/prBvdqigcK6DZapuKcbqldbbtcTwDSutWgwVYPmdSg0aDBSbVVUIL7K4mOQVL8zfU+oeKF2U/quqOsgtHrhq62LzpX/ZmnKAI3GB15v0WfjJRbtXVLHoopmyP+uZanl9y2hFo/0ejzTomsUzUYO/bVQGyQValSQ0yBnv+cHvT5akdiEIhfK8wHLL1j0GatDoUHniD+w/KxFbW5pBQUAQIF043i1RQOKuoitajSoe7FFRYVQfcqiG6NuP/+gea0llwK8R5otq7ZJ3X7+MqMCp/rX5/n7e5dFF+nd/r7ZRq/pkKUs51vebdEgdbefr0rRoPtLLVrNFFma4gzLOy0aaO32eykzKsLp5k+DwT5ek2xAtNvfPWheZxm21I1mM+r9okFzX99VeUeDjyoaatC/rPOlBhN1zq/S7226aANQtdHSyrbQrymK9DiLilZa1VDl11htrlSEe4Clqt+F2jPjGxZf5/d+oxUHL7DMs+RFG/SPWbr9fbPNX1oWWsqiSb1awdHtZxs0f2U5xoL8PMaiFU3aY6cq5zqtwtIqJ22iPtdShg9aBv2sThe1cF1kqbJ/tPj6/Whi3IgFABAYzbZRsUGzzbudwEOKVrVcYdHs+KrcJDW9wJDR+0ytk8q8cFW7C71/NAvVx/tHM4IHHdQtu8Aw2QqLVgPpPVyVYqTawDSxqNDNYsurLN+xlP2502oZrWzyfb6iwNA/3aipb7gKjCEOmmdFhedZTrCE9Pl+hEWz3rU6SsXZKgzQqF2cNrmnqDA7T7Go2KBVP6ENck+NVvVokFr91ut2ztJgomZf+xq8nk208vVvLb9k8fH7VTHlLku3v3u2ocCAfmhA+xmWKy0hFhuyooLaIZ5sKfu7iwLD0QVdYGj6TSIAFGGl5VyLWqbosQYYy6KBQhU9VFRQNONcXyioNg16qtiglkRaSaNjXzQgpVnsutHRHkx6H/Ee6p/OBzovTI7P128muslXyzedG/T6KroZwv3ptVMBTMVZvW4+r6s1Gzo7Z+s1yYrXqBYNmuscnUWf9SLvx/T51vk7ex/ttlTl863fXbdzZVn3s/pdqtA3+VypQXL05+GWqdfKZU0M0Ax6rRLVZyU77zZhY1MNLKnoo2tJtVE63uLr86VBTX2vXWfRvlX0dkdTaD8Rneuy6wC1Vivye0ztxvTZm3wdwB4lyEVZF2QA0HS6sND+DcsnRdRWod9zs4oH2YCTLhr0WAOFk4Nm0Ptp8sC12l3puJeB6+z9pBtszbTPbrT1PmJg0z+dI7LXTecE/Zm1Lev1tZwsKxDpNdTg2OTzg17fOu8Z4ZvO3xoc0+cv+9xpUHS253Td8On3P/V10fmcIk89aUAvO1fr/aLPvWYPqiWX0uv1QFYg7Pb5zs7ldTt/P96igVD9HvW702dOv0v97vS43yKEBkD1O9Nnb/LvUo+zcyXfhX6pnZJWzk2+VtZrrM2K+53lruJBVizQptt6nH1usnC+7Tjdkp2fFH3OJn++ZkMb4GrwUitAtBIpK5arSM7vGejMqFeBVZ8xrSTUeU/tibSPqa4Dei20qoCg85gKdtrHZPK5TZ+/bDUlAAAAAAAAAAAAAAAAAAAAAAAAAAAAAAAAAAAAAAAAAAAAAAAAAAAAAAAAAAAAAAAAAAAAAAAAAAAAAAAAAAAAAAAAAAAAAAAAAAAAAAAAAAAAAAAAAAAAAAAAAAAAAAAAAAAAAAAAAAAAAAAAAAQrSv/056rNq+1/FdTZ/PlL3amn7k+PUH27On+MH3BrLtjTeQwAAAAAAAAA9/JfYHj75uXRsLspPUJNJUuOP+hOOH4kPUTtJAftdLHH/txnf1pUgBjf49ZccKDz3wEAAAAAAAA0jf8Cg1y1eZf9ReemR6ih5KyznGu10iM0R3yzvfB77M9d7bDaAQAAAAAAAGiMogoMq+0v2pkeoWaSBQtudcuWnZQeotHaKx06xQYXb3drLtBqBwAAAAAAAAA1VEyBQVjFUFvJGWc4N2dOegRMFu91rrXduXEVG1jdAAAAAAAAANRIcQWGKzevjyJ3dXqEmmD1AmZPxQa3lZUNAAAAAAAAQD0UV2CQv9u8L2q5M9Ij1ACrF9CnHfbu2erWnL89PQYAAAAAAABQMcXuyhu5Tekj1EAyZ+6tFBfQp7V2Qtjmdu7YZ9ngdm5bnD4PAAAAAAAAoCKKXcEgrGKojWTZMucWLEiPgEG0N4fe4tz4FrfmggPpkwAAAAAAAAACVuwKBmEVQy0kc+bsp7iA/EQj9j+vcW5on9t53SZWNAAAAAAAAADhK34Fg7CKofLYewF+saIBAAAAAAAACF3xKxg6NqR/ooKSBQvYewGeZSsaWnvczh3rO88BAAAAAAAACEk5Kxjkqs277C8/Nz1ChbB6ASW43rnxDW7NBXvSYwAAAAAAAAAlK2sFg7AXQwWxegElOde54d1u54e2sD8DAAAAAAAAEIbyVjAIqxgqJXHRqDvrzAWuVWZdCohvdq613q05b1f6BAAAAAAAAIASlDtSPO7orV4lS5YcpriA8rW0QfzO9moGAAAAAAAAAKUpdwWDXLl5SxS5y9IjBCppRQfdWT+jjXeBgMR7LevZmwEAAAAAAAAoXvnT0X/iNiXOHUyPEKoTT2TjBQSotcK5oV1u5w5WQwEAAAAAAAAFK7/AsHHjAZew4XPIkjlzb3XHHrcwPQQCE43Yqexqt/NDW9MnAAAAAAAAABSg/BZJmSs374kityI9QkCS005zbt689AgIWbtl0mq35oID6RMAAAAAAAAAPAlnx97IbUgfISDJokX7KS6gOtotk/a5ndtWpk8AAAAAAAAA8CScAsMlG3clibsiPUIA2hs7L126ND0EKkItk7Qvw3Wr0ycAAAAAAAAAeBBOgUHY8Dks2ti5FdZbBJgdFRncTjZ/BgAAAAAAAPwJa/RYGz7HjgHBACTz5u1nY2dUnzZ/psgAAAAAAAAA+BDe9PQXbNyeOLcjPUIJEheNumXLaI2EmqDIAAAAAAAAAPgQZv+bcbeBVkklWnpCRGsk1AtFBgAAAAAAACBvYY4iv2jjPpe4TekRCpTMmbPfLV48Pz0EaiTakj4AAAAAAAAAkINwp6lfunELrZKK1W6NdMoptEZCTSUULQEAAAAAAIAchd0H5263nlZJBTr5xMTNmZMeALVyvVuzlhUMAAAAAAAAQI7CLjBs3HjAjbu3p0fwKJk3b7879riF6SFQI8lB58bXpQcAAAAAAAAAchL+Tr4v2viKJHHXpEfwIGlFB92yZbRGQl2td2suOJA+BgAAAAAAAJCT8AsM8hO3IYndzekR8vbAU0ZcqxpvBaA3yRVuzfnb0wMAAAAAAAAAOarGqLJaJUWOFiceJEuOP+gWLEiPgDqJ9zo3wcbOAAAAAAAAgCfVmbZ+6cY9SeI2pkfIQTJnzn53wvEj6SFQI9p3IaY1EgAAAAAAAOBRtfriXLpxS+LcjvQIA0gSN+ZOO419F1BTyQa35oI96QEAAAAAAAAAD6rXeP9ut579GHJw6rL57LuAekqucWvWbk0PAAAAAAAAAHhSvRHmdD+GxLmD6TPoEfsuoL7a+y5sSA8AAAAAAAAAeFTNKeyXbtzjEscgYh+SefPYdwE11d53YR37LgAAAAAAAADFqG6PnEs3bk0Sd0V6hFlIhof2u2XL2HcBNRWpuLAvPQAAAAAAAADgWbWb8F+6cUPi3PXpEY4icdGoe+ApS9l3AfUUb3RrztuVHgAAAAAAAAAoQPVHm+9265LE7U2PMJ1lpyxw8+alB0CdtDd13pIeAAAAAAAAAChIlP5ZbVduXmn/kl32j2FvgS6SE5eOukWL2dUZNRTvdWvWrkwPAAAAAAAAABSoHv1yOps+r06PMEmycOHtFBdQT/FeC597AAAAAAAAoCT1ach/6cY9SeIuTo9g2sWFU045Pj0EaiQ56Fy83q254ED6BAAAAAAAAICC1WvH30s3bk0StzE9arRkePh2d/LJFBdQQyouTKx2ay7Ykz4BAAAAAAAAoAT12INhqis3b40id1F61Djt4sLppx/vWvWqHwEdyQVuzfnb0wMAAAAAAAAAJannCPSlG9cnibsmPWqUxEWjbtkyiguoqfhiigsAAAAAAABAGOq5giFz1eZd9g88Nz2qvXZx4bRTF7h589JngDpRcWHt1vQAAAAAAAAAQMnqPc39brcuSdze9KjWKC6g3pIrKC4AAAAAAAAAYan3CgbZvHmxO8btiiK3In2mdiguoN6Sa9ya89enBwAAAAAAAAACUf8Cg9S4yEBxAfVGcQEAAAAAAAAIVTMKDFLDIgPFBdQbxQUAAAAAAAAgZM0pMEiNigwUF1BvFBcAAAAAAACA0DWrwCA1KDJQXEC9UVwAAAAAAAAAqqB5BQapcJGB4gLqjeICAAAAAAAAUBWt9M9m2bjxgPuJW50kbm/6TCVQXEC9xRspLgAAAAAAAADV0cwVDJNduXlrFLmL0qNgJYkbc6efNp/iAuopvtitWbs1PQAAAAAAAABQARQYJPAiQzI8fLs7/fTjXauZC05QdxQXAAAAAAAAgCoaSv9stus+vt2d/+Qocm51+kwwKC6gvpKDzk082q1Z97H0CQAAAAAAAAAVwgqGya7cvD6K3NXpUemShQtvdyefTHEBNdQuLqx2ay7Ykz4BAAAAAAAAoGIoMEx11WatYthuv5iRzhPlSBYt2u9OPHFpegjUSLzXouLCgfQJAAAAAAAAABXE1PipLtm4yyVudRK7m9NnCpecuHSU4gJqagfFBQAAAAAAAKAeWMEwnc2bF7tj3K4ocivSZ7xLXDTqTjt1gZs3L30GqJPkCrfm/A3pAQAAAAAAAICKo8Awkys3b40id1F65E17M+dly453c+akzwB1of0Wkg1uzdqt6RMAAAAAAAAAaoACw2x43vyZzZxRX/HNlnVs5gwAAAAAAADUDwWG2bpy80qXuO1Ry52RPpOLZOnSMbd48fz0EKiT650bV3GB/RYAAAAAAACAGqLA0Avty3Cs226/tHPTZ/qWJG7MnX7afPZbQE1d7tactyl9DAAAAAAAAKCGKDD046rNm+wX95r0qGfJnDn73WmnLaUlEupH+y1E69ya83alTwAAAAAAAACoKQoM/bpq82oXu629tkxKlhx/0J1w/Eh6CNQJLZEAAAAAAACABqHAMIhOy6St9ktcmz4zraQVHXTLTh2hJRLqKd7o1qzdkh4AAAAAAAAAaAAKDHm4cvN6+01usV9m15UJycKFt7uTTz6elkion3ivZb1bc8Ge9AkAAAAAAAAADUGBIS9v37zcDbdXM/x0A+j2Rs4PPCl2xx63MH0KqJHkCucmNtESCQAAAAAAAGgmCgx5u3LzBpe417oF8w65ZcvYyBk1FN/sXGs9GzkDAAAAAAAAzUaBwYcd//AIt+i4t9ijn65mAOqBVQsAAAAAAAAAOigw+LRzxwb7FW+ydN2bAagO7bXQ2sCqBQAAAAAAAAAZCgy+7dy23LnhLfZobecJoHIud2vO25Q+BgAAAAAAAIA2CgxF2Xndaufirc61zkifAUJ3vXPj692aC/alxwAAAAAAAADwUxQYirbzuk3OJWqdRNskBEqbOEcb3Jrzt6dPAAAAAAAAAMD9UGAoQ7tt0pD2ZrgofQYIQHLQ3pNbnBvfwibOAAAAAAAAAGZCgaFM7bZJTr3tz20fA6VJrnFuYhPtkAAAAAAAAADMFgWGEOzcsd7+dxP7M6AE2mdhg1tzwZ70GAAAAAAAAABmhQJDSCg0oDjXWza5Neft6hwCAAAAAAAAQG8oMIRm57bFzg1vYCNoeEJhAQAAAAAAAEAuKDCEikID8kVhAQAAAAAAAECuKDCErl1oaK2zR7ROQj8oLAAAAAAAAADwggJDlbBHA2Zvh2ULhQUAAAAAAAAAvlBgqKKd1622/91kObd9DLQlB+1/tjs3scmtuWBf5zkAAAAAAAAA8IMCQ5Xt3LbcuSEVGtaxT0OTxTfb/2yxP7e6NRcc6DwHAAAAAAAAAH5RYKiDe/dp2GB/rug8iQbY4Vyy1a05f3t6DAAAAAAAAACFocBQNzu3rXRuaIM9YlVDLf10tcJ22iABAAAAAAAAKBMFhjprbwrdXtmwtvMEqinbWyHayqbNAAAAAAAAAEJBgaEJOi2U1tsjFRxooVQZyTX2P9tpgQQAAAAAAAAgRBQYmqa9MXR7VQPFhuBkKxWSXWkLJDZsBgAAAAAAABAsCgxN9tPNoZVktb0d2LOhcNpTIVLbI1YqAAAAAAAAAKgUCgy4184PaWXD6k6xgdUNHl3fXqHg4l1uzQV70ucAAAAAAAAAoFIoMKC7TislrWrICg5npP8Fvbvefod77He5nU2aAQAAAAAAANQFBQbMTrvgMLTSHqnooD/PbT+PKbSPQqRVCSok7KKgAAAAAAAAAKCuKDCgfzuvW+1cvLJTcIiW2zMNKzpMLiZohcLEHrfmgn2d/wYAAAAAAAAA9UaBAfnauW2lc0PLO0UHpyy2VLzwkBUS2m2ODtgTu5wbVzFBjwEAAAAAAACgkSgwoBg7ty12bnilc4n9qeJD9qck9mc00nlchnivcy0VCxStSJBOayNaHAEAAAAAAABAVxQYEJb2CohhrXrIrE7/HFB8wLlWVjww4/toZwQAAAAAAAAAAAAAAAAAAAAAAAAAAAAAAAAAAAAAAAAAAAAAAAAAAAAAAAAAAAAAAAAAAAAAAAAAAAAAAAAAAAAAAAAAAAAAAAAAAAAAAAAAAAAAAAAAAAAAAAAAAAAAAAAAAAAAAAAAAAAAQM6c+/+t3mlzGpSeDQAAAABJRU5ErkJggg==;" vertex="1" parent="9pdm4Na_A3fy9SokRHZq-4">
          <mxGeometry x="430" y="420" width="170" height="40" as="geometry" />
        </mxCell>
        <mxCell id="9pdm4Na_A3fy9SokRHZq-29" value="" style="shape=image;aspect=fixed;image=data:image/png,iVBORw0KGgoAAAANSUhEUgAAAu4AAAFXCAYAAAD9MMvqAAAABmJLR0QA/wD/AP+gvaeTAAAACXBIWXMAAC4jAAAuIwF4pT92AAA8KklEQVR42u3dd5wkV3nv/091mpmetFGrsNKMNJJQFkJCWUKBIBC2sY2x+YGNA/YF+xobRA4OYEy0MdcGY5G5JmNAIIPgAiYKkRHBEgYJRaRVXGlzmK7fH0+NpnfR7nbNTE/VdH/efrV3tXTNnK6u7vrWqXOeA5IkSZIkSZIkSZIkSZIkSZIkSZIkSZIkSZIkSZIkSZIkSZIkSZIkSZIkSZIkSZIkSZIkSZIkSZIkSZIkSZIkSZIkSZIkSZIkSZIkSZIkSZIkSZIkSZIkSZIkSZIkSZIkSZIkSZIkSZIkSZIkSZIkSZIkSZIkSZIkSZIkSZIkSZIkSZIkSZIkSZIkSZIkSZIkSZIkSZIkSZIkSZIkSZIkSZIkSZIkSZIkSZIkSZIkSZIkSZIkSZIkSZIkSZIkSZIkSZIkSZIkSZIkSZIkSZIkSZIkSZIkSZIkSZIkSZIkSZIkSZIkSZIkSZIkSZIkSZIkSZIkSZIkSZIkSZIkSZIkSZIkSZIkSZIkSZIkSZIkSZIkSZIkSZIkSZIkSZIkSZIkSZIkSZIkSZIkSZIkSZIkSZIkSZIkSZIkSZIkSZIkSdqrpOgGSL1i3WNet8t/r/nM84pukiRJ6iG1ohtQBlngOgH4FbyY0dylwCeAHxbdEEmS1HsM7rMeBrwCg7vm7tPA24tuhCRJ6k2VohtQImnRDdCS9l3gOcDt4DAZSZK08Azu0vzdRIT2a8HQLkmSusPgLs3P/cCLgS+BoV2SJHWPwV2au+3Aa4EPgqFdkiR1l8FdmpsUeDfwRmCnoV2SJHWbwV2am88CfwVsNLRLkqTFYHCX8vsB8FyyCjKSJEmLweAu5XMrcAnwI3BcuyRJWjwGd6lzG4CXAp8DQ7skSVpcBnepMzuAfwTeC4Z2SZK0+AzuUmfeC/wDsMPQLkmSimBwl/bt88DLgA2GdkmSVBSDu7R3/01MRr2l6IZIkqT+ZnCX9ux2ouzj1eC4dkmSVCyDu/TgNgF/DVwBhnZJklQ8g7v0y3YCbwTeBaSGdkmSVAYGd+mXfQh4LbDd0C5JksrC4C7t6svAi4H7DO2SJKlMDO7SrJ8AzwFuLLohkiRJuzO4S+FO4HnAd8DJqJIkqXwM7hJsBl4O/CcY2iVJUjkZ3NXvWsCbgLcCLUO7JEkqK4O7+t1HgFcB2wztkiSpzAzu6mdXAi8C7i26IZIkSfticFe/+hlwCXA9OK5dkiSVn8Fd/ehu4AXAVWBolyRJS4PBXf1mK/BK4ONgaJckSUuHwV39pAVcCrwFK8hIkqQlplZ0A6RFdBnwCmCLob1zUxOTM39dBox1uFkKrAO2X3fjDUW/hL6TvWdVYA2dfc8nwAbgHgDfM0kqJ4O7+sU3gOcDdxXdkCXsGcAzgel9PC8BNgK/C3y/6Eb3sZXA/wWmiLtNe1MD3ktUWZIklZTBXf3gBuC5RCUZx7XP3QrgkA6fuxEYKLrBfa4GrAUmOnz+6qIbLEnaO4O7et29wAuBr4KhXd2VDVEZAI4BGh1skhB3ga4DUoeoSJL2xuCuXraNWBX1I2Bo16JZQww7WUtnQ1Q+DDydfQ9BkiT1OYO7elUKvAN4EzBtaNciqgCj2aMTQ0U3WJK0NFgOUr3qP4G/BTYb2iVJUi8wuKsXfRd4HrDO0C5JknqFwV295ibgOcC1RTdEkiRpIRnc1UvuA14KfAmcjCpJknqLwV29YgfwOuD9YGiXJEm9x+CuXvEu4I3ATkO7JEnqRQZ39YLPAH9NrNYpSZLUkwzuWup+ADwXuA0cIiNJknqXwV1L2a3AJcCPwNAuSZJ6m8FdS9UG4GXA58DQLkmSep/BXUvRTuANwL+DoV1LXlJ0AyRJS0Ot6AZIc/Be4B+AHYZ2ldB64vgcB9J9PLcC/LCD50mSZHDXkvN54CXA/YZ2lc11N94AEdz/qei2SJJ6j0NltJT8mJiMemvRDZEkSVpsBnctFbcDzwOuBse1S5Kk/mNw11KwiVhg6QowtEuSpP5kcFfZTQNvBN4FpIZ2SZLUrwzuKrsPAq8DthvaJUlSPzO4q8y+DLwYWG9olyRJ/c7grrL6CfAc4MaiGyJJklQGBneV0Z1EBZnvgJNRJUmSwOCu8tkCvBz4TzC0S5IkzTC4q0ymgTcBbwVahnZJkqRZBneVyUeBvwe2GdolSZJ2ZXBXWXwdeCFwr6FdkiTplxncVQbXERVkri+6IZIkSWVlcFfR7gaeD1wFTkaVJEnak1rRDVBf2wq8Evg4GNqlpWRqYnLmrxVgGFgO7Aeszh7LgBFgqG2zbcAm4D7gLuAOYF32901A67obbyj6pXVj/zSy/TAMjAGj2b4Zz/5sZo969pyk7UftyPbNBqKj485sn92Z7cdpgF7Zb3m17ecqsT9XA2uA/YGVzO7rmX26ndif9xP7847scSexj3tqf7btnxowSBxnI237ZSx7zByHg8BA9mi3mdnP7p3Mfnbvyf63tFf2WdkZ3FWUFnAp8BasIKMuaDthjRNhqFMJETDvJufJKPudVWBV9mcntgD3QrnDQtv+bBCh6CHACcDxwOHAgURYnwmge7ujmwI72177LcA1wLenJia/CfwPERKWyj6pE8FnBREaDwQOyh4HEhc0K7L9M0yE+AHiHFyh87vfO4lj8z7gduCnwHeBb05NTP6QCFGFB6hsv9SJ4Nzpa7sf2Livtu+2z/cHjgFOJo7FI7J/GycC6N4+gykR0rcC64HbiIX/vgNcNTUxeU22n0t9DLbtk4Q4rsaJ75/9gbXMHosHEO/HCiK0N7Pn17P9VGHXC8a97beZi8l7gJuBHxHH4LeJIa/blsJ+W6oM7irKZcArgC2GdnXRfsTF4UnExWInUuDVwNvm+DsPAD5InDD39TtrxGfh2WQ9fWXSFpJGgKOBs4FziJB0ILv2pueREIGhTvT2TQBnAX9IBPnvA5cD/zk1MXkdBffE79ZrOU4cVxPAFHHRchgRjvYjwvkQ3Tm/1rLHMLH/Hwb8NrARuBb4DPCxqYnJHxDhqsjwdDjw3mx/pPt4bhV4DfCvD/Y/7nbROEUcgxcQgf0g5nYcJtm+HMkea4GHA08hLiJ+SByDl01NTP4UmC46iLYF9EEihB8ETBL7eir7+4HMhvMGCz8kOsl+boO4yzYFnEd8f60Dvgl8DPjM1MTkOjDALzSDu4rwTeAFxO1xacFlJ7ga8JfAr5Hv5PVZIkzP9YRTAw4hgkAn9itkJ+1Ftv8Gid7MR2ePE4kTdSe9cnNVIQLJhcD5wLOAjwBvn5qY/B8WsTe5LSweRVz4HUNcvBxGXJwtI3rNu7k/OjUCnJI9/hj4JPBm4PtTE5NFXfQ0iCC5vMPnL9v9H9qC6v5EOHwCcYF3AN2bo5cQF2dnZ7/rT4EPAG+dmpj8GSxuEM32wTBwKnAscRweQVw47ke8953e3eumKnHR8ATg8cAPgLcDH5yamLx7sfdbLzO4a7HdAFxC3OJ1XLsWXFvguhh4BvlO8DcBf0WM4ew3KRFa9gMeBfwmEVxWUUw4rQCHAs8Dfh34J+A9UxOTG2DRQkACPBf4owJe/1ztl7X3IuBfgLdMTUyuX0qhqW3I2dHAE4n3/2jiDs1iSoiL8OcDvwK8CvjQ1MTktkXen4cRdy8OWOTXP1c14m7QCcBvAH8LfHVqYrLwYVy9wKoyWkz3Ai8CvgqGdnXVFPDXdN7bBzEu8zXAN6Ave4cOJD6fVwDvIHrOVlOOHuXDgX8E/o0IMe0XaN00Mw56KTqIGI74FmBiamJysfbZvExNTNaJ3uU3EsfiXxEBcLFD++6OJoby/C0wvsj7cjtLM6/ViLtnHyAuJutL4Rgsu6V4IGhp2kaMG/4wGNrVHdlJYQh4MTG8IY8PAe+GvgztEMNhXgE8lOJD0oNpAE8G3pO1cbGC6MaiX/g81Igx8G8jLmbLHN4rxETnfyaG+vwZcfFRhgvHGcPEHZhXA2OLuC+3E5Nol6oDgTcAf4Hhfd4M7kA1qezzUcse8d8JFWYf8X/ai5TowfsXYNrQrm5oOxk8hQh4efwQ+DtgU5+GdpitcFJ2ZwFvJcb7LkYQXcrBfcYjiaFGpZtP0ebJwH8C/6vk7awCTyeGzyxWCN3G0g7uEGPx/wr4XSj1BWTpOcYduGz9j6mQVFukbE+np7e1du4EaCTV6kClVgMYTGrUk2qrnlR3DlZqDFXq9aFKPRlIatODSS0ZqNQq9aSa1pJKUk3ao3xKmkJKus9p9T3sU8Ttxc2GdnVD20ngZGK4R54qE/cBLydKEGppOIXowXsaUcavm3ohuEPM+Xg+8KKpickdJbxAPbboBuRQA/6cqH70kamJyW7fpVvqPe4zRoks8BPga4uw33qSwR141W1fYKQ6UNs4vT1p0aqmWa9TQpLMxO8siidJklRrSYV6UqGeVKlTTZvVBiOVRjpSaexcUWtWV9SG0lW1EVbXhpMVtWa6stpMRqsDSbNSp5FUk0oSnVppGmG+xyP9d4nJZeuKboh63nJiXPthObZJid7bj0PfDpFZqh5FBNHndyOIXnfjDTMXhJuKfqELJCF6ir8IXG5omrcx4vi7EvhFl3/XtuzRC9YCLyXusKwvujFLkcF9NzMBffd/z3rME9K0Op22skvfFKCW7oQ0BUhnxoWmlSRJqlTSgUotaVbq6fJqM11VG04Paowla+vj6drGOAfWx5KVtWYyXGlQT6pJkiRZmO+ZKH8zUUHmGnBcu7ojC1cVomzb43Ju/iVi0uNOQ8y8tYiewe3Ewko7sr+nxPj0QWKM8CALNyTnD4DPEfXeuxVEN2WvbT5t3klMct2ZPbYTQWx79u87sv20hV+u/V8leipnFnCaz3l7nFgz4Epi8ZxeM3MMbiX25XZif1eJ0p1D2aPBwoydPwV4KvDaLl8I7SRWJ52PmUXPZo63HcQxuKPt0Wr7990NEsffSmLxpvnsvwuB3yJKbHoBmZPBfY6S3f//7P974C8t0mRzawebW9uTO3du4idb7wCgkiTUk2o6UhlIV9eG07WN8fSwgRVMDaxMDmksZ7/acDJSHUiqSWUpB/n7gZcQvTuGdnVF2xCZC4mJT3nqGd8G/A3dH2rRa1IizK4jyrteB/ycWP30DqJ61GZmw2nKbGhaQdT2Ph44LftzfB5tGSdq9X+N7vXe7Sm4z6xiuhnYQAy5uid7/Xdnf78n+/f7s8cGIlDO9KBub/s5MxVsdv+6n1kRcz+issmF2WOSuYWns4HHAu9d4qGpRbznNxHD3H5CHIe3Evt/E7FfZ4L7zIXjfsRE3ROIBZeOJILoXCTEnJr3Zr+3W6Z58Ds/KbMXKhuJ4+teZo+9mce97HoMbsy2mTkOZy6yp7P9+mCVlGYWHzuYuGB5DHA6cVGZV52oMvNx+rP07rwY3LtsJtpHrp/9jt2ZtpJ7pzcn90xv5tqtd5CQUK9U07HKQHpAYyydaqxoHTO0hiMGVyUH1ceTsepgUsuCfKv8MX4H8Drg/WBoV9cdTIybXJ1jmx1ET/uXwSEyHdhEhKLvAt8CriZC+11EAOi4PvPUxOSXsr+OEeHpSUSt7rnWqD6XGL/drSD6C6ID4r7s9d6RPW7P/pwJ5zNhaDsLv8rmeuC2qYnJq4nqR1PE3Yank++4h9nqPB9j/r24i20TcD2xiN+VxBjzG4n93/Fds7aFnVYyu1rqxTzIIlAdOJYIse/o4oXQdPZaG8QF853EsbeO2eNxPRHMNzMbxhe6bvrdUxOT1xN3Kt9CfPaeTSyWljdPnkRMmn7/Er+AXHQG9wIluwX66bSV3DO9Jbl7y2Z+uPk2PnnfNYxUGukBjbH0qMHV6fFDB6RHD+6XHFgfS4YrjSRJElppKfvj301UMNhpaFe3ZCffBjGH4oycm18GXMoirsS5BN1HrH74BeJE/d9EcJ1XKG3b9v6picmvAl8nSjy+EPhV8peibBCVKi6jOxNJv0msvjvTO15YyMh+b2tqYvKnxDjhLwKvJ+5c5HEmsRLu1wt5IflsII7D/8oePyKOwzmvCJttlwJ3TU1Mfhr4PLEy618RVYvyqBLHx/vo3gTSaaLqFWR3Zwo+BpmamNwEfJpY9+IS4s5XnjsXDWKtiI8QFxnqkMG9ZBKYmQYLwIbW9uT+LXcm1265g8vXX5OOV4fSQwdWtE5sHsBJQwclRwyuTJZVh5JqUilLiP8s8eW30dCubmkbIvNEoucxj58QVWTuN7T/kk3Aj4nP8RVEmcz7oTthNZsAOg18G/hD4iLsOeQfunAG0XP6XwvdPmbHpZdGtt9axPv0R0S53eNy/IjlwAXA10va2zlNrK59efb4PnEhueBtzfbldmJf/gT4B2LV4DxOBY4gPi8L3r5MqarKtAX4e4g7npuIc/9Ajh9zOjHk66dFv56lxOBecglktW0SUkjund6S3L3pFr6z6Raale+naxvj6YnNA1unDR+cHD24JllZa2YhvpABNT8grrwdM6yuaQvtxxK9jiM5Nt8EvJIunGB7wFVEVZ5vk01cXIxA1xYA7icWgNpJLKDVyPFjxoje+v8qaRBdcG1Vb75F3K14DzGHoFNnEeO+yxQIdxAh/T3EHZRbWITe5bZj8Eai53gl0QPfqTXEXYwf9svxN6PtwuefiPkCT8ux+YHAwzC457IUFttQmwRiAagkYWu6M/mfbXdVPnTP1dWX3PqZ5Fk3X5a+/vYvT39lw89b905vSZMHFohaFLcSK8r9CBzXrq4bBV5GTNbL493EGOG+Orl26EdEr+M91914w6Lvn+z3bSd6PD84hx9xARGg+kbbe/QZ8u+zo4ngVBY/A54JPJ5YrO/m6268oYghIbcQF7B35NgmAc4h3+T4XrOZmDd0c45tasTdChdkysHgvsRVSKgmFXak08l12+6ufPjeq6svvvXTyV/e/In0zXdeOX31lttaW1o702pSodK9CL+BCFH/Dwzt6p62L/c/An4j5+bfAF4DbDO0P6iyLAC9EXgV+XvhDicmu/aVtuE87yGqqXRqDTHJtSyuIob83FHEhSPsciH0NeCjOTc/EVi16I0ugbb99kOyNTFyOI58C+b1PYN7D5kJ8dvT6eTaLXdW3n3Xd6qX3PzJ5IW3fir9yL0/mL51x30pRI/9AtpJ3CL7dzC0q3vaQvvZxN2dPJMY7yJ60W4q+nVoz9oCwDXAO3Nu3iSOjX7tvfsBMcypU0PExU5ZFD5BCx44BqeBD5CNq+/QwcR47b7UNuH3k+RbtGySfEO8+p7BvUdVsuE0G1rbk69vvLHy+tu/VH3WzZ9I37DuK9Pf3fSL1rY0euEXIMK/l6hqsMPQrkWwhpgIdVCObaaB/0N2R8je9nJre38+RAyfyONUYtx2P9oMfCXnNodC317o7Mt3ge/leP4YcEzRjS6BHxClYzu1kj69UzFXBvceF2PiK6TAzdvXVz54z9XV591yefLSWz+TXnHfT1rrp7emlSSZ60j4zxOTA+8v+nWqt2XBokZMHDs/5+ZXAG9iHuXjVIjribHbeTwE2L/ohi+2tuP6ezz4qpd7shZzwJ5sIFvnoUMJWXDv8wuhu4Frczy/SZ/NTZkvP7B9pMJsL/yXN1xfecVtn0suufny9IP3XN26feeGNEmSPOPgryGGK9wCDpFR97SdBB8PPIN8Y7F/TqyO2ovLu/esttvuV5Cv6knZxm0vtpnFiDq1kvx183te24XQVeQ7/g7H/bmTfPNTBojjUB0yuPehmV74nWkr+dHW2ytvWPeV5C9v+kT6jru+1bpx+/oHqtHsxe1E2cfvg6Fd3dMW2g8nxqgvy7H5VuDVZON+7W1fkr5LvtvuTfJXGuol9xIraHZqhHx1t/vNtcTqpJ06hKh41ZfavmNvybFZBRgvuu1LicG9z2UBPfn59nsql955VeXZN38i/bc7r2rduP3ePQX4TUQP5hVgaNeiaBJ1vR+ac7v3A/8XDO1L2DqyDoIcjoK+Ha6wmRji0alh8tXL7zd3ADfkeP5q8nUu9Kp7iLlFnRouusFLicFdAFm994RbdtxXeefd36o8++ZPppfedVXrpl174Gcm+b0TSA3t6qa24PVU4Mk5N/8+8PfAlqJfh+ZlGvhOzm0Oo397kXeQ75ivUp4yoGW0mXwTpMeI8N7vtgKtHM+3HGQOBnftoj3Av+Oub1Wec8sneffd356+fceGtNri/aNb09c0d6TbDe1aJKcALyJfpZD1ROWZn4G97UtV2/v2Y/KNMz6I/h2u0CIWsdI8tc2zuD7HZk1gv6LbXgKbKUl5z15kcNeDmgnwN21fn7xl3ZXV51a/u/OZj6/f8rAXrq4/5E9Szrr8fUU3UT0s621fQQzLmsyxaQq8BbgcDO094gZi7HanVgHLi260esZNdB5CaxjcIe6UGdy7xOCuvaqkUN1vJXc+6qH1G1c3njd+75ZPHML4k6a3bh4+7QP/xtlXfKDoJqrHZKG9AvwZcFHOzb9ALAi209DeM+4k3wTBEawLrYWzjs7v+CRkQ2X6dI6FFoHBXXuWplSGmww/9vy0vvYAkjStkqZnpNPT70q3b39XAmdMb91aPf0jbyu6peoRbSe7RwHPIsbgdupWooc+T8hT+W0AfpHj+UM4zlgL5y7yDdXybo+6yuCuB5dCUq8zdOGZNI6eSkh3ues1RJo+MW1Nf6y1ZcsrmJ4++JT3vIEzP/z2olut3nAIEcDz9JpuB14HfBUcItNjthMXZZ2qY4+7Fs4Goppap5YV3WD1NoO7HlwlYfCMk9LBU0/c83PSdA2t1gvT6enLavXBJ7fS6aHTP/CWoluuJSrrbR8AngecnnPzjwLvAEN7j7o95/MN7loom4GNOZ4/jtlKXeTBpV+Wpgwce2TaPO+MJKnV9vXshDQ9KW213pbu3HkpcNw5n3ofZ3zo0qJfhZaQtiEyTwT+IOfm1wAvBzYY2ntL2/t5Z85NVxTd9oIkWN5xoW0hX4nNYfo0W7V9j3sMdtE+U5n6TCulPnlQ2nzsI5KkOchuQ2T2pkmaPjWdnj5j+/r1r09qtX8//QNv2XjV7zyj6Fekkmv7sj8OeBn5FuPYCLyCCO/qXXcTpQ47DURjEMfWUr6Ya/tsVIiFkgaIybejRM/uCuLuwmqimsn+wDFFt7vHbCdfcB8ihmvtLLrhC6XtOKwTx+EQcQyOEmP6VxLH4X7Zn8dkz1UXGNw1K02prlrO8MUXUF25HFp51k94wBRp+sZ0587zk0rl5cCPz/zYu7jy13+/6FenxTcMjE9NTDaJwDHI7Jf+MFHzeOYxDPwa8JCcv+MdwH+AQ2R63H1EiblOg/tI9tw5fYl1WxaEEuIcPPOZGCEuOHYPQquzv68igvpY9pj5XDWwh7ObWuQL7g3yTaovxINcFDaI7+GZi8KVPPhxuJI4RseIY3aQOA7Nk4vEHa2QpiTNoXT4sedRO+TAZI6hfUaDNH1S2mo99PQPvOXv0unpD53xobdu+/qT/rjoV6nFMwT8M7GS48wX+8yjlj2qbX/OxdeICanbDe09bzNxLHXaizczXKGQ4N4WigaJyYqriN7w/ZgNQfsxG46WM9uDaRAql2ni+OtUad677DisEp+HFczelWk/BmfC+EoisO9+UdiXw37KrBQHl4qX1Go0zz+DxrFHJDmGx+xdmh6ZTk//a5qmp1eqtVed9r4331JtDnPlE55W9MtV91Xp7i37dUTlmVuKfqFaFFuI4N6pIeIYXJThCm096OPAYcAJwEOBo4gqSauI3skBDEJLTUqE904Vcvdjt+EsM0OmTgSOB6aAA4gLxJmhPN6lWaIM7gJg8NQT08HTT0pIkjzj2jsxTKv1zFa646SkWn1Jtdn80lkff3fra4Z3zd008Ebg8+AQmT6xnXzhaYAuB5O2oLQMOAV4NHAOcAQRkAzovaEFbMvx/EEWcXx3W6/6ocB5wCOBhwFriZCuHmNw73dpSuPYI9KhC89MknptoUP7jCRbuOl9O+65+1WVxsDbz/jI2zZ9/YlPL/rVa2n6LPCvQGpo7xvbyNd73rVb/G296xPArxOVkE4k36RqLR0p+e72VFi8i8ZBonTuk4kLx4NZAuPrNT8G936WptQOPoDhx56fVIab3Qrt7b9v/3S69drpbVsfWqnV/+a0f/+Xm4aOOJIvnvbooveElhZPTFp0bWFpDfC7wB8BR2LPunbV1RNpWw/7qcD/Bh6Hiz71Fb9w+lWaUl0+zvDFF6TV1cu7H9pnf/EArdYftHZsf19Sr58xMjHJWZe9u+i9oaXlAuBpsEuYUm+bJt9E0/lMev4l2XFWIYYhfBh4NTF+3XOoFk12HK4EXgp8DPj/MLT3Hb90+lGakgwN0rzoEWl9cm1Ca7FC+y5tOCudnn7/XV/8wlPSVlo/4yNvL3qvaOmoAc8iJgCqP2wl31CZOgt0RzkLS4PEMfc+Yhx7We/6tOhyj68W39TE5Mxx+BDgncR6F2uKbtcepJS0DGuvcKhMH0pqVZrnnZ4OHP+QhasgMxdpOpFOT7+5tXXLEVSr/3j6hy69/6on/UnRu0dLw2HAJcAzpiYmtzjWvefVKaCjKQtLQ8BLgOdQzGS/maomW4gLmI1EXfv1xMJUd2WPO4D7s3YeX0A71QVtdxWPBy4lxrQXoUWM9Z9ZSfZ+4hhcT6xsfFf25+3E/I8X4SJMXWFw70MDp5yQDp7xsIRKUoa+mbG01XpJpV4/pL5y9YvO/dxH1335kb9RdJu0NDwRuAJ4/1JfIVP71CDf+WobUYlmztrGEv8F8FyiUs1CajG7KudmIgjdB9zLrkFo5u/3ECHpvuz5m5mttjPzTT5EjL9XbzmMmJC/0KF95qJwK3EcbmL2GLub2eNv5nEPcXzeS1xAbs623cGuvewXAi8oeqf1KoN7P0lTGkdNpc1HnpUkjfoijmvfu6Raq9VGxp5Gmq6iUrnk3C98/KcAX77gCUU3TfMzc8s0zR47d3tMZ3/uIILWSmJRkE41iUB1JXBj0S9WXZX3y2peQ0baejkfDzyf+YX2HURv+PXZ4+bsv2cC+frs0R6EdmavoeMLUud79J7sPR0B/hY4a54/bgOx7sV1wM+BX9DhRWGeThGPw+4zuPeLVkrtoDXp8OPOTyqjwxQyrv1BJJUKtbExkkajAvwKEdyeBXzr3C983PC+dG0DXg/8gDgBbGO2F3Rr9ucOZkPKNmLs8FuJGtidehhRWeGFUxOT0/a696wB8o0rX4ix3muJITJ5jsd2vwA+B3wK+F7235vJGcjVn9oC8G8DvzXHH7MduBq4HPgi8D9ESN8OHoNLlcG9H6QplWWjDD/+AqprVpYmtJMkVEdGqQzuMmz0dOA9xO3pzxrel6wdwCeBb3RycshOUpcR4f0vcv6uPwA+A3zOITM9K+8y8luY4wS5tsD0VGJhpbzWA+8lxiP/N7DTY1JztJbomMh7xyclAvs/A58getX9buwRVpXpdWlKMjjA8GPOTeuHHVJMBZk9qDaHqTYfdM2So4C3Eb0MlXO/8PGim6ouy04oO4kVUb+fc/OVxHjKlUW/DnVNkxjn3qk5B/fMIcRY8bwL6fyMqO/+bOAH1914g6FdubVdPP4a+atn7SQuHH8DeAdw13U33mBo7yEG915XrTJ07qnpwEOPKbaCzG4qg0PURkYh2eN58WDgTcDvA1XDe9/4OfBaYpJUHucTPe+OsexNI+SrULGRGJ+bS9ux8yii9F4ePwf+GPgosMOgpHkaIybg581p7wH+HPi5gb03Gdx7WZoyePJx6dBZpyRUyvNWJ/UGtdExOmjTauAfgGcCdcN7b2s7wXyMWOQmjypxS/kkMLz3oBXkG+O+gbn3uDeISal5ft9m4K+JccSGJS2EE8i+z3L4GvBXwHqPwd5VnjSnhZWmNI44NG0+8uwkGWiUqIJMldrYOEmt4+Gqy4C/J0JZw/De27KTzVZiYutPc24+ATyPGFahHtB2AbaafMNW1sOcA/QhxKTnPC4HPjKP3ykBuxzz5wDjOTbdRHxv3lr0a1B3Gdx7USultv/qtHnx+UllfKQ0oZ1KhdroOJVGnqGqAIwCf0dWS9nw3hd+TNxtyVuL+wnAb4K97j3mgJzPv2sev+tYYP8cz99IjCXestg7RT2rDjw85zZfJaoYefHY4wzuvSZNqYyPMnzxBdT2X12qCjK14REqQ3NeeLDJ7OqFhvce1nbSeR/Rk5nHEHGBd1jRr0MLpgoclOP5KVEnPZfdVqjM07vwQ+AbYGDSgllBvjkWKVE9ZmPRDVf3Gdx7SZqSDDRoPvrstH7EZKkmo1aHmlSHR+b7Y5rAy4hygY5572FZANoAvIZYNCSPE4i1AGr2uveEYWKyeqe2EQvLzEUCHJFzmyvJhuZIC+QAYE2O598DfB28eOwHBvdeUqkwdPYp6cBJx5YqtFcGBqmO7rWCTB5DwEuJCas1w3vP+yZRizhvhZDfAx4JDpnpASuBA3M8fxOwbo6/a4iond2pFvnLl0r7sj9RSalTNwM3Fd1oLQ6De69IUwZOOiYdOufUJKnmKYbQXUm9HiujVha0TaPAK4jyf9Z571FtPUdvB/4r5+bLgRcSkxq1tB1Cvhr99zD3Me5DwKocz98C3AD2dGpBrSbfcK2biTuU6gMG917QSqlPTaTDjz43SQYHSjMZdbaCTJ7yyx0bA15FLAeN4b2n3U2813nD2DnA08Fe96Wo7T07jny9j7cB987x1w6RryrRJhwmo4W3nHxVlNaRfyK/liiD+1KXplTXrGLk4vOTyvhoaUI7SUJ1dIxKI+9KzbmsJMpfXQyG917U1ov5JeCtOTevAH9KVp3B8L4kVchfXeN6oq76XAyQr6dzK/kXC5P2JW9JWyel9hGD+1KWplRGhxl+3PlUD1xTntAOVIdHqQ4tSjntA4F/As4Ew3svysL7NLGS7jdybr4WeD75emxVHqvJX1P9GiCd49CVKvkWXppmDiu0SvuQ9+TZAodr9QuD+1KVQtKo03zk2WnjqMPKFdqHmtRGFjUnHU5MYDym6NeurrqVGDJzf87tfgV4EtjrvgSdQL7SntuAH83j9yXkG6JQIV/Ql7ohAb/f+oXBfamqJAyeeXI6eMrx5aog0xigOjq2UBVk8ngY8AbgIHvde09bT9Kngffm3HwAuIT8Zf5UkLYAchFRDrJTdwD/M49fvTN7dGqAGBcvLaStOZ/vHcU+YnBfitKUgROOSpuPOC2hTBVkavWYjFpcmx4NvBIYM7z3niy8bwf+kfy9qscAfwnU7ZVaMg4mgnse1wK/mMfv3EG+4N4kqlxJCynvKrwrgFrRjdbiMLgvNa2U+qEHM/yYc5NkaLA0Q2SSSiXKPta7UkEmj6cQK2e6QFPv+hkxKTnvye0pZEHQ8F5ebe/N48m3eiTEYkhznZhKtm2e7YeIxXKkhbSeWA21UwfgnZ++YXBfStKU6uoVDF98QVpZMV6a0P5ABZmBwaJbAtHr8JfAU8HJqr2mbcjMh4GP5dx8HHgBsbiJyu0AYp2GPLfvNgFfgXlN0ttKvlKSdbIhWF4MagHdRb47PwfhmhV9w+C+VKQpyXAzHX7cedTW7p/QKkloB6rNkcWqINOpUeDlwHlgeO9Rm4HXEqX/8jgT+BMgMWiVT/aeJMAfASfn3Pxa4Op5NmELcHvObU7GYQpaWOvIV2Z0P/LfndISZXBfCtKUpF5j+MIzk8bRh5enpx2oDA1FBZnFn4y6L2uB1wBTRTdEC6utN/VqohTojhybJ8AzgNOLfh3aVduF1COB/03+89NnmfuKqTOmgetybnMy8X0jLZTbiRWAOzUEPAK889MPDO5LQSVh8IyHpQOnnlh0S3ZtVqNBbXQcKqU9jE4let6drNpj2sL7e4Arcm5+ADFkZsyTXDm0vQ+nAv8ArMn5I+4GPgELUsv6GrK62B06FLhgt9exVNQwB5TRXcANObd5DEt3voV3rHLwA1t2acrAsUemzfPOSJJaeY7tpFajWmwFmU79FvBnQMXw3pPuA15NLHOfx2OBJ8OSDFs9pW14zIXA24Dj5/Bjvgh8fz7taAv8PybfOPcq8HvAqi7upr1qO4ZHgTyTjVYQwyxULpvJP+zreOA3oLjvtLbfu5x86yEcgsMXO2ZwL7NWSm3ioLR50SOSpFmyCjKj41TqeVYGL0wdeA4R1Bzv3kPagtbXgTeTr5e0QRwXRxf9OvrV1MTkzIl+P+CFwL8zt9C+EXgn+Wtf78l1wE9zbnM28IcsYviY2X9TE5PDwMOBFwP/Qb6VZlcD58z8PBWv7XvtSvINA6wSQ8yOgcV7P7NjsDI1MXkAceHwNuB1xHdsp07D4WYdM7iXVZpSXbWckYvPp7pqeWlCO0lCdWSUymApKsh0ahXwChzv3nOyk1wKXEpWUSSHI4FnAwOGlsWTnegTohLG04HLiM/nXKv9/D/gv2DBlnxfT/Tg51ElytB2tcezLayPEmPrLyGqK10B/B1xAZHnyzkhqvcc0s12a06+DdyYc5ujiLldB0HXj8Pq1MTkgcTK1G8kPofvJyaW5/3FRwG/i73uHSnP2AvNSlOS5hDNxz6C2iEHlayCzDDVZp6FDEvjJOBlwJ+e+4WPb/7yBU8ouj1aWHcAryJ6bFfk2O53iNDz0amJyYUKfmrTdiIeIMaun0BMQH0UcfE0n/PQncD/YX612x9w3Y03zLT3U8Qk5mU5Nl+dtWUZ8L6pickt8z2e2vbdTL34Y4EzgLOyv68g35CEB3MKEfaeA9zm56A0biIuSA/Pud3FREfGC4AfLcT7mR2HFaKk7qHERePZxJyUSfJdLD6YClHG+efAh6YmJqc9BvfM4F5CSa1G8/wzGDj2yPL0tAOVwSFqI6NlrCDTqd8GrgLecu4XPo7hvTe0ha3PEUMmLsmx+SjwPOAbwK1Fv5aCnU1U6bl3amLyXqLn+X5iKMrMYxuxeu124jZ+yuzt/DpxAm4QQXOcGAazlgjoRxM9awcx/xM97HanZYFP9N8BvkosApXHgUR4fxTw1qmJyW8BG4B0b+1rC+h1YjXW5dl+Ohw4jrjYeQhxV2JgIV9o5reJC4+/B742NTG5rQv7VB3KvtNawIeI92Ysx+YJ8DjiM/dW4GNTE5M3kH1O9/Seth2DM5/hMeKYmCA+tycSw3AOJY7PhR6xsRr4F+KC9NKpicmb2cfnpl8Z3Eto8NQTGTz9pPj4lSS3J40GtbGxMleQ6cQg0QvxbeDbhvfekZ3oponQdB75aoCfRvSu/vXUxGSrj08UD+GXa0HvJE74M49txFjy7dnf0+zvECf7ChHam22PbgRNiFvz/wx0o3duM/AOolpM3kUqmkTYeizwA+L75idTE5PriIufNNtHdWCY6KFfSQSXA7PHftm/DbM4Q1pnJgc/DPgCUaHnW1MTk7cS9cSnwSBfgK8Rx/lvzmHbw4m7kH9KHIPfA34+NTF5H/EZbmSPQaIDYxlxDO5P3N05gDgOx+neZ3h3K4AXEUPOLgM+NzUxeS1RNWobBnnA4F4urZTGcUekQxeemST1Wml625NqjdroOEm1Jw6XSWLIzO8RFUnUW24ibvu/AxjpcJsE+GOiDvhXHCqwi1r2KNty6j8Enk8sVLOg2u7gfJYYMvPEOf6oMeIuxtnZf89cBEGMia9QvnPwciIkPoEYhnQjMfn7b4k7MFpcW4he6Ecwt6pFFaLHfIJ4X1vEMTjN7DE482dZVIi7c0cDzwJuJo7DNwOX+f1crjerv7VSagcfkA4/9rykMtwsTWgnqVAbHaPSWBIVZDr1OKIChFVmekjbl/kngA/k3HwNcTdmWdGvQ/v0E6J6xtXQ1V7gTcTqvHknCO7JzAXQENHTWbbQ3q5K9LyeRvTE14tuUL9pO66/Qgx5WYhQUCF6z2fuhM0MbyurJnEX8NFYAewBZX7D+keaUlkxzvDjL0iqq1eWKLQn1EZGqAyVrbNt3mrERJhTwfDeS7KT3TZiEZ9rc27+aOCpYHWNEvsm8PvAl6F7ob3t534LeCX5lp/vNVuJz5QWWXYcThNzTz5ddHsKthEcrgUG9+KlKcnQIMMXPSKtT66FVp5S1N1VHWpSHe50tMGScwhRO3q06IaoK64FXk++wFEH/oKYHKVy2UbUeX8yMcG86yfwtp//buJCcPucf9jiSYFbiH31/QX6mVuIYT4qzh1EudFvFd2QDm0j6tC/l5jgPl8p/X3xvAuDe9FqVZrnnZYOHP+QpDQ97UBlYJDq6JKuINOJi4GngL3uvaQtcH2QGDaTx+HECXLQXvdSaBErmf4Z8Ezg+utuvGHRet2y37OdGDLzWhao7GQXbCHuRrwEuIi4K/FUYmLjfE8sD0xO1eJrO9avAf4XMeegjFLgdqISzlOAXyWGpL4g+/f5aGFwf4DBvWCDJ5/A4BknJ2Wq1pLU69TGxkkq1aKb0m0NYgGeo8Dw3kuyk91GYqLqTTk3/y3ipOOQmeK0iLHsf0OUZHw7sLGI2+TZ79xELHB0CeUpG7qD2EeXAk8i5u68irjQmc7+/D3gH5nfxNLNGNwL1Xbcf49YqOiDlOcO0HrgS8Qd7Mdk7fuP62684e6sjZcSF5FfZe7HkcG9TZknx/S2NKVx1FTafNRZSdKol2Zce1KtRgWZWt8cGkcS492fRXm+CLVwvkOUiHw1nX/fDRMVS64if+jX/KwnwslHgcuJiaGFl4DLKs1sA/6NGILyQmJOxGJPANoMXE/0un6WOEZvYw8lMacmJm8nyut9lviOO5/85S3tcc+nK7ep26odXQf8CVEq8s+Ju4SLeWu8RVQc+hGxQNQXsr9vmGnnbm1uAZ/PnvP7RC/8ETnbvJPy3u1adH2TzkolTakduCYdftz5SWVkuDShnaRCdXSMysBilWwtjd8hhlR8ytrue7WFGK+4r5N4QnyJFzoutu1E907gXKK+e6cBZIq43fuqOZQfaxGlRkezv+9Nje71JO0keodXExUkBohqIWWynSjpeA0x4XSPIaBo2fGUEmH5qUTv4h8Qq5gu68KvTImwclu2f76R/e4fEcFpn2sOZG3eQQT3K4nPwO8Q5QUPpLO77puZ23CbaeJCrJMVSbr5OVgIm+jsO61KfPa7Mllt5v2empi8nygTeQVxLD6R+a9CvCfTwL3ERfT3iIvGbxEXkJva27WPNq8jhpt9mKjT/uvEwmKdTKTbQUySFgb3xZemVMbHGL74gqS6ZlV5JqNmFWSqQ3k7Y3rCOHEL/BvEQg96cJcSFzidnMRbwE+LbnAWXO4hFlg6sMO2Q4SNjUSwyfshvZ2YRNlJCb0EuGcOv6MTdxG3rVcyu8DPzMI+K4ia3cuI43+UOIE2iQVZGln7Z8rFzadHb2aRps1EqLmNWNr8v4l67NcQEyq3QLnC+u7aQshG4D+ISh8PJVZKPZsoXbcq24ed7rMWEUo2Eu/ZLcDPsv3zY6KH9Q6yidZ5989ubb4c+AxxYXomcdFxInAwcRw0HqTd+wxne/rVRDjr5GIxIb57S9KLtYsWcceuk5KMCXEcr+9mg7L3Ip2amPwpMZzsUqJz4gLgFKL4whidZ7yU2V7t+4iL6RuIoVg/Jj6jN2X/25wWqWtr8/VE4YC3EZ+dc4HTiV74/Yg7nrsfMzuy/SoW9/ZKaR0+MclIdeBPNk5v/7e0m98baUoyMMDIrz0yHXjYcaWajFptNqmNLev1yah7s5MYMvMmwF539bTsTsTMAkAz9cUHs8dI9hjO/hzd7d8GiYBfbfsT4uS/hTjJbsoe64lAdhfRS3wX0XvXM6txts2DaBKrTU5mj4OIC6SRbJ/BbADZTNy9uifbL3cSYekuIhx1fZXItmNgWdbuQ7I2709c1M28/x8HPrLU36de1/Z+riDey8nszzVEiB8hPqszn9OZi8X7mP18riMuEu/N/red0L3PaNtnZ5C44D0YWEsch6uzdg9n7X0l8AuPQ4M7sIjBvVKheeGZafO805MyBeTKwAC18eUk1bLdRV90/01MSrzO4C7tWdsJd/ehFiklGJNeFtl+Spg916bZo9QXLLu9v76nS9gePqstKPcx2Nb2mc/PkmjzYihPeizQogT3NGXw4Sekw79yYZI0GqUZ157U6tSXLyepuTBe5tXAi4HU8C5JksqkPDUIe1krpX7EJM1HnVOu0F6pRNlHQ3u73wVOKroRkiRJuzO4d1uaUj1gdTpy8QVUxkdKE9pJkn6tILMvBxGLXNSs6y5JksrE4N5NaUplbCQdufiCpHrAamiVJLQD1eERqs2+rCDTid8Ezii6EZIkSe0M7t2SpiQDDZqPPiepHzFZqtBeGWpSGxnBKQ57tJLodR+w112SJJWFwb1bKhWGzj4lHTzp2PIMjwEqjQFqo2OQ+Nbvw+OJusySJEmlYHrrhjRl4KHHpEPnnJpQohKLSa0Wk1FL1KYSGweejr3ukiSpJAzuC62VUp+aYPgx5ybJ4EBpetuTSoXa6DhJ3QoyOVxErCwoSZJUOIP7QkpTqmtWpsMXn09l2VhpQvsDFWQGB+f/s/rLMuBpQMNed0mSVDSD+0JJUyojwwxffD61A9dAq1V0ix5QbQ5THbKCzBw9Dji56EZIkiQZ3BdCCkmjTvNRZ9M48rCkND3tQGVwiNrIKCRWkJmjVcBTgYq97pIkqUgG94VQSRg88+R04JTji27Jrs2qN6iNjUHFt3mefhU4puhGSJKk/maim680ZeD4o9LmI05LylStJanWqI6Nk1RrRTelF6wFnghgr7skSSqKwX0+0pT6oQczfNG5STI0WJ7JqJUKtbExKo1G0S3pJb9JBHhJkqRCGNznqpVSXbWC4YsvoLJivDyhPUmojYxSGRwquiW95mjgMWCvuyRJKobBfS7SlMpIk+HHnZfW1u4PrZKEdrIKMs3hopvRi6rAbwMjRTdEkiT1J4N7Xikk9TpDF56ZNo4+vGQVZAatINNdpwEPL7oRkiSpPxnc80pg8PST0sFTTyxVOk7qDWqj41aQ6a4xYqx74nAZSZK02Ex5eaQpA8cdmQ6df3qS1MpTrSWpVqmNjVOmNvWwxwCTRTdCkiT1H4N7p1optUMOSpsXnZdUmkPlmYxaqVAbtYLMIjoMuBCcpCpJkhaXwb0TaUp11TJGHn8+1ZXLyhPak4Ta8AiVoWbRLeknFeDXAMv2SJKkRWVw35c0JWkO0bzovLR2yEGlmoxaHWpSHbbISQFOB44tuhGSJKm/GNz3JoWkVqN5/hnpwHFHliq0VwYGqI6OWUGmGKuAR4PDZSRJ0uIxuO9NAgOnnpgOnn5SqdJxUqvHZFQryBTpImC86EZIkqT+YfLbkzSlcfThafPCM5OkXp5qLbMVZOpFN6XfnQicUHQjJElS/zC4P5hWi9raA9Lhx52XVIabpZqMWh0ZozIwUHRLFDXdrS4jSZIWjcF9d2lKdcUyhi8+n+qqFeUJ7UBteITqkMVMSuRCHC4jSZIWicG9XZqSDA3SvOgR1A89uFSTUatDTaojI05GLZdjgaOLboQkSeoPBvcZaUpSrdJ8xGnpwPEPKVVP+2wFGd+uklkOnAsOl5EkSd1nEgSSRgOShIGHH58OnnlyQqU8vdpJrUZtdJykWi26KXpw5wGDRTdCkiT1vvKUSynQyO88nvq2nbXG1MFJ0qiXprc9qVQjtNetIFNiJwKHAtcU3RBJktTb7HEHGsccQeXk46rJ6HBpQjtJQnV0lMqgnbkltwY4BRwuI0mSusvgDtBqQdoqT2gHqs0RqkPNopuhfasC5wDlGV8lSZJ6ksG9hCpDQ9RGrSCzhJwCrCy6EZIkqbcZ3Eum0mhQGx23gszSchhwRNGNkCRJvc10WCJJtUZtzAoyS9A4cDI4zl2SJHWPwb0sKhVqY2Mk9UbRLdHcnIqfJ0mS1EUGjTJIEmojo1QGh4puiebuBBznLkmSusjgXgLV5jDV5nDRzdD8HAJMFt0ISZLUuwzuBasMDlEdGbWCzNK3DDgeHOcuSZK6w+BeoEq9QW10jKTi29ADEmIVVUmSpK4wMRYkqVapjo2T1GpFN0UL5zjAVbMkSVJXGNyLUKlQGx2n0rCCTI85DNiv6EZIkqTeZHBfbDMVZIasINOD9gMOLboRkiSpNzlOY9bXgZcAaTd/SVKrURlyNEWPSoF1RTdCkiRJkiRJkiRJkiRJkiRJkiRJkiRJkiRJkiRJkiRJkiRJkiRJkiRJkiRJkiRJkiRJkiRJkiRJkiRJkiRJkiRJkiRJkiRJkiRJkiRJkiRJkiRJkiRJkiRJkiRJkiRJkiRJkiRJkiRJkiRJkiRJkiRJkiRJkiRJkiRJkiRJkiRJkiRJkiRJkiRJkiRJkiRJkiRJkiRJkiRJkiRJkiRJkiRJkiRJkiRJkiRJkiRJkiRJkiRJkiRJkiRJkiRJkiRJkiRJkiRJkiRJkiRJkiRJkiRJkiRJkiRJkiRJkiRJkiRJkiRJkiRJkiRJkiRJkiRJkiRJkiRJkiRJkiRJkiRJkiRJkiRJkiRJkiRJkiRJkiRJkiRJkiRJkiRJkiRJkiRJkiRJkiRJkiRJkiRJkiRJkiRJkiRJkiRJkiRJkiRJkiRJkiRJkiRJkiRJkiRJkiRJkiRJkiRJkiRJ0t78/2czCQllU4H5AAAAGXRFWHRTb2Z0d2FyZQBBZG9iZSBJbWFnZVJlYWR5ccllPAAAAABJRU5ErkJggg==;" vertex="1" parent="9pdm4Na_A3fy9SokRHZq-4">
          <mxGeometry x="430" y="300" width="90" height="40" as="geometry" />
        </mxCell>
        <mxCell id="9pdm4Na_A3fy9SokRHZq-32" value="hosts" style="shape=table;startSize=20;container=1;collapsible=0;childLayout=tableLayout;strokeColor=default;fontSize=16;" vertex="1" parent="9pdm4Na_A3fy9SokRHZq-4">
          <mxGeometry x="480" y="120" width="160" height="100" as="geometry" />
        </mxCell>
        <mxCell id="9pdm4Na_A3fy9SokRHZq-33" value="" style="shape=tableRow;horizontal=0;startSize=0;swimlaneHead=0;swimlaneBody=0;strokeColor=inherit;top=0;left=0;bottom=0;right=0;collapsible=0;dropTarget=0;fillColor=none;points=[[0,0.5],[1,0.5]];portConstraint=eastwest;fontSize=16;" vertex="1" parent="9pdm4Na_A3fy9SokRHZq-32">
          <mxGeometry y="20" width="160" height="40" as="geometry" />
        </mxCell>
        <mxCell id="9pdm4Na_A3fy9SokRHZq-34" value="localhost" style="shape=partialRectangle;html=1;whiteSpace=wrap;connectable=0;strokeColor=inherit;overflow=hidden;fillColor=none;top=0;left=0;bottom=0;right=0;pointerEvents=1;fontSize=16;" vertex="1" parent="9pdm4Na_A3fy9SokRHZq-33">
          <mxGeometry width="80" height="40" as="geometry">
            <mxRectangle width="80" height="40" as="alternateBounds" />
          </mxGeometry>
        </mxCell>
        <mxCell id="9pdm4Na_A3fy9SokRHZq-35" value="127.0.0.1" style="shape=partialRectangle;html=1;whiteSpace=wrap;connectable=0;strokeColor=inherit;overflow=hidden;fillColor=none;top=0;left=0;bottom=0;right=0;pointerEvents=1;fontSize=16;" vertex="1" parent="9pdm4Na_A3fy9SokRHZq-33">
          <mxGeometry x="80" width="80" height="40" as="geometry">
            <mxRectangle width="80" height="40" as="alternateBounds" />
          </mxGeometry>
        </mxCell>
        <mxCell id="9pdm4Na_A3fy9SokRHZq-36" value="" style="shape=tableRow;horizontal=0;startSize=0;swimlaneHead=0;swimlaneBody=0;strokeColor=inherit;top=0;left=0;bottom=0;right=0;collapsible=0;dropTarget=0;fillColor=none;points=[[0,0.5],[1,0.5]];portConstraint=eastwest;fontSize=16;" vertex="1" parent="9pdm4Na_A3fy9SokRHZq-32">
          <mxGeometry y="60" width="160" height="40" as="geometry" />
        </mxCell>
        <mxCell id="9pdm4Na_A3fy9SokRHZq-37" value="gw.local" style="shape=partialRectangle;html=1;whiteSpace=wrap;connectable=0;strokeColor=inherit;overflow=hidden;fillColor=none;top=0;left=0;bottom=0;right=0;pointerEvents=1;fontSize=16;" vertex="1" parent="9pdm4Na_A3fy9SokRHZq-36">
          <mxGeometry width="80" height="40" as="geometry">
            <mxRectangle width="80" height="40" as="alternateBounds" />
          </mxGeometry>
        </mxCell>
        <mxCell id="9pdm4Na_A3fy9SokRHZq-38" value="127.0.0.1" style="shape=partialRectangle;html=1;whiteSpace=wrap;connectable=0;strokeColor=inherit;overflow=hidden;fillColor=none;top=0;left=0;bottom=0;right=0;pointerEvents=1;fontSize=16;" vertex="1" parent="9pdm4Na_A3fy9SokRHZq-36">
          <mxGeometry x="80" width="80" height="40" as="geometry">
            <mxRectangle width="80" height="40" as="alternateBounds" />
          </mxGeometry>
        </mxCell>
        <mxCell id="9pdm4Na_A3fy9SokRHZq-39" value="frontend" style="sketch=0;points=[[0,0,0],[0.25,0,0],[0.5,0,0],[0.75,0,0],[1,0,0],[0,1,0],[0.25,1,0],[0.5,1,0],[0.75,1,0],[1,1,0],[0,0.25,0],[0,0.5,0],[0,0.75,0],[1,0.25,0],[1,0.5,0],[1,0.75,0]];outlineConnect=0;fontColor=#232F3E;fillColor=#ED7100;strokeColor=#ffffff;dashed=0;verticalLabelPosition=bottom;verticalAlign=top;align=center;html=1;fontSize=12;fontStyle=0;aspect=fixed;shape=mxgraph.aws4.resourceIcon;resIcon=mxgraph.aws4.ec2;labelBackgroundColor=default;" vertex="1" parent="9pdm4Na_A3fy9SokRHZq-4">
          <mxGeometry x="240" y="120" width="40" height="40" as="geometry" />
        </mxCell>
        <mxCell id="zy84ghSX6Ssc-HXoNrMQ-1" value="&lt;span style=&quot;font-size: 11px; text-wrap: nowrap; background-color: rgb(255, 255, 255);&quot;&gt;24224&lt;/span&gt;" style="rounded=0;whiteSpace=wrap;html=1;" vertex="1" parent="9pdm4Na_A3fy9SokRHZq-4">
          <mxGeometry x="240" y="630" width="40" height="20" as="geometry" />
        </mxCell>
        <mxCell id="9pdm4Na_A3fy9SokRHZq-18" value="logger&lt;div&gt;10.10.10.10&lt;/div&gt;" style="sketch=0;points=[[0,0,0],[0.25,0,0],[0.5,0,0],[0.75,0,0],[1,0,0],[0,1,0],[0.25,1,0],[0.5,1,0],[0.75,1,0],[1,1,0],[0,0.25,0],[0,0.5,0],[0,0.75,0],[1,0.25,0],[1,0.5,0],[1,0.75,0]];outlineConnect=0;fontColor=#232F3E;fillColor=#ED7100;strokeColor=#ffffff;dashed=0;verticalLabelPosition=bottom;verticalAlign=top;align=center;html=1;fontSize=12;fontStyle=0;aspect=fixed;shape=mxgraph.aws4.resourceIcon;resIcon=mxgraph.aws4.ec2;labelBackgroundColor=default;" vertex="1" parent="9pdm4Na_A3fy9SokRHZq-4">
          <mxGeometry x="400" y="560" width="40" height="40" as="geometry" />
        </mxCell>
        <mxCell id="9pdm4Na_A3fy9SokRHZq-7" value="reverse_proxy" style="sketch=0;points=[[0,0,0],[0.25,0,0],[0.5,0,0],[0.75,0,0],[1,0,0],[0,1,0],[0.25,1,0],[0.5,1,0],[0.75,1,0],[1,1,0],[0,0.25,0],[0,0.5,0],[0,0.75,0],[1,0.25,0],[1,0.5,0],[1,0.75,0]];outlineConnect=0;fontColor=#232F3E;fillColor=#ED7100;strokeColor=#ffffff;dashed=0;verticalLabelPosition=bottom;verticalAlign=top;align=center;html=1;fontSize=12;fontStyle=0;aspect=fixed;shape=mxgraph.aws4.resourceIcon;resIcon=mxgraph.aws4.ec2;labelBackgroundColor=default;" vertex="1" parent="9pdm4Na_A3fy9SokRHZq-4">
          <mxGeometry x="240" y="320" width="40" height="40" as="geometry" />
        </mxCell>
        <mxCell id="9pdm4Na_A3fy9SokRHZq-30" value="" style="shape=image;verticalLabelPosition=bottom;labelBackgroundColor=default;verticalAlign=top;aspect=fixed;imageAspect=0;image=data:image/svg+xml,PHN2ZyB4bWxucz0iaHR0cDovL3d3dy53My5vcmcvMjAwMC9zdmciIHZpZXdCb3g9IjAgMCAxNDMgNTQiPjxnIGZpbGw9Im5vbmUiPjxwYXRoIGQ9Ik02NS4wMiAzNS43NDZjMS4xMzQgMCAyLjEzNi4yOCAzLjAwNi44MzguODY5LjU1OCAxLjU0MyAxLjM0MiAyLjAyMiAyLjM1Mi40NzggMS4wMS43MTggMi4xOS43MTggMy41MzYgMCAxLjMzLS4yNCAyLjQ5NS0uNzE4IDMuNDk2LS40OCAxLjAwMS0xLjE1MyAxLjc3Ny0yLjAyMiAyLjMyNi0uODcuNTUtMS44NzIuODI0LTMuMDA3LjgyNC0xLjA4MiAwLTIuMDA4LS4yMzktMi43OC0uNzE3LS43NzEtLjQ3OS0xLjM1Mi0xLjE3LTEuNzQzLTIuMDc0djYuOTEybC0uMDA1LjExMmEuNTkzLjU5MyAwIDAxLS4xNC4zNC41MzYuNTM2IDAgMDEtLjQxMy4xNmMtLjM3MyAwLS41NTktLjIwNC0uNTU5LS42MTJWMzYuMzg0bC4wMDYtLjEwMmEuNTY2LjU2NiAwIDAxLjE0LS4zMjMuNTM0LjUzNCAwIDAxLjQxMy0uMTZjLjE3NyAwIC4zMTUuMDU0LjQxMi4xNmEuNjAxLjYwMSAwIDAxLjE0Ni40MjV2Mi4xbC4xMjMtLjI1OWE0LjMxNiA0LjMxNiAwIDAxMS42Mi0xLjc3NGMuNzcyLS40NyAxLjY5OC0uNzA1IDIuNzgtLjcwNXptNDQuNjY4LjAyN2MuMTk2IDAgLjM0Ni4xMDYuNDUzLjMxOWw1LjEzNCAxMS41NjQuMDU0LS4xMzMgNS4wNTUtMTEuMzUxLjA0OS0uMWEuNTAyLjUwMiAwIDAxLjQ1Ni0uMjcyLjUzLjUzIDAgMDEuMzcyLjE0NmMuMTA3LjA5Ny4xNi4yMjYuMTYuMzg1YS44NjguODY4IDAgMDEtLjA1My4yNGwtNy42MzYgMTYuOTA3LS4wNDguMDg1YS40OTIuNDkyIDAgMDEtLjQzLjIzNC41MTYuNTE2IDAgMDEtLjM2LS4xMzMuNDQ0LjQ0NCAwIDAxLS4xNDYtLjM0NWwuMDUzLS4yMTMgMS45MTYtNC4yLTUuNTg3LTEyLjMzNi0uMDI0LS4wNzRhLjUwNS41MDUgMCAwMS4xNTctLjU2NC42MzcuNjM3IDAgMDEuNDI1LS4xNnptLTIxLjczNi0uMDI3YzEuMTM2IDAgMi4xMzguMjc1IDMuMDA3LjgyNC44NjkuNTUgMS41NDMgMS4zMyAyLjAyMiAyLjM0LjQ3OSAxLjAxLjcxOCAyLjE4LjcxOCAzLjUxIDAgMS4zNDYtLjI0IDIuNTI1LS43MTggMy41MzUtLjQ4IDEuMDEtMS4xNTMgMS43OS0yLjAyMiAyLjM0LS44Ny41NDktMS44NzEuODIzLTMuMDA3LjgyMy0xLjEzNSAwLTIuMTM3LS4yNzQtMy4wMDYtLjgyNC0uODY5LS41NS0xLjU0My0xLjMyOS0yLjAyMi0yLjM0LS40NzktMS4wMS0uNzE4LTIuMTg4LS43MTgtMy41MzUgMC0xLjMzLjI0LTIuNDk5LjcxOC0zLjUxLjQ4LTEuMDEgMS4xNTMtMS43OSAyLjAyMi0yLjMzOS44Ny0uNTQ5IDEuODcxLS44MjQgMy4wMDYtLjgyNHptLTcuNzE1LjA1NGwuMTIuMDA0Yy4xNDkuMDEzLjI1NS4wNTEuMzIuMTE1LjA3OS4wOC4xMTkuMi4xMTkuMzU5IDAgLjMwMS0uMTg2LjQ3OS0uNTU5LjUzMmwtLjc5OC4wOC0uMjU1LjAyOWMtMS4xNjguMTYtMi4wNTkuNjI5LTIuNjcyIDEuNDA2YTQuNTExIDQuNTExIDAgMDAtLjk4NCAyLjg3MXY3LjI1OGwtLjAwNi4xMTFhLjU3NC41NzQgMCAwMS0uMTQuMzRjLS4wOTguMTA3LS4yMzUuMTYtLjQxMy4xNi0uMTc3IDAtLjMxNC0uMDUzLS40MTItLjE2LS4wOTgtLjEwNi0uMTQ2LS4yNTYtLjE0Ni0uNDUxVjM2LjQxbC4wMDUtLjExNmMuMDM0LS4zMy4yMTgtLjQ5NS41NTMtLjQ5NS4xNiAwIC4yOTMuMDUzLjQuMTU5LjEwNi4xMDYuMTYuMjU3LjE2LjQ1MnYxLjkxNGwuMTA3LS4yMDRjLjc4Mi0xLjM5NCAyLjEzLTIuMTYgNC4wNDItMi4yOTVsLjM3My0uMDI2aC4xODZ6bTI2LjY1OCAwYy4xNDIgMCAuMjcuMDUzLjM4Ni4xNTkuMTE1LjEwNi4xNzMuMjQuMTczLjM5OSAwIC4xNi0uMDYyLjMxLS4xODcuNDUybC00LjczNSA1LjUzIDQuODY4IDUuNjYyLjA2OC4wODZhLjY0LjY0IDAgMDEuMTE5LjM2NmMwIC4xNi0uMDU0LjI5Mi0uMTYuMzk5YS41MS41MSAwIDAxLS4zNzIuMTZjLS4xNiAwLS4zMS0uMDgtLjQ1My0uMjRsLTQuNzg5LTUuNjEtNC43NjIgNS42MS0uMDk2LjA4NmEuNjEyLjYxMiAwIDAxLS4zODMuMTUzLjUwNy41MDcgMCAwMS0uMzcyLS4xNi41MzcuNTM3IDAgMDEtLjE2LS4zOThjMC0uMTYuMDYyLS4zMS4xODctLjQ1Mmw0Ljg2OC01LjY2My00LjcwOS01LjUzLS4wNjctLjA4NWEuNjQuNjQgMCAwMS0uMTItLjM2NmMwLS4xNi4wNTQtLjI5My4xNi0uMzk5YS41MTQuNTE0IDAgMDEuMzczLS4xNmMuMTYgMCAuMzEuMDguNDUyLjI0bDQuNjMgNS40NzYgNC42MjktNS40NzYuMDg2LS4wODZhLjU0OC41NDggMCAwMS4zNjYtLjE1M3ptLTE4Ljk0MyAxLjAzNmMtMS40MTggMC0yLjUzMS40OTItMy4zMzggMS40NzYtLjgwNy45ODMtMS4yMSAyLjM1Mi0xLjIxIDQuMTA3IDAgMS44MDguMzk0IDMuMTk1IDEuMTgzIDQuMTYuNzkuOTY2IDEuOTAyIDEuNDUgMy4zMzkgMS40NSAxLjQ3MiAwIDIuNjAzLS40ODQgMy4zOTItMS40NS43OS0uOTY1IDEuMTg0LTIuMzUyIDEuMTg0LTQuMTYgMC0xLjc1NS0uNDA0LTMuMTI0LTEuMjEtNC4xMDctLjgwOC0uOTg0LTEuOTItMS40NzYtMy4zNC0xLjQ3NnptLTIyLjkzMyAwYy0xLjQ1NCAwLTIuNTcyLjQ4My0zLjM1MiAxLjQ1LS43OC45NjUtMS4xNyAyLjM0My0xLjE3IDQuMTMzcy4zOSAzLjE3MyAxLjE3IDQuMTQ3Yy43OC45NzUgMS44ODkgMS40NjIgMy4zMjYgMS40NjIgMS40MzYgMCAyLjU1NC0uNDgzIDMuMzUyLTEuNDQ4Ljc5OC0uOTY2IDEuMTk3LTIuMzM1IDEuMTk3LTQuMTA4IDAtMS43NzItLjM5OS0zLjE1NC0xLjE5Ny00LjE0Ny0uNzk4LS45OTItMS45MDctMS40ODktMy4zMjYtMS40ODl6TTEyOS45NzUgMGMuNDQxIDAgLjgyMS4xNDcgMS4xNC40NDEuMjk0LjI2Mi40NTcuNjEuNDkgMS4wNDZsLjAwNi4xNjh2MTQuNTMybDguMzYtNy41MzVjLjI3LS4yMy41NTktLjM0NC44NjYtLjM0NC4zOTMgMCAuNzM2LjE1IDEuMDMxLjQ1My4zMDcuMzAxLjQ2LjY0LjQ2IDEuMDE0IDAgLjI5LS4xMDguNTU3LS4zMjQuODAzbC0uMTE4LjEyLTYuNjg0IDUuODg4IDcuMzEgNy41NzFjLjI3LjI3OC40MDYuNTkyLjQwNi45NDIgMCAuMzg3LS4xNi43My0uNDggMS4wMzNhMS40NzMgMS40NzMgMCAwMS0xLjA2Ny40NTNjLS4zNzYgMC0uNzA1LS4xMy0uOTg3LS4zODlsLS4xMTgtLjExOS04LjY1NS05LjA1N3Y3Ljg5MWMwIC41MTUtLjE3Mi45MjYtLjUxNSAxLjIzMi0uMzMuMjk1LS43MjIuNDQyLTEuMTc2LjQ0Mi0uNDUzIDAtLjgzOS0uMTQxLTEuMTU3LS40MjMtLjI4My0uMjYyLS40NC0uNjItLjQ3Mi0xLjA3NWwtLjAwNi0uMTc2VjEuNjU1YzAtLjUxNS4xNjUtLjkyLjQ5Ni0xLjIxNEExLjc4IDEuNzggMCAwMTEyOS45NzUgMHptLTYuNjUgNy45NzVjLjQ0IDAgLjgyLjE1MyAxLjEzOC40NTguMjk0LjI3MS40NTguNjMzLjQ5IDEuMDg1bC4wMDcuMTc0djE1LjE1N2MwIC41MzQtLjE3Mi45Ni0uNTE1IDEuMjc4LS4zMy4zMDUtLjcyMy40NTgtMS4xNzYuNDU4YTEuNjUgMS42NSAwIDAxLTEuMTU3LS40MzljLS4yODMtLjI3MS0uNDQtLjY0My0uNDcyLTEuMTE1bC0uMDA2LS4xODJWOS42OTJjMC0uNTM0LjE2NS0uOTU0LjQ5Ni0xLjI1OWExLjc0MiAxLjc0MiAwIDAxMS4xOTQtLjQ1OHpNMTE4Ljg1NiAwbC0uMDAxLjAwMi4wNzkuMDA1YTEuMTYzIDEuMTYzIDAgMDEtLjA5NiAyLjMxOWgtMS43MjZjLS41MTUgMC0uOTE3LjA0OS0xLjIwNC4xNDYtLjI4OC4wODQtLjU0Ni4zMTYtLjc3My42My0uMjE2LjMwNC0uMjk0Ljg4LS4zNzggMS40Ni0uMDY0LjUwNy0uMSAxLjE3Ni0uMTA2IDIuMDA4bC0uMDAyLjMydjEuMDg1aDIuOTk0YS45OTguOTk4IDAgMDEwIDEuOTk0aC0yLjk5M3YxNC45NDJjMCAuNDU4LS4xMzUuODMzLS40MDYgMS4xMjZsLS4xMDguMTA2Yy0uMzMuMjk1LS43MjMuNDQyLTEuMTc2LjQ0Mi0uNDUzIDAtLjg0LS4xNDEtMS4xNTgtLjQyMy0uMjgzLS4yNjItLjQ0LS42Mi0uNDcxLTEuMDc1bC0uMDA2LS4xNzZWOS45N2gtMi42NjJhLjk5Ni45OTYgMCAwMTAtMS45OTRoMi42NjJWNS45OTljMC0yLjE3LjQ1NS0zLjcwOCAxLjM2Ni00LjYxNy44NTQtLjg2NCAyLjAxMy0xLjMyMyAzLjQ3OC0xLjM3N2wuMjk3LS4wMDVoMi4zOXpNOTkuMjEzIDcuOTc1YzEuNzMzIDAgMy4zNDQuNDQ3IDQuNTQ0IDEuMjU3Ljk1Mi42NDIgMS43MjYgMS42MzIgMi4wMzggMi42MDguMTguNTYuMjA3Ljc2Ny4yMDkgMS41OCAwIC41MDctLjAxMy44NDgtLjA0IDEuMDA3LS4yODIgMS41OTktLjk1MSAyLjcwNy0yLjExMyAzLjQ5Ni0uOTM0LjYzNS0yLjEwOCAxLjAwNi0zLjY0MyAxLjE1My0uNzcyLjA3My0yLjE4Ni4wNjctMy4xMDEtLjAxNi0uNzc3LS4wNy0xLjczMS0uMTkyLTIuMTM4LS4yNzUtLjM0LS4wNjktMS41MDctLjI2Ny0xLjUxNy0uMjU3LS4wMDQuMDA0LS4wNi4zNTktLjEyMy43ODgtLjEwMi42ODUtLjExNi44NTYtLjExOCAxLjQwM3YuMjgzYy4wMDMuMzE4LjAxOC40MjIuMDcxLjYyNy4yMTIuODI1LjY4IDEuMzc3IDEuNTMgMS44MDQuODM1LjQyIDEuNzEuNjAxIDMuMDM0LjYzLjU4Ni4wMTIuODg2LjAwMyAxLjI1Mi0uMDM2Ljg4OS0uMDk2IDEuMjkzLS4yMDEgMi40NzQtLjY0Mi4yOTQtLjExLjU5NC0uMjEuNjY3LS4yMjIuMTU1LS4wMjYuNDQ2LjAyOC42MTUuMTE2LjMwNi4xNTcuNTYzLjU3OC41NjEuOTE4LS4wMDEuMzk4LS4xMzMuNjM5LS41Mi45NTItLjkyNy43NDktMi4xMSAxLjIwOC0zLjUyMiAxLjM2Ny0uNTA0LjA1Ny0xLjY1My4wNjUtMi4yMDkuMDE2LTEuNTY0LS4xMzgtMi42NS0uNDEtMy42NDEtLjkxMS0uNzc1LS4zOTItMS4zNjUtLjg3Ny0xLjgwNy0xLjQ4NS0uMTA4LS4xNS0uMi0uMjc1LS4yMDQtLjI4YTEuNDk3IDEuNDk3IDAgMDAtLjE2LjE5MiA2LjUzIDYuNTMgMCAwMS0xLjQ5MyAxLjM3NWMtLjguNTI4LTEuOTUuOTMyLTMuMTEyIDEuMDkyLS4zNDcuMDQ4LTEuNDk4LjA4Ny0xLjc5My4wNjEtMi4wMzctLjE3OC0zLjU5NC0uODAyLTQuNzI3LTEuODk1LTEuMTUyLTEuMTEyLTEuNjQ3LTIuNTYyLTEuNDUyLTQuMjU2LjIyNS0xLjk1IDEuMTM3LTMuMzI3IDIuNzM2LTQuMTMgMS4yMzMtLjYyIDIuNDYzLS44NTUgNC40NjUtLjg1NSAxLjQyMyAwIDIuNjE1LjExOCA0LjQzNC40MzkuNDUuMDguODM5LjE0NC44NjUuMTQ1LjAzOCAwIC4wNjgtLjE0Ni4xNS0uNzI3LjE1LTEuMDUxLjE3Ni0xLjQxNC4xMzYtMS44MzYtLjA0OC0uNDktLjExLS43MjMtLjI5Mi0xLjEwMy0uNDcyLS45OC0xLjU5Mi0xLjU4LTMuMzktMS44MTYtLjUxNS0uMDY3LTEuNzAyLS4wNzctMi4yMTctLjAxOC0uODYzLjEtMS4zNDUuMjI2LTIuNDIuNjM1LS42MjguMjM5LS42My4yNC0uODgyLjIyNS0uNDMtLjAyNi0uNzI1LS4yMjQtLjkxNC0uNjE2LS4wNzctLjE2MS0uMDktLjIyOC0uMDktLjQ0NSAwLS4zMjcuMDgzLS41LjM3NC0uNzc3LjY1NC0uNjIgMS43NTMtMS4xNSAyLjg2My0xLjM3Ni43MS0uMTQ2IDEuMDYtLjE3NiAxLjk5Ni0uMTc1Ljk3LjAwMyAxLjU4OS4wNTcgMi40NS4yMiAxLjQzMS4yNyAyLjUxOS43NDcgMy4zMzkgMS40NjQuMjQzLjIxMi42MS42My43NjcuODc1LjA0OC4wNzUuMDk3LjEzNi4xMS4xMzYuMDEyIDAgLjA5Mi0uMDkuMTc2LS4yIDEuMjQyLTEuNjA2IDMuMzMzLTIuNTE2IDUuNzgyLTIuNTE1em0tMjAuODIyIDBjLjQxNSAwIC43MzkuMTUuOTcyLjQ0Ny4yNDYuMjk4LjM2OS42NDUuMzY5IDEuMDQyIDAgLjM3Mi0uMTEuNjk1LS4zMy45NjgtLjIyLjI2LS41MzguMzktLjk1Mi4zOS0xLjc0OCAwLTIuOTQyLjQzNS0zLjkxMyAxLjMwMy0uOTM4Ljg1LTEuNDM3IDEuOTgxLTEuNDU3IDMuMzkxdjkuMzMzYzAgLjUzNC0uMTcxLjk2LS41MTQgMS4yNzgtLjMzLjMwNS0uNzIzLjQ1OC0xLjE3Ni40NThhMS42NSAxLjY1IDAgMDEtMS4xNTctLjQzOWMtLjMwNy0uMjkzLS40NjYtLjcwNC0uNDc3LTEuMjMzbC0uMDAxLTE1LjIyMWMwLS41MzQuMTY1LS45NTQuNDk2LTEuMjU5YTEuNzQyIDEuNzQyIDAgMDExLjE5NC0uNDU4Yy40NDEgMCAuODIuMTUzIDEuMTQuNDU4LjMxNy4yOTMuNDgyLjY5MS40OTUgMS4xOTV2Mi40MDRjLjMyNC0xLjE1NC45NzItMi4xMTUgMS45NDMtMi44ODQuOTg0LS43ODIgMS45OTYtMS4xNzMgMy4zNjgtMS4xNzN6TTYxLjI1IDIuNjU4Yy40MDggMCAuNzYuMTMyIDEuMDU4LjM5Ni4zMDkuMjc2LjQ2My42NDQuNDYzIDEuMTA2djMuODE0bDMuNjYuMDAxYy41MSAwIC45MzIuMzg1Ljk5Ljg4MWwuMDA2LjExNmEuOTk2Ljk5NiAwIDAxLS44OC45OWwtLjExNy4wMDdoLTMuNjU5djkuNzI2bC4wMDEuMzJjLjAwOC44MzEuMDQzIDEuNS4xMDcgMi4wMDcuMDg0LjU4MS4xNjIgMS4xNTcuMzc4IDEuNDYuMjI3LjMxNS40ODUuNTQ2Ljc3Mi42MzEuMjQ3LjA4My41NzcuMTMuOTkxLjE0MmwuMjE0LjAwM2gxLjcyNmExLjE2NSAxLjE2NSAwIDAxLjIxOSAyLjNsLS4xMjMuMDItLjA4LjAwNS4wMDIuMDAyaC0yLjM5MWwtLjI5Ny0uMDA2Yy0xLjQ2NS0uMDU0LTIuNjI0LS41MTMtMy40NzgtMS4zNzYtLjg2My0uODYxLTEuMzE3LTIuMjg4LTEuMzYzLTQuMjhsLS4wMDMtLjMzNy0uMDAxLTEwLjYxOC0yLjMyOC4wMDFhLjk5Ny45OTcgMCAwMS0uOTktLjg4bC0uMDA3LS4xMTdjMC0uNTExLjM4NS0uOTMyLjg4LS45OWwuMTE3LS4wMDdoMi4zOTdsLjI2NC0zLjgxNWMwLS40ODQuMTQzLS44NTguNDMtMS4xMjJhMS41MiAxLjUyIDAgMDExLjA0Mi0uMzh6bTI0Ljk5MiAxNS4yMTdjLTEuMjM4LjA3LTEuNzQzLjE4MS0yLjQ4Ni41NDQtLjM4MS4xODctLjY0NC4zODktLjg1Mi42NTVhMy4xNzkgMy4xNzkgMCAwMC0uNjA0IDEuMjczYy0uMDkxLjM3Mi0uMSAxLjM0Ny0uMDE2IDEuNjYxLjE0My41My4zMTMuODI5LjY5NCAxLjIyNS41MjIuNTQzIDEuMjEuOTA1IDIuMDY0IDEuMDg2LjQzNi4wOTMuNDIzLjA5MiAxLjE1NC4wOC41My0uMDA3LjcyOS0uMDIzLjk0Ni0uMDcyLjkyLS4yMDkgMS43NDItLjY4IDIuMzM4LTEuMzQuNTQzLS42MDQuOTg5LTEuNTA3IDEuMjM0LTIuNTAzLjEzOC0uNTYxLjM2OC0yLjEyNC4zMTctMi4xNTZhMS4yMSAxLjIxIDAgMDAtLjI3LS4wNDUgMzEuMjYyIDMxLjI2MiAwIDAxLS44MTMtLjA5OGMtMS44OTMtLjI1LTMuMDU1LS4zNDgtMy43MDYtLjMxem0xMS41NDktNy40OTdjLS42NzUuMTI3LTEuMjQ1LjM1OC0xLjc0Ny43MDctLjkzLjY0Ny0xLjU3IDEuNjItMS45MjcgMi45MjgtLjE0LjUxNC0uMTc4LjcxMS0uMzAzIDEuNTk2bC0uMTE1LjgxNy4xNTUuMDE4Yy4yMDcuMDIzLjUzLjA2Mi44NzguMTA1bC41MzEuMDY3Yy4yNjQuMDMzLjUxNi4wNjYuNzIuMDkzLjM4NC4wNS44NTYuMTA1IDEuMDQ4LjEyLjQ4Ni4wNCAxLjMxLjA0MiAxLjg3My4wMDhsLjIyNC0uMDE2Yy43NjctLjA3IDEuMjM4LS4xOTIgMS44MTgtLjQ3Mi40ODItLjIzMy43NjItLjQ3MSAxLjAyNy0uODczLjM5LS41OTIuNTQzLTEuMTUyLjUzOS0xLjk4NC0uMDAzLS41OTMtLjA1Mi0uODQtLjI1MS0xLjI2Ni0uNDQ1LS45NTItMS40OS0xLjYzMy0yLjg2LTEuODY2LS4zNDItLjA1OC0xLjI2LS4wNDctMS42MS4wMTh6TTEyMy4zMTQgMGMuNTkxIDAgMS4wNjkuMTYzIDEuNDMyLjQ5LjM2NC4zMTUuNTQ2LjczNi41NDYgMS4yNjMgMCAuNTE1LS4xODIuOTM2LS41NDYgMS4yNjMtLjM2My4zMTUtLjg0Ny40NzMtMS40NS40NzMtLjYwMiAwLTEuMDg1LS4xNTgtMS40NDktLjQ3My0uMzY0LS4zMjctLjU0Ni0uNzQ4LS41NDYtMS4yNjMgMC0uNTE2LjE4Mi0uOTM3LjU0Ni0xLjI2NC4zNzUtLjMyNi44NjQtLjQ4OSAxLjQ2Ny0uNDg5eiIgZmlsbD0iIzAwMCIvPjxwYXRoIGQ9Ik0yMy4wNzEgNS44MTVjMi4wOTMgMCAzLjk1MyAxLjQ3NiAzLjk1MyAzLjI5NHMtMS43NzEgMy4yOTQtMy45NTMgMy4yOTRjLS4yNSAwLS41NzUtLjA0LS45NzctLjEyMmExLjMxMyAxLjMxMyAwIDAwLS45MTQuMTQ2bC0xNC4xNzIgOC4wNmEuNjYuNjYgMCAwMC4wMDMgMS4xNDhsMTUuMzYzIDguNjI0Yy4zOTkuMjI0Ljg4NS4yMjUgMS4yODUuMDAzbDE1LjQ0Ni04LjU4NmEuNjU5LjY1OSAwIDAwLjAwNi0xLjE0OWwtNC44Mi0yLjczNWMtLjQtLjIyNy0uODg4LS4yMy0xLjI5LS4wMDdsLTUuMDg3IDIuODIyYS40NS40NSAwIDAwLS4yMjkuMzQ0bC0uMDAyLjA0OGMwIDEuODE5LTEuNzcxIDMuMjk1LTMuOTUzIDMuMjk1cy0zLjk1My0xLjQ3Ni0zLjk1My0zLjI5NWMwLTEuODE4IDEuNzcxLTMuMjk0IDMuOTUzLTMuMjk0LjA4MSAwIC4xNzQuMDA1LjI4LjAxM2wuMTY2LjAxNy4xODUuMDIzYy4yODEuMDM4LjU2Ny0uMDE2LjgxNi0uMTUzbDcuNTI0LTQuMTczYTEuOTc1IDEuOTc1IDAgMDExLjg1NS0uMDMzbC4wOC4wNDIgMTAuNTA2IDUuOTY1YzEuMzE3Ljc0NyAxLjMzMiAyLjYyOC4wNTUgMy40MDVsLS4wNy4wNDEtNy4wMyAzLjkwN2EuNjYuNjYgMCAwMC4wMTUgMS4xNTlsNi45NiAzLjY2MWMxLjM4My43MjcgMS40MTYgMi42OTQuMDYgMy40NjdMMjMuOTkgNDcuMDk0YTEuOTc4IDEuOTc4IDAgMDEtMS45NTkgMEwxLjAxIDM1LjA5NWMtMS4zNTgtLjc3NS0xLjMyLTIuNzQ2LjA2Ni0zLjQ2OWw3LjAzNy0zLjY3MWEuNjU5LjY1OSAwIDAwLjAxOC0xLjE1OWwtNy4xMjItMy45OThjLTEuMzE3LS43NC0xLjM0Ni0yLjYxMy0uMDgtMy40bC4wNy0uMDQyIDE3LjQ5Mi05Ljk0N2ExLjMyIDEuMzIgMCAwMC41OTItLjcwOWwuMDIyLS4wN2MuNjE1LTEuODI4IDIuMDExLTIuODE1IDMuOTY2LTIuODE1em05Ljc2IDI0LjI2N2wtOC42MzcgNC45NjYtLjA4LjA0NGExLjk2OCAxLjk2OCAwIDAxLTEuODY4LS4wMzVsLTguNjEtNC44NTRhMS4zMTEgMS4zMTEgMCAwMC0xLjI1My0uMDJMNy40MiAzMi43NzhhLjY2LjY2IDAgMDAtLjAyMSAxLjE1N2wxNS4xNjMgOC42NzZjLjQwNC4yMy44OTkuMjMxIDEuMzAzIDBsMTUuMjk0LTguNzM4YS42NTguNjU4IDAgMDAtLjAxOS0xLjE1NWwtNS4wNDMtMi42NmMtLjM5OC0uMjEtLjg3NS0uMi0xLjI2Ni4wMjR6IiBmaWxsPSIjMjRBMUMxIi8+PC9nPjwvc3ZnPg==;" vertex="1" parent="9pdm4Na_A3fy9SokRHZq-4">
          <mxGeometry x="270" y="300" width="110" height="40" as="geometry" />
        </mxCell>
        <mxCell id="9pdm4Na_A3fy9SokRHZq-27" value="" style="shape=image;aspect=fixed;image=data:image/png,iVBORw0KGgoAAAANSUhEUgAAAnQAAAIwCAYAAAAPoPa1AAAABHNCSVQICAgIfAhkiAAAAGJ6VFh0UmF3IHByb2ZpbGUgdHlwZSBBUFAxAAB4nFXIsQ2AMAwAwd5TeIR3HBwyDkIBRUKAsn9BAQ1XnuztbKOveo9r60cTVVVVz5JrrmkBZl4GbhgJKF8t/ExEDQ8rHgYgD0i2FMl6UPBzAAAgAElEQVR4nOzdeXwcdf0/8PdnZvbM7uZOm94XN/SgyKWIfBURBEQ5FOUQFVARFOUnR4u1XB7gwVcO9esJKMghyKEcPSiVQwRKaSlXk7RJc2eTzd47x+fz+yNtmmPTJJvd/czuvp6PR6C7MzvzSppsXv3MzGcYQUk67843Fima+JLTpR7hdDn3c3mc09xep0/TVEXVVEVVGQki4lyQaVhCT5ncNMxUKpaK6IbZbuhWo66bryUi8ccevfr4d2R/PgAAAKWMyQ4A+XPe3a9+qczvvay8yre0vLLMQ0QkSBCJgeViz4picMng471/FqPWjUdTVjQS646HU2/EYsm/d/Ul/7Jh9QnJHH86AAAAsBsKXZE795evTCur9NxRU1dxWqDS69rd1QZlo9CN3I5umCLcE+0KhxIbYtHkbX+/6tj/ZvnTAgAAgCFQ6IrUube9VhOY7npg+uya/3G5HWxYEctxoRu5nb5gNB7ui76UDBu3/u27Rz2bjc8PAAAA9kKhK0Jf+cObt8+aV3eZp8ypEu3pVfIK3dDHod5orK+r/+lwOLXi8as/8l7mnyUAAADsgUJXRM791WsH1s8uX187o3L68NJGtil0e/7MOadgR397X2/0N5098Zs3rD7BnOSnCwAAALuh0BWJC3/z+mXzD5jxv26vQxld2sh2hW7PA0FE8WjSDHaEngv1Ja7EqB0AAMDkodAVga/9cdOfFhw8+0KFMRosUAVU6PbgJqfutr53+/tjVz707WOeHvcTBwAAACJCoSt4X7/vrX/OP2DmyXuLWuEWuoHHA8/0dvZ39PWEb/jbFcfcPfZnDwAAAEQodAXt6/dseXr+QTNOIhpa1Iqj0O35X6gvGulu6/v5Q98+ejURG7Y6AAAADEChK1CX3rvloQUHzjhrz+NiLXR7lvcHI/G+YOS2+7/xoR8SQ7EDAAAYCoWuAH3l95tuOmDxnBVDnyv2QkdiYEmkPx4Ptvf9+IHLj76RAAAAgIhQ6ArOBXe+dsL+S+esdbo0JsSwelQShW6PUDDa39Meuv7hK4/5FQEAAJQ4FLoCcuEfm9wzZig9ldX+MiKiUi50e14b7Ap1h7qjX3/4ymP+TgAAACVKkR0AJs7jiD60p8zBgOq68tqFh8x85Ct/ePPdz/7s30tk5wEAAJABI3QF4ot3vrr0sCPmb1JVdfA5jNANX9E0Lera1buuLxL+/JNXndBDAAAAJQIjdAWidlrgr6qmjr9iCVM1lern1f7PgoWzO865/ZW7aZXA9zcAAJQEjNAVgPPu+u+xi49c8CIxNnx0DSN0w1YculwIQeFgNNzdHbnk7985+m8EAABQxDCCUQAqqst+yRi692QFqn2BBQfUP3Dh7zZt/dwvNi6QnQcAACBX0BJs7sJfbKrY/6iZvU6XxkaNrmGEbtiKI0fohkqlTNHZ0nPP37qP/AqtZpwAAACKCEbobE4rV37gdGko3lPkdGps9sLpF16y/7b+z9228azxXwEAAFA4UBRs7qp/NLROm1U5gyjN6BpG6IatuK8RuqEPBefU0dL7am9v/NR/XXdcNwEAABQ4jNDZ2Jf+9z+B6mnlM2TnKDaMMZo+p/rIhQdMazvzly9fJzsPAADAVKHQ2ZjT47xYc2CqklxxeZzavP3rb/7yH95sOvWWlw6UnQcAACBTKHQ25vW7zpSdoRRUT6+YN++gum1n/fLl38rOAgAAkAkUOhsr83sOkJ2hVDidGpuz3/SLL/rTW11n/PzlI2XnAQAAmAxcFGFTq1YJxX1yj6k5NDbs9H9cFDFiW5O/KGLUtgaXDzxrmpZo39Fz30O9R30ZU5wAAEAhwAidTTXWvv4hhxPTlcigaSqbtXDa+Rct2NJ12k/+fbTsPAAAAONBobMpza0eJztDqauo9lfPO2D6S+f88j/34r6wAABgZ/glZVMOp7pcdgYYGK2bubDuvAvnvdV1xo824u8EAABsCYXOphyaOkt2BtirssZfPfOA6f89+xcv3iU7CwAAwEgodDalObUa2RlgOIdDZTMX1X/jgt9t2nXKLRv3l50HAABgDxQ6m3I4tXLZGSC9qrrymXMX1r3z2dte/IHsLAAAAEQodLalaapbdgYYm9PjUObsX7/63Dtf3Xr8qvUYTQUAAKlQ6GxKUZlDdgYYX93s6kP227+29dM/euFLsrMAAEDpQqGzKUVVcBPXAlHm9zjnHzjjvrNvf+Vfyy95DUUcAADyDoUOIAsUhVH9vNpPHXaM1nXyTesxGTEAAOQVCh1AFgWq/BXzDpjx0md/9uLtsrMAAEDpQKGzq5E3I4WC4XBqbNbC6Vd88e7/Npx08wv1svMAAEDxQ6GzKcvkuuwMMDXV9ZUL5syt2vmZn2w8X3YWAAAobih0NmUYVkp2Bpg6t8/tmLXf9HvO/PlLj+N+sAAAkCv4BWNTnHMUuiKhKIzq59ed9qVZmzpOuXHDQbLzAABA8UGhsynDsPpkZ4DsqqwJ1M5aWLv1tB+/cJXsLAAAUFxQ6GzKMqxO2Rkg+5wepzJn/xm3nnX7Sy8ev2o97gYCAABZgUJnU5ZudsjOALnBGNG02bXHzp1T2XXKDeuOkp0HAAAKHwqdTZkmf1d2Bsgtf2WZf9b+9S+f8dMXb5SdBQAAChsKnU2lTOs12Rkg9xxOjc1cVLfy83e8+vrZd673yc4DAACFCYXOplKW52XZGSB/qusrD/d4qzpOv2Xjh2VnAQCAwoNCZ1MPXXZINBZJmrJzQP74At6yaQtqN55x679vkZ0FAAAKCwqdjcUiiZDsDJBfDofKZiyou/acX/3n9RNv3VwmOw8AABQGFDobS8T0ZtkZQI7q+srDp1eLjpNvWn+07CwAAGB/KHQ2lkrom2VnAHl8Aa9v5sJpL53+0424ChYAAPYJhc7G9JS+RnYGkMvh0NjMBdNWnvW///nvqate88rOAwAA9oRCZ2M9RI9xi8uOATZQM6PyiMrZWgcmIgYAgHRQ6GzsyUuPiPf3xWKyc4A9lJV7/fULp7182o83/kB2FgAAsBcUOpuLhhM7ZWcA+3A4NTZzYd3qM29/6cWDV73tlJ0HAADsAYXO5uLx1AuyM4D91MyoPnbpjFTHyTdsOEx2FgAAkA+Fzub0RPJ+2RnAnvyVZZXT51W/eerNGy6TnQUAAORisgPA+FZvbLe8XpciiIjE3ueF2PtADPnPqPUGVh6x3p5lYvCxGP6CYY/3/lmkWTeD7ex+MCTK7sfDNzJ0v6PXHb7i0OVDvzZDYqff1uByMcb6wz6L0Z/HyPXH2954+UiMXn/4f4b9PQohqLs1+NSj/ceeTqsZrqIBAChBGKErAP3dkRbZGcC+GGNUO6v605+f9tquk1atnyc7DwAA5B8KXQGIRhLPy84A9lde7a+fPq/q/VNuev5c2VkAACC/UOgKQCJq/E52BigMLq/LMWPhtL+e9tONf5adBQAA8gfn0BWIH6xv1X0BjwPn0I3cFs6h2/0KGvlJ9Xb2N3QH40dvWH1CDwEAQFHDCF2B6OsKb5OdAQpL5bTyhbNnV7Z8avX6k2RnAQCA3EKhKxDRSOJh2Rmg8Hh8bnf9wrp/nXrLCz+TnQUAAHIHha5A8Ai7wzIt2TGgAGmawuoX1H73s798edOJVz1bJjsPAABkHwpdgfjzlctCPZ39HbJzQOGqnl6xtHq/6vaTVq09UnYWAADILhS6AtLfG39KdgYobL6A118/v+7lU25af43sLAAAkD0odAUkEtZ/xPnI6zMBJkdzacqMBdN/dMZtL64/ftV6TXYeAACYOhS6AvK3K45oCHb198rOAUWAEVXPrPpYXW1Zx8dXrdlfdhwAAJgaFLoCEwpGnpGdAYpHoMpfXT+3dtvJN6/7iuwsAACQORS6ApOKpH6Iw66QTS63Q62fO+33p/34BUyNAwBQoHCniAJ01RMN3XX1lTW4U8TwFXGniMm+ZvTyvmB/a0tH+JjXbj6phQAAoGBghK4A9fdEHpGdAYpTZXX5zJnTyj846ronvyA7CwAATBwKXQGK9idXYZJhyJXq6oBr9pzpfz1qxT9/JzsLAABMDA65FqjvPPJ+Q/2c6gV7HuOQKw65ZuOQ69A/pHSDGhpat8WC/CNb7j61jwAAwLYwQleg+npjd8nOAMXN5XTQAQfOOTgw3bnzsMsf+YTsPAAAMDYUugK1Y1fo9ng0acrOAcVNYYz2XzTTXz294pnF33n0F7LzAABAejjkWsC+cd/WF+YdUH8cEQ654pBr9g+5Dm5393NtHb3U0dG72YinPrLtrnOiBAAAtoERugIWCSeuGVkMAHJlxvQqmj9v+hJHwN12yLce+bDsPAAAsBcKXQG775sfeqmrPdQpOweUjooKHx24cJbfUe7acOi3H7lRdh4AABiAQlfg+roj/yc7A5QWj8dFh+43R3UFPCsP+96jry2+6tky2ZkAAEodCl2Bi7Y4b4xHU5iUDvJKU1U6dL/ZVOZ3LydHsuOwyx85WnYmAIBShkJX4B5afYjesSu4TnYOKD2MMTpw4WyqKPP6lHLXSzgECwAgDwpdEQiHUldYFpcdA0rU/LnTqS7gY1q5e+Vh33v0P/WXPOGVnQkAoNSg0BWB+y8/4t2OluB22TmgdM2or6FZVZWkeh1H1laJzoMuf/g42ZkAAEoJCl2R6A9GfyA7A5S26qoALayfRoqm+Jzl7g2Hfvvhn8rOBABQKjCxcBH5/pMNoaq68nJMLIyJhSf2mjTL0213yHMj/27TvS6Z0un9nW0kVEZWVH8rFjE+2vjbc/oJAAByBiN0RaS7rf922RkA3C4nHbRwNqkWkepzLvZVudoPvezhU2TnAgAoZih0RaSxtf/GSH9cl50DQFNVOni/2eTkjBSX5tGq3E8d+u2//0l2LgCAYoVDrkXm4j++ec+CQ2adj0OuOOQq65Dr0CVCEDU0tVKcD0yVyONGi5GwjnvnzjN3EgAAZA1G6IpMV0hckYzrmMMEbIER0aL5M6nc4SIiIsXrmO0IOBoO+dYj35SbDACguGCErghdcu9b/5y//4yT9zzGCB1G6NK/Js3ydNsd8txkR+iGPtfa1kPBRHzwsRVJbUiY7pO2/+qUFAEAwJRghK4IRYLxi4yUObKzAEg1Y0YNTfP5B0ue6ncd7/UYXYd865EPy00GAFD4UOiK0P3fObqztblro+wcACPV1VXSzMqKwSFJxa0FtHLXxkOvePgOydEAAAoaCl2RCoWSF5uGJTsGwChVVQGaU1tNxAdKHVMZ08o9lx32vUd3HHDpo/PkpgMAKEwodEXqb9868v22Hd2vyM4BkE55wEfz62uJrL1nBqhe51xXpbr90G/9/SqJ0QAAChIKXRHrDcUvxCgd2FVZmYcWzZ5ObEipUxyqqlW6bl185d9fX3DJg+US4wEAFBQUuiKGUTqwO7fbSfvNrR9W6oiIFJ/zcF+lq/PQKx45X1I0AICCgkJX5DBKB3bndDpo/3kzSBlZ6pyqSwu47ll85d9fOPibD/okxQMAKAiYh64EXPqXLS/OXTj9WCLMQ5d2W4PLMQ8djVone/PQpc08ZKFpWfR+YytxlQ1bkRER160kj6TO33LXOQ8TgCxnP6gelupZxJjYn5g1ixibyYSoIkFVROQlIg8J4WZsYLBEELNIiAQxFhVCJIgpIWKslRg1cUvbbpDjvfce/2pE7icFxQKFrgR88Y435h5wWH2Tw6UxFLo02xpcjkJHo9bJX6ETRMS5oPcbWshS9y5ie14niKyYvq477jit/ben7Z2hGCDLlpxxx/5kmZ9WhHksE+JAJvh0xo2AKrhz1A/nFHFFtTjTIkJR2wRTN3GmPK0Jz99ff/JSfI/DpKDQlYiL//zW0/MPqD8JhS7NtgaXo9DRqHXyW+iIiLgQ9EHDLjKVgWfYiNdx3UzwqHHxlrvO/gsBTNHiz95+qGrwc5iwjmfcPEjhRrUiuNzTkRgjS3EELc3xKiftrs1PfOdJqXmgIKDQlYhzb3utZr/D6ztdXqeCQodCN+bydNsd8lw+Ch0RkeCC3m9sIVMZXej24FH9VSNinrzt9+f0jl4KkN7S0355oiL4ucSN4xTLnKsK0yE703gsRdW56npZMO3aTU9e+bLsPGBPKHQl5Kt/3Py3BQfNOAeFDoVuzOXptjvkuXwVOhJEQnD6oKmVTDb6cxtcTeeGGdOv2XrnWT9PvwaUuiWn3XGIwlKXMdM8UeXGfIUPPaBfeEzV1W05PDe/+fi3b5edBewFha6EnPqb17yHza8L+fyewX+RotANXY5CR6PWkVfo9qzR0LiL9LEa3W5WzNhuxK1T3vnNWR/sc0Uofmc/qC5J7LpAFeZFjBvLVcv0yo6UC5bmjFia++o3H7/ybtlZwB5Q6ErMl//vjdv2O3T29/Y8RqEbuhyFjkatI7fQ7flvQ8Mu0tk+Sp0gElxwK6r/cUvV5y6h1YyPvTIUm4PP/s0ct578PhnJkxQztUAhUTJTcpmau0Uo3tM2PXn5ZtlZQC4UuhKzapVQ4subQhW1fj8RCt3w5Sh0NGodexQ6onFK3ZCnedIM87jxtS13n/1Q+pWhGBz2pfsO0BL91zM9/gnNSE7L9tWnhYSTIixX2R2bnrjyCtlZQB4UuhL0pV+/+s2Dl8y/kwiFbvhyFDoatY59Ch2J3Ydf05W6NE9ZsdRbhkGnv3PnmTtHL4VCtPSiBw9myfAqFoucoOrxWsYxafpQpuZ+L1lWdsS2hy6Lys4C+YdCV6KuePjd1mkzq2eg0A1djkJHo9axV6EjItreuIuMkaUuTaEjIuKW4FY8de/Wyuqv0eoTzPRrgZ0d+rW/LlYtfr0a7T9eiUdqFVOXHcnWLNUZSSllR2598vJ3ZWeB/EKhK1Hn3vXf4w9ePOd5pjIUusHlKHQ0ah37FTpBAyN1w0rdGIVuD25YSStqrN5611k/3veaYAdLL3rwYKaJlczUT1L6e6uUeHj0DxGMyVK0ZMrhP27r45e/JjsL5A8KXQm79N6tr8xeVHcUCh0K3bBFBVDohBgodXsmHx6v0O1Zx0qaPTxhXrz17rMem8ArII8OueSBhQ5SblBV5WQWj1RSbw8pekJ2rIJlqZqeUvxLMFJXOlDoStjZP3955oFLZze73M7d9x3cDYUOhW7odoc8Z5dCR0QkBKeGxlYyFRr1uac1ZENW3HhPpMSXt9x95isTeCXkyCGXPLBQI3a9pqifVh1KDe8NEgsFieGwalZYqhaPKM657z95VY/sLJB7KHQl7qI/bLpn4YEzzydCoUOhG/Yp7d3ukOfsVOiIBAkuaHtTK1kTeSdLsyGe0N+2EuLLW39zFg5N5cmSC++fpzjVlaSx0x0OrZaEIB4MEgv1ELNwmmO2mZq79Y2nonOIVmMqnyKHQlfijl+1XjvyiLn95dU+LwodCh2NWsfehY4EEeeCtjfuIq6O83aWLigRMSHITJhbREpcghG73DjkkgcWOoVyLWnsdM2h1RLRwM9hsIdYXw/hatXcMp3eJ9944nunyc4BuYVCB3T+r1+9+IDF836LQodCR6PWsX+hIyKyuKCG8UrdWIVuzx84EU/oH5i6+D7OsZu6JRc/fAhj1jWqqn5Kcao1RDT4ped9faQEu4hZhsSEpSXlKj9v8+NX/EV2DsgdFDogIqJv3r/t/fq5NfsREQrdqPVR6Oxe6AQRWZZFDU1tJMYqdeMVuiFPWwkzyA3jzi01tTdiupOJO+yrD3xc1di3VVX5qOLQykcuF+EwUXcnKWZKRrySZjEtFXXU1b73+FcjsrNAbqDQARERff72/x66/5KZbzmdGkOhQ6Ebtt0hz9m50BERGYZJTTvb05e6SRS6wacMbnDdfMZKiv+39bdn4WrBERZd/k9XWSryNUVRLmCaslRVFWe69UQ8TtTZjqtWJTOcZWs2Pf7dE2XngNxAoYNBX/3Dm4/MO3DG51DoUOiGbXfIc3YvdEREqZROO3Z1Eikj3t4yKHRDX2ulzA5umA8xU73prV9/rmsfaxe1xZfcf5RC2qVMVT6haMosRWV7v9Ajv3FNi0RHGymx/jyntBe/z01HL19I+82vo4pyL8UTOrV2hOj1zTuocWd3/oIwRgktcMyWJ67AuaJFCIUOBl34x/Xu2rp5veUVZR4UujFypfs8Rq4/3vbGy4dCN6VCR0SUiKeoub1reKmbSqEbulwIslJWqzDMfwkubtty9znvjfPKgrbk0vvnkVC+oqjq6UxTDlRVxTXmyoPfuIJ4T5BYbzcxUboXV1ZVltHXLziePv2JxeTQ1LTrbH23le7803p6fXN+7lBnau5tm5686pC87AzyCoUOhjnvrv9edMCSuX9AoRsjV7rPY+T6421vvHwodFMudCSIYrEE7erqIdozgJStQjcCT5lRblqbyOKPxFXfH7f/6pTwOFuytcWXPHA4Y+qXmcJOUFRlkepQ3IMLx/0aCeKxGFFHG5X6LbqWL55LP15xJpUHPBNa/96HX6E7/rB21M9+9jFKun2f2PLYt9fmek+QXyh0MMo3/vL21hnzag5BoUuTK93nMXL98bY3Xj4UuqwUOiKicDhK7cHQwDtdjgrd3uVioNDoPMQta5vgfI2pKw++839nvT3OK6U59BsPL1Y4P4Mp7DhVUQ4hhdUpmjI4lDTqF8S+vgaWRbwNh1eJiJYdOofu+NEXxxyVG8vDT75OP73z6Ryl2svSXA1vPPn/FuV8R5BXKHQwyhfveGnugoNmNzp330EChQ6FrlALnSBBvcEw9UQi+Sl06Z62uCkMHhQm30FCvGmZ9B9OYu22357TPM4Ws2LWlQ96KuPqhxTGj2aMjmDE9ieNZjNVrVAUpgwPO/y1Ey10IhQi6mrHfHJEVB7w0N9+fSlVVZZl9Prrf/oYPbM+9/8G0N2BkzY/dsWzOd8R5A0KHaR14f+9fsfCg2ddRkQodCh0BV3oiIg6O3upP56gdGvnutCNtX3OBRcWT5DFI4KLIAnqFEK0E1faBbO6OKdeRbAwCd7HGEsOfy15FCYCpJBTMJquClYvFFZHRHWMUTUxpY4prIKpzKeoijb6cxirmY2RfayXmSbx1l2kJKLpt1eCvnvpifSFM47M+PXBviid8eU7KaXndrYcS3M1v/Hk/5ub051AXqHQwZi+/ff3uqunVdSg0KHQFXqhIyJqbemimGmMWltWoZvY9tP9pY6x/UntY+qFjvf2EuvpKOmLHkZyOTV65v4ryetJO3vLhP3g1n/Q0+u3ZinV2FLOwOlv/eOKJ3K+I8gLZfxVoFTt7Or/QkI3x/sVAVAQZs6qIxfDW96UmRbxnTtI6W4nJgQN1D58EDE6/LC5Uy5zRETHHbVfXvJqVuqOKYcF28C7G4zpsa8fubapsRP/eoOiMXduPWkCByYyJcJhEk0fkJKMyY5iS4vm12VlOwvn1mZlO+NRLX3O0tN/dXZedgY5h0IH+9Te3H9mS3tfQU/DADDUvHkzSMG5+5MjBPHWVmLtLbjwYR/cLkdWtuPJwijfRKk8eVfedgY5hUIH+7Rh9QlmW1vflxMp3EQbigNjjObOrSeycDbBRIh4nETDdlIiIdlRbM80s1N2s7WdiVAsvWbJZ355dd52CDmDQgfjeurbxzz6QWPXc7JzAGSLpqk0e8Y0Io5Sty+8J0iseQexEp8keKJ27ApmZTtNzdnZzkSpRmr18lN/483rTiHrUOhgQjYn/Kc1t+LQKxQPt8dJ06oqxr8ytBRxTqK5mZSeDsIXaOLe2NJMljX1q35ffbMpC2kmThWmy1LiD+Z1p5B1KHQwIduv2C/V3Nl3Xjiewrs7FI1AuY8qyzKbALZYiWSSqLFhYG45xvAxiY/+SJLWvTi1W/smkgY98/y2vGd3WMlPL/3sHSdm6dsIJEChgwl77opjnnh/e/vjaHRQTKprK8ir5e8kdDsTvb2kNDcRs3DObKZ+fe8LpBuZnwN3z8MvU38kMf6K2SYEKWb8kYPPfhA/DAUKhQ4m5Ymuoz73TmNnj+wcANlUP7OWHKX8digE8V27iHV3kNg98TY+Mvtobuuln9z1TAZ/CUT/3byT/vjgy9KyK5bpd+qtL2QUHqQr4XcwyMhqxpvb+z/T2h3G9PBQVGbPnU5KKX5XGwbxpiZSojhFNlsef3Yz/ew3zxEf4+4h6fxnUxN9/+ZHsnIO3lRoRuKoxWf84m9SQ0BGVNkBoPDsWvPHlsDRX5heV+3/kEPFtxAUB8YY+f1l1B+KDJxXlK3tZm1L2d++iMeJmptJwVWsWbf1vTZ6ddMOOnDhdKqp8o25XjSWorvvfYF+evezOb9/60SplnlI3UGnfrTjvWfukZ0FJg5TpkPGPnHXq9s/fOichYyIcC/XSWxvvHyEe7nua/sjv4dGbHbEuqNCjdiPGPVcIpaktq6e0aVuvMGWAruXK+/tJaW7c8zckB2MES07dA4dd+QiWjSvjqoryyie0KmlvY9e37yT1r/8PsXiKdkx0zJVV4NQlCM2/+NKTEJYAFDoIGMHr3puzoI5te8fsd90FwrdJLY3Xj4UOqmFjoior6efeqPRtNscUwEVOt7WRkoYv6NhfFxR47rDe8bWR7+FuUhtDsfLIGPdG+7tLz/23IiqqZ+q9LtlxwHIGo/HTalYiows3ObKVodcOSe+s5mUWCRXcaDIMCEcGjfOrz34tIWd7x31D6INGNK1KYzQwZQd/bN/bzzyoJkfqSwbKHUYocMIXaGP0O15YueONjLZWDsZ+Rqbj9AZBonmZmKGPQ/vgf1ZqjOoM+dZb//j8udlZ4HRcJUrTFl72Djx9aauPt0sxUsEoZjNnltPrAju+SoSCRJNTShzMCWqpVd7zNj6JZ/5xXMHnP57v+w8MBwKHUzZztUnJCNd4dNf3N5eBL/6APZijNGMmbUFfc9X0R8m1ryTGLfHFZRQ6AQ5zOQnykSwZ/Fnf3WV7DSwF86hg6zo3HBvc893dzAAACAASURBVOUxX6zo181jZu7jEn2AQqNpKinEKJHKbGoPmefQ8WAvKZ3tNP7xXoDJYUKoqqV/su6gT19cc9BpL3e9+89dsjOVOpxDB1m1/BcvbptfW37QwbOrcQ4dzqEr+HPohi5t39VNCXMft8Sy2Tl0vLOblD7c1AXygZHlcK9VTPfprz95aVx2mlKFQ66QVWZIP7Y5Ek80d2PWeSgu9bNqC+ZOEry1HWUO8kiQaiQ+zlmkZ/EZd54rO02pQqGDrNq8+oSQ3hX5zLb+mOiNJGXHAciq2bOn2ft8OiGIN7eQEsEcc5B/Kjc9TiP61yVn/O9fZWcpRTjkCjmx7Ob1/+ucVn75h2dVUZnbOfAkDrlOLB8OudrykOueP0YjCeoK9o1+95R9yHXPHHOpxDg7Asg9U3W/qztnLNn20Dm4r1yeoNBBziy/7d/vOMs9B350/jRyagoK3UTzodDZutAJIurp7KVIcsQItMxCZ3Gydu4kRceoONiHpThbdZfrwG0PXRYdf22YKhxyhZzRe8Sxhmkl/93YQRYvkJOPACagZloVacIm/x42LeJNO1DmwHZUrs90plLvLl/+G4fsLKUAhQ5yZsuPj+vTu/rP0J2a+PcHHeMOUAAUkhl2OJ/ONIk37SBm6jQwVocPfNjrQ+XGTHNWYg1BzmEeOsipzufvbZj2oc9Poxr/h9o7QjS72k9MdiiALFAURk5No1g8Sfv6ps7Z97thkNixk5iFCYPB3hRhza095LNbOt/95zuysxQzjNBBzm1accI3zc7wuwmPk175oF12HICsKfN7yet05n2/QtdR5qCgMK7fIDtDsUOhg7wwI8YxPJpIRN0O+s/2DtlxALJmWn1NXuenE6kUEcocFBpGOI8ux3D0C/JmyarnPuacW7NO0VRWqZt0xIJpuMo17XJc5Wr3q1xHrmuYJu1q6SBSRr+lsiHr7dMErnIVyRTRzmZi3BpnYwCZ48Q4KcwUQkkSU1KMyBBESVKYEEQ6EbMYiQn/i0IQa0ox92XvPnopDtHkEAod5NWyG9ff4pxbfS2RoErdouULpu1diEI3uE0UurG3b8dCR0TUH4pQb//oO6Rkq9CJFMocZAMjrqgJwZSgINZCpOwQCnuPW7RZ4bT5rScub5KdEDKDQgd5t/zWja9o0wJHERH5kwYdtah+YAEK3eA2UejG3r5dC50gQe0tXZTiwwcuslHoREpHmYNJ48S4UBzdginvk0KvcqKntwSDz9OG1TheX4Q02QGg9CSiVR/1uCNdWrmnPOJy0CvbO+joRdNlxwKYsumzamnnjra0h14zhTIHEyVINSxFa+CK8rwg9YGtj35zg+xMkD8YoQMpDl21drFnVsUmxakpRETepEHHLKqnkcMoGKEbsheM0I3Yjf1G6IiI4tHdtwbbbUojdLpOYkczMY4BFUiHkaU4OoSirLeE8qutj33rZdmJQB4UOpBm6Q1rrnDNqbmd2MC3oTOh04cXTSeFMRQ6FLoxt2/3QkdE1NnaTQnTIKIpFDp99zxzKHMwhCAmuOLYwVXtL8wyfrb5H1eGZGcCe0ChA6mW/ej5p5wzKk/Z81iN63TsgmnkVAdm1EGhG7IXFLoRu7FvoRNE1NzUSkJhmRU60yTRtJOYZYzzIigVluLs4Ip6H+O+mzf/4yKUOBgFhQ7kWiWU5RUv79KqyuqJBn6/KkmDjplTTR6nA4Vu6F5Q6Ebsxr6FjogoGU9RR1dwzwD0xAudxUk0NqHMAXFSTK451+iKctU7j3zrbdl5wN5Q6EC6Q1c8M9s9u6pB9Tgdg0VGN+jwugqq9LkHHqPQodAVWKEjIupuD1JcT40RMs12OB8YmTP1cVaGYsaZ1mNpjl+91dN9C65IhYlCoQNbWLZ6zZnO2dUPC2XPzUsEkcnpIL+HZlT7UeiG/weFbsSL7FroSBA172gjoaTbyQhcEN/RTExPjrMiFCdGJmnNphCrtj1x5Z9kp4HCg0IHtrHspvW/dcyqunjg0Z7fkoLmqhotqq9AoUOhG7Gbwih0yUSKOruCo5eNwJuaiaUS464HxUUQI4PYNpOzK9998rvPys4DhQuFDmzl8Ns2vq3VBA4e+Uu00rBo2fy6Yc+h0A17BQrdqNfbo9AJIupq66akMfY5cXznLmKJ2JjLofgIUki3REMqZV22fc3Vz8jOA4VPGX8VgPwJRyLHWJHkqN9sfQ6V/v1BO5lWHu+CDpAltfU1RDxN4SMivqsdZa6EcFIoYVjd0YR+0dtPXbUIZQ6yBSN0YDtLV609Vptd8W9FUwe+P4f8HmRJg5bPqKSAx4UROozQFcwIHRFRPBKnnt7hs03wjm5iod7Rr4Oiw0mhRDyZMCz6eeP6FStl54Hio8oOADBSx4Z7WmqP+LyllXv/Z9RCTaW2cIIcpkUBr0tCOoDMOFwOiofjxHdXPN7TR6w3SAP/rsZHsX5wUikeS4hEMvli0uE7cueaq58igBzACB3Y1rIfbXjeUV9+/OjhNCISgqpMixbPrxv4JsYIHUboRr3eXiN0RESCc2rZ2U48HCXW0T56fSgaghRKxGOUjMWjmtv/pe3rr3tcdiYobprsAABjUZrKTjQ98Q6t3Fs1aiEj6nWo9OIH7fSheXXk0jDYDPbHFEZezUGxzg78c7pICVIoEYtTor+X1LLyJ3bo886kly/FLNGQc7goAmzr9d8eYeh9kQ/zlGmNtY7hcdJLzT3U2YeTysH+UvEUxZIJ4k6cLlBsBDFKJFLU29pCyWgkoZXXndH4/KrT6XWUOcgPDGuArXVtuK+n7kNnd6sB76f33kNpBFWhbt2gaChGtRVlGPgAWzINk9qbO4gURuR2EwtHZEeCLBDEKJlIUbi7k4xEnBRvYLNmaIc0bLz+LdnZoLTgdx8UhMNv2fCEVl9+KhGNcTLYAC2h07LZ1eR1OYa9HufQ4Rw6mefQCSGoZXsLiSHvuLw7SEqkf/RroCAIYpRKpije2zPw88yYUP1VP2lct/Ja2dmgNKHQQWFYJZTl5S/tUivL6vdV6IiIyOQ0x6XR/OkVe1dBoUOhk1joWra3DF7dOnTfYmcLMT7mGQVgQ3uLXPfgzzFzuJJKmf/UxjUr1kqOByUM59BBYVjNuNEb+7BI6OPfqFpTqNm06NXtHWRyTEQMcrU1tY0uc0REjBFVVec/EGREEKNkyqC+tlaKBbsGy5zi9rYqvuq5KHMgG86hg4LR+cK9odojzm7SAt7PTWRs2dRUaglGSTU4BcpwEjrkX9euLkoZ+pjLmctJIprAKJ2NCWKUShkU6eogPR6loWO0SlnFi00b2eK+xhVReQkBBuCQKxScZTet/6tjRsW5g0+kGfwYeczSkzBoybw6cmoKDrnua3m67Q55DodcJ37Ita+rj/r7x7/wQaRSRG1t464H+cYopRsUD3aTsEYUbsZI81X9tmH9ykvlZAMYDYUOCtLyWzfuVKt9c4hoQoWOBBEZFs0vc9Hs2gAK3VjL0213yHModBPbV7Q/Rj2dwQm/w/L2LmKjb2EMUuyjyBGRYEw4AjUrG9Zed4uEcABjwjl0UJDMkH4sTxqTm9/JoVKTbtJ/GjoonsLUUJAbqaROPZ09k/rnslJbTWNOywN5wiilm9TX3kaxro60ZY4UjTvKay5EmQM7wjsIFKylP1hzoXNu1Z/SfhunHeIa8sDkVMsYHTCnhtjg6hiho1HrYIRuMiN0lmVRS0NrRu+svKePGKYxyTtBjPRUiuI93STEPi6i0pym6qv6VOOaq3HxA9gSLoqAgtWx4Z7N0476whGKz73/pF/MGMUZo5buMHkURl63MwcJoZQIIWjX9tZhc81NBvO4SfRHiI2ujJADe6YfiXa2kx4bfrHDSMzhSioVNR9qevb7r+QvIcDk4JArFLQ39I99xgrFezJ9vXA56N1okl5v6KDkBGZEARhLW1M7cTaFMsYYUaA8e4EgLUGMEvEk9bW2ULyna9Ro+UjM4Y4qZRUHND39/3DnB7A1FDoobKsZt3oSx/OUOaUJ5xJuB73WHqK3d3QTH+cNHmCkrtZuMqyp/4NAqQyQUHDgJBe4YBQLR6lvVzMlertHnweRBnN5+hRf1cLGNdc05yEiwJTgnQMKXse/7+muO/LzCTXgPXFKG2KMkopCLcEI8ZRJFT53lhJCMevvDVM4W/dlZYwEU4glEwPn4eFjyh+WIIqH+igW7CYrlZzwX4Xi8fXorrIDmtdck/ERAIB8wkURUDSW/XjDi47awLFENP5FEen+cT7i7HsladCCKh9Nq/DhoghcFJE2ZyKWpI5dnVl/J+Utu4hlYcSvdDEyTIsSvUEyJ1Hi9lDc3k6u1hy4c8OVoRyEA8gJTXYAgGzpTfCP10QSXarf48/G9rjLQdtjKdoRjNLCGj9Vl3uzsVkoEpZh5aTMERFRRQVRMJiDDRe3gQsdkpTo6xmYdiSDsycUt7czqmqLujdcibs/QEHBOXRQNHauPiFpBaOncYtn9SQ40+2g96JJ+u/2DuqLJLK5aShQQhDtasxsepKJUPw+Eir+vT1RlmAUC0eob9dOivd0pp9DbgL2lrnVKHNQcHAOHRSVjhfu3TntyC/MVv3uw7O9ba6p1JMyqbO7n3wujVxO/MItVW1NbWSK3N5/VTCFWAL/gBgbI920KNYbpERfz6TOj0tHdfu6oqqKMgcFC+fQQVE6/NaNrVpl2YzBJzI4h27UOiOWO5IGzd99KBbn0KXZdpGeQ9fV2kPRWH5u08WbW4lxnEs3FBeMUvEYJUPBcaccmeghV+by9KW0qv3bN1yFCyCgYGGIAYoS7098jJe53lGcWs5GoQ23g96PJEntjtDsCi9Nr87KqXtgY/294byVOSIiKg8Q9fXmb382JYiRYZiUDGV2kcO+MJcngjIHxQCHXKEodbxwb2/dEWeTWu49Idf7EppKIZNTW0+YLN2iAKY7KUqpeJI62yd3j9apYm4X8XB09BBvibAEUTIWo1h3B+nRMPEsX/nLHK6Y6qs5uHndVR1Z3TCABDjkCkXt8J+88K5W7TsgF4dc060jBBEZJlUojBbUV5LToe59fth6OORaSIdcLcuinR/skvKOyfvCROHSmT2DC0ZGMkHJUC9x05jaxvbVgzVnigLlS3c+e927U9sJgD3gkCsUNStsfFzxmTtzeeh1FIdKISJ6ozNEbt2kOTUBqvR78rZ7yL6W7bm7onU8aoWfrEiYaF83ji9wghgZuk6pUG/WD6mmpWiWUlZxXNOz16LMQdHAIVcoap0b74nUHfWFmOr3fDLvO2eMTE2lYMqk9p4wmSmTAmUuYgwD44WktbGNTJ7bK1r3hTFGwrCIDF1ahlwQxMg0LEr2hyjW00VGLJL1Q6ppKapQAzWnN6299vnc7wwgf/CbBUrCsh9t2Oqo8R8y8CjHh1zTHvvczeLkMS2aWe2nqoBnxOv2vgCHXMfefj4PuXa19VAkIncWC0ZExDlZLa2072OI9jcwEmdQKhIiM56Hi0tGfrmYQo5A3de2r73697nfOUB+4ZArlAQeNU/ifnOn4srjodd0VIUSCqPtkQSxYIQqNIXmTK+kfB4RhokJ90Wkl7lBikLC7SGWjMtOMmmcGJkpnVLhEJmS82uB6htQ5qBY4bcIlITOjfdEao/8vKoFPMfLzjJIVSjJGHVGktTdEyEjZZLP6yIF4+bSpZIp6mjtssUxjD0RmEMjEbVJwRyHxYmMRJLifT2U6A0OHE6d6gUOU6T5q/7csG7ld6SGAMghG7xdAeTP8p9s3KlWeedIO+S6d6X0yzknh2FStddNM2oDpOxudzjkmiZDjg65Whanne83k7DJu+PQGGZrBzHJxSidgfPhTNJjYTKi4fEn/M2X3TGUsooXmzas+ojcMAC5hUOuUFKSkeSnPAHX24qq2uTX9QgKI8PloA7Too7WXnIYJtX43DS9JkAKLqbIi5btu2xT5kZS/H4SITtMNMzI4oKMRIL0SD9Zemr38zYpckMoHt/Opg38o7JzAOSaTd+2AHJnyeo1f3LVV144aoEdRujG2jcXpOomBZwqTa8JkMftwAhdDkbo2praKZFKkZ0Me5MWgqxdbSRjChOLE5m6Tno0vI8LGuxV6JjTHVE85bMb11zTLzsLQK6h0EHpWSWU5YEXQ6rfM/xeXXYudCP2zXSTPMSopsJL1RVlNLoRodCl28eodYcUumBHL4X6I6P/fiQb+SZtdfcSJXJ7haggRpxzMlM66bHIJK5ItdHXTnOazF116I71V78nOwpAPqDQQUlauuLZs51zqh6koYcxC6jQDVtucdJMi3wOjaoryyhQ5tq7CgpdmueGrjfwKBqOUUfb7tt62bzQCd0g3pHdO1VxwYhbFhnJBJmx6BQm97XJ144pQg3Unta45pqnZEcByBcUOihZy255/g1HjX/Z4BOFWuiGLRJ7C57LQTWVPvJ5HMMWj1y91AudnjSoeUcrDZZ7mxc6ot0XR1iZXRwhiJFlcrIMncxEnIxYJIsXMdjja6f6a65pXLfiJ7JzAOQTLoqAkmWG4qerAc9OxakpsrNklaqQqSoUEkSh3iiRyUmzLPJoKpX73FRZ7h28erbUWRanlh1tRAV2wQkr803o/q57Rt4sXSczGScjHiXBi/cWYkREmq/qsQaUOShBhfUuBpBly3649s+OGRUXEFHxjNCNud+9TzLDJIcgKnM6qCLgIZ/PlfZ1xT5C1/RuM1k0ouAUwAgdCUFWSxvt+Wy4GDjnjZsmWakkGYkYWfm4J+roYBL2uZfq8X/Q+MIN+0sNASAJRuigpG0SylePiKXOVspcnvHXLh7CoZFORLoQ1NcfJwrFiBkmqUTk1lQq8zip3O8hp7N45x5vaWgdXeZsTFiChMVJ8IHD6olkivTeLuJmHu5/WgCYwxN1WGXLZecAkAUjdFDylq5ac4VzZuXtpTRCN9a+Rw1OcU6KwcnBiFwOldwujXxeN3ncTmKscEfoOlu6KBIb4zZUkkboBoqaGDgkysXeDyGI0hwm1cP9FGtpkD0oNoKkMIrGKVCxfOdzK96UEwBAPhQ6ACJa/tMX2tTysvqBRyh0E9q3aZHCBalE5NIUcjk1cruc5PE4yOHQBgqfDQtdT2cv9fWF03yie9bLcikRYqCs8SH/FwP/Z2JIactgu6F33yJhWdnNOyUSCh1jpPprvt649rrf5H/nAPaBQ64ARGSG4herAe+ThXZyvFSaSpwG+ohBRFHDIjISRNHEwO91ixPjnJggUhmRpjDSVJWcDoU0VSPNoZDDqZLDoZGap697f29432VuXwQNFDExUCQF3/tnEntL2sC6Ys8L9nacbHcdxkjzV5ARCmZ5w4VFLat4EGUOACN0AIMOv2XDe1q1b3+M0E1y3xP4uoybjWjgVgS7CyDbPfrGiIgxRkSClN1vV3uu0FUUIjbiLWxU/iFPcMOkSHfvQBFL+3UQRMQGXsOGPM/2ZpmSNJ/zVLeph8MUa94+xa1kU35H6BS3r7Fp440L87pTAJvCCB3AbkZMv1CrFC9TcU1iUjgURqSoNFi3RhbddCVxRJkcXeh2/8+yyOruJTHuBQRpSqutzlEbzun3U1xRSXA7HXbND6Y5E4a38kOycwDYBX51Aey25eYTXzH7Iq/LzgFZJgSZPX0TKHMFiDHSAhWyU+QfU4TmKz951zPf7ZUdBcAuUOgAhuDBxAVkFc5UFjA+s6ePyNBlx8gZp7/0Cp3qr/zh9ueu2yA7B4CdoNABDPHmz07ZZvTFMPVBkTCDIRJSJtjNH4ffX3B3upgK5q3Y2Lh25Q2ycwDYDQodwAg8Zlw0eLUiFCyrL0wikZAdI+eYopDm9cmOkRfM6Qnt6OafkJ0DwI5Q6ABG2HzLJ980+2LbZOeAzFnhGPFoTHaMvNF8AdkRck/RuPCWnUDbVhfv8XOAKUChA0jDiuiX2PnqRhibFU2Q1Z/hXHMFylUCF0YoZeVX404QAGNDoQNIY/OPPvmi2R/dJTsHTA5PpMgK9cuOkXeKy0WKwyU7Rs4o3sCGpnUrb5OdA8DOUOgAxiAiyZtlZ4CJ4ymDzN4+afdilU0r88uOkBPM5e5ris44UXYOALtDoQMYw6abP/VrK5oqnROxCpgwLTJ7eqmUL2bRfEV4YYSicXKUn0CvX2rIjgJgdyh0APtghRN/kp0B9k1YnIyuXhIlPn+gw1d8I3Sar/L6Heuv2Sw7B0AhQKED2IdEMnYtN6zSHfaxOyHInNAtvYqfojmK6jw61Vfxn4a1190iOwdAoUChA9iH9376mQgPxd6QnQPS07t7ieuYxWIPtaw4DrsypzuWKJv+P7JzABQSFDqAcYiUhVnpbcjoDpFIpmTHsBVHMUwwzJhQfYFT25+8NC47CkAhQaEDGMemm0583IomI7JzwF5mX4R4HL/vR3IUwQidGqj+dcMz1z4vOwdAoUGhA5gAK5J8XHYGGGCFY2RF0K/TUV0uYooqO0bGFI+/oXHNim/KzgFQiFDoACbAsPRVpTq/mZ1YsQSZJThx8GQobo/sCJnRnAZnvo/IjgFQqFDoACbg7ZtOabCiiR7ZOUoZT6TI7A3JjmF7mtsrO8LkMUYOX+VXdm74fofsKACFCoUOYILMqP6U7AyliqcMMoKlexeIyVA9hVfo1LLKJ7c/d819snMAFDIUOoCJShk/RKHIP2GYZHYHiXhpTxw8UVqBFTrm8gYb15ufkZ0DoNCh0AFM0OafnLzDiiT7ZOcoJcK0yOgKlvxdICZDc7uJWIG8tSsqZ07v/xCtxl8wwBQVyE89gD2IROpF2RlKheB8oMzhLhCTpjgL444Rmr/ilqZ1K96SnQOgGKDQAUyCZfA/yM5QEoQgszNIwsA92TOhOt2yI4xL8fjfbliz8nrZOQCKBQodwCRsvvmTj3LdtGTnKGpCkN4ZxC29psDuI3RMc+kph/t42TkAigkKHcAk8ViqQXaGYmZ09+GWXlOkum1c6BgjxVf+5ba11wVlRwEoJih0AJPEkwbOo8sRo7uPeDwhO0bBU132PeSqllU82fjctffLzgFQbFDoACbJMvlDsjMUIzPYTzyG+7Nmg2bTQsdcnr7GmgPPkJ0DoBih0AFM0hbHJ5/hpoUJ6bLI7A2TFYnKjlE0mKoSU2z29s4UoXr9J9JD5+AcVIAcsNlPPEABWM04j+vdsmMUC7MvQmZ/WHaMosM0h+wIw2i+qtsanr32ddk5AIoVCh1ABkRK3yY7QzEw+6NkhvplxyhKdip0iifwfsO6Fd+XnQOgmKHQAWRAmNZ/ZWcodFY4RmZvSHaMoqXYpdBpDoM050dlxwAodih0AJng/HnZEQqZFYmTEcRd1HLJFoWOMVLLKi5tWreiU3YUgGKHQgeQgT7VvY4ErovIhBVNoMzlAXPIL3Sqt/y5xjXX/VF2DoBSgEIHkIGdq09IWgk9KTtHobGiCTK6ewllOPdkj9ApTnd/Yxc/VWoIgBKCQgeQIWGYOAFsElDm8ospqsydC9VT8Snathr3bwPIExQ6gAwJS/TIzlAoeDyJMpdniirv7V31Vd6+fc3Vr0gLAFCCUOgAMsRM3io7QyHg8STpnT0oc3nGVDkjdIrXv71x3corpewcoISh0AFkyLJ4o+wMdsfjSdI7UOakkHHIVXUYpLo+kv8dAwAKHUCGGLcaZGewM5Q5ufJ+yJUx0rwVX8UUJQByaLIDABQqIdgu2RnsisdwmFW2fN/LVfMG/tWw7rp787pTABiEQgeQIWEx3M81DSuaIKMriDInWT6vcmUuT1+D4KfnbYcAMAoOuQJkiCnUKzuD3QyUOVzNWlKYIlSv70TasNqUHQWglKHQAWRIMVmX7Ax2gjJXmlRf5Y8bnr32ddk5AEodCh1Ahjb99MQ22RnsworEMc9cCVK8/rcb1624TnYOAMA5dAAwRVZ/jIwgjj6XGuZ0JTlVYIoSAJvACB0AZMwMRVHmSpGikOL1n7lzw5W4/R2ATWCEDiBDh33/n7NkZ5DJ7A2TGQrLjgFjENzK2bZVX8XvG5+77p852wEATBoKHUCGNIeQePdzuYyeEFnhqOwYsA+C85xsV/H6dzSuXfm1nGwcADKGQ64AGTItV0kWOqO7D2WuAAgr+4WOaU6DU9kxWd8wAEwZCh1AhlTFWig7Q77pHb1kRWOyY8AEZP2QK2OkeCou2Lnh+x3Z3TAAZAMOuQJkTMyVnSBvhCCjI0g8kZCdBCZIWNktdEpZxQON6655IKsbBYCsQaEDyJBgrCQuihAWJ6Ojh3gqJTsKTAI3s3fjBsVd1tK0/vpzs7ZBAMg6FDqATGlspuwIuSZMi4z2HuKGITsKTJKVrb8zzalbXvdR2dkYAOQKCh1AhhRFrZedIZeEbpDeESSRxZEeyB9h6FPfCFNI81d+vuGZq9unvjEAyCUUOoBMaUrRnkPHkzoZncGsn4cF+ZONUVXVX/m7hmevfiwLcQAgx1DoADLEHOoM2RlygceSpPf0EuVoHjPID25OrdApXv87jWtXXJylOACQYyh0ABlSHWpAdoZss8JxMnpDRAJlrtBxPZnxa5nDFWMOD+abAyggKHQAGVi+6gkvczmL6ufH7I2Q0R8mErKTwFQJyyRhZXjuI1OEUlZ5UuNz3+/PbioAyKWi+oUEkC+m5fqIyqhoyo/e1UdWDBMGFwszmfnonOarvL7hue+/mMU4AJAHKHQAGWAK+5TsDFnBBemdPWQlMcdcMTEznABaLat4vmHdipuzHAcA8gCFDiADzKEU/LxcwrRI7wgSz8b0FmArVjI+6dcoLm9n4/PWx3MQBwDyAIUOIAOKU9tfdoap4CmDdExLUrTMxCQPn2tO3XT7Dye6GlfDABQoRXYAgIKzSijM66qWHSNTPJYkvbMHZa5ICW4RT03iHDqmCMXjP7VlzdVtuUsFALmGQgcwSUuMZ05WNJXJzpEJsz9GqZ5eEphjrmiZ8ckdbtV8FT9oj9yi1QAAIABJREFUWrfiuRzFAYA8wSFXgEliDu3zsjNkwugJkRmNyo4BOaZHIhNeV/VWPNWwbuVNOYwDAHmCQgcwSYpbO052hknhnPTOXrJSuJK1FJix8ITWUzy+psYNPzg1x3EAIE9wyBVgMlYJRfG658iOMVFCNynV1o0yVyKEZU7oClfmdEWY07ssD5EAIE9Q6AAmYSl/5guKUy2InxseT1Kqs5u4meEdA6Dg6JEJjM5pDlPx+o5tXHMN7gQBUERwyBVgEpjm+LLsDBNhhqK7b+NVJLeygAnR+8fpaIwJR1n5mdufu25rfhIBQL6g0AFMguJzf1h2hvEY3SEyY3EqmvuSwYQIzsmM7bvQaf7qldvXXPd4niIBQB6h0AFM0GErnjta9bq8di1KwuJkdAXJ0nHnh1JkhMP7nI5G8Vfd37D2ulvyGAkA8giFDmCCVKdynewMY+FJnfTuXkwWXMJS/b1jLlPLAq81rlv5xTzGAYA8Q6EDmCDN5/6E7AzpWP2xgXOnuD1HDiH3hGmSGU1/uFV1+5obnxcFf+9hANg3FDqACVi64unPKF6XR3aOYQSR3t1HVmLyN2KH4pLsC6a9AIa53H0RZdohRJfh1iAARQ6FDmACFLfzetkZhhKmRXp3L3HdkB0FbEDv6xn1HHO4kqq3ekn3s5fh9iAAJQCFDmAcS1atr1AqvYfLzrEHj6dID/bhfqxARER6OExcHzFxtOYwVbfvww3Pfq9FTioAyDcUOoDxMOtWRVOZHS5uNfsiZESimF8OBqWCncOfUFTuKKs6dfuaq9+QkwgAZEChAxiH5vfIvzqQi4Hz5VJJlDkYZCbiZMYie59gTGjlNV/Z/uzVz8hLBQAyoNAB7MPSlc9+Ty1zeWVm4EmDjJ4+4hZu4QXDJbra9z5gjBz+qu9tf/bqP8tLBACyoNAB7IPi91wtc/9Wf2zg/pwWRuVgODMR3ztVCWOk+qp+uH3til/ITQUAsqDQAYxh8YrnztfKPbVSdi4E6V27D7ECpBHvaB38s1pW8bPGdStWS4wDAJKh0AGMwVHu+rmM/fKkQUYwRNzElCSQnhEJkxUfOHdO8Vf9unHdyqskRwIAyVDoANJYuvK5i9WAtybf+zVDUVzFCvsmBMU7dhERkVJW+UDTupXfkJwIAGwAhQ4gDa3Sc1ted8j57qtYU+OvCyUt0d1JXE8OlLn1158rOw8A2AMKHcAIS1Y9d6vicwfyNe8cj6dI7wuR4FZ+dggFy0qlKNnTgTIHAKMw2QEA7OTgK5+uKpsX6GRupzaq0IlRf6CR6wwcKR355Mjt7H3CCIbJjMf2PifSr7fv59O9dqzn021TTOG1E9zmBEz6zWic7e/dXnaa+ZTfLNPEmNQ2haBw0wckFAfKHACMghE6gCHcVa7HmNuZ858LoZuk77nwAafLwQTEOzsEaY6/Nq29/jzZWQDAflDoAHZbsvLZT2o1/uNyvR+rP0ZGJEpC4F6sMDFGLEqmYfyuce31l8jOAgD2hEIHQES0ar3mCDgfIoVRrobMhMXJ6AmRpScxKgcTxnWDUtHYHY1rrrtcdhYAsC8UOgAiWqZZDyk+dyBX27eiCTL6wyQ4RuVgEoSgVDz64+3//N61sqMAgL2h0EHJW3Ld05921JafkZONc0F6T2jgjg8YlYNJEIIEt8Tl7z16+Z2yswCA/aHQQUlbtOqfAUdF4CFSlKwXLh5Lkh4KYzoSmDQhBOeW+MKWey94SHYWACgMKHRQ0vxO7walzOXJ6kaFIKOnn8xUEnd8gEkTQhiGwU7e9pfz18rOAgCFA4UOStayH675maPWvzSb2+TxFBmhEHGcKwcZ4JwSlkXHbPvLeZtlZwGAwoJCByVp6cpnT1GnlV+ZtQ0KQXpPP5mpBM6Vg4xwi3pMZhy27b6LOmRnAYDCg0IHJWfxymfnq3WBxxRVycqdUngsSXp/mDjOlYMMWZZ4L9FdvWT7v07BzXwBICModFBSlq96wksB72uq2+GY6raExckI9pOpp3CuHGTMMvkzW+694FOycwBAYVNkBwDIm1VCEZ7yzWrAUzXVTVnhOCU7ewbKHECGTEvcijIHANmAETooGcscGzZo1YFFUznJTRgW6b0hskwd58pBxgQni5v05a1/Of8+2VkAoDig0EFJWHbjukcd0wIfmco2zL4oGYk4CYFz5SBznFPUMthx2/76pTdlZwGA4oFCB0Vv6Y1r73FMr8j4ThA8oZMe6h+46AGjcjAF3BLbExZbvv2vXwrLzgIAxQWFDora4Tesu1ebXnFeRi/mnPRgmEwDt+2CqeMmf2jLvRecIzsHABQnFDooWstuWHe/NqPiC0Q06UJm9sfIiO0+vIoyB1MghOCWQd96+74L7padBQCKFwodFKWlN6193DG94rTJvo4ndTL6w2SZZi5iQYkRXIQskz729n3n484PAJBTKHRQXFYJZZnrhX876vzHTOZlg3PKmTrmlIOsME3+ski4P7btoXN02VkAoPhlZaZ8ADs4eNV6n9unbdaqfAtGlTIx4sGQx2ZfhIxkgsTQ+6+K9OsO/FmM3ubQ/Y37fLa3me61k9lmHj7HCZj0m9E429+7vewU9InmE5yE4GLVlnvOvzErOwYAmACM0EFROGzVmgXOCudrasBbOdHX8FiS9EgUt+yCrBFchIRQPrHlnvNel50FAP5/e/ceHldV7g/8+649M7k0bWjaZJLMnpaKyp2CCKggRxQ9Kih44SJC5Rz1JyoeURRR0Yp4wYN3PMrhoBwoVUTwiHeUSwEFQVBu5eqFZu9JOjO9kF7SXGav9/dHWiilpUn3mtmTzPfzPDwPTZPveidJZ95Za++1GgtPiqApb+Fnf39MpnPmoxNt5nRkDCOlNRheN8hmjpyxFXtjOjPU9eAV72QzR0Q1xxk6mtIWnn/Tl9I9u51rPLPTFTGNLMbWrEOlwrNXyR1VHbMV/Y+Hliy6JOlaiKhxsaGjKWmfxcszzS3lW1Nd7S/b6SVSqhhbvR6VsWGoKps5ckYr9nE7ljryoR+dUky6FiJqbGzoaMo58DM3HpLqGLzRzGyftbPPrTy1EZVNQ7Bqd/apRBOmqtZW9MsPLVl0XtK1EBEBbOhoijnwgpsvTGXbzzGp519ijdYNYWxoCJbnrpJjNkKo8F770JJTHk26FiKiLdjQ0ZRwwHm/W5Ca3XpzqqNt92dtq7ENu2EYYxs2IOIJD+SYqlqtyLceXHLqR5OuhYhoW2zoqO4tPP+mz6W7288zmZS3o8+xG0fGGznLEx7IPRvpiora1z265F2PJ10LEdH2sKGjurXveTfv0bRb6jepObNetKPPsRtHMLZ+84wcp+TIMbWI1OoFD1152vlJ10JE9HzY0FH9WazmwPSyy1LZWaebtCfb69OenpHj0ipVia3oX4ZU3/CPJYtKSddCRLQzbOiorhx4/k0neB13fd+bOXvm9v5+/Bq5jYiUS6tUHRrpRmv1PcuXLLo66VqIiCaKDR3Vhf0W37BX08zWa7w5M/eHCLaddovWDaGyadPmpVUi99RCreoPlz/pn45bj+I7BiKaUtjQUaL2+uSNc1rb0z/2uma92nhGtt3zN3pqI8aGN8HCcmmVqsZW9GFrcdzDV532t6RrISLaFWzoKBHzF9/S3NGES1Kds059zt2rVlFZux5jlREoNwSmKrIR1qm17+PyKhFNdWzoqKY2N3Lf8ea0LfJaMumtZ910rILRtRsQ2TEop+OoitSiYq1+e/mVp34MEP6yEdGUt9MDzYlcOHjxPa22af23vTkzxxu5LQ2bjt/oMLpxCJFE4+esbv3yuvUa7E4/vu3XbvWX0zpze187mcwaPMYJmPST0U7yn8l75hNVoRrpr8ZSo6c89oN3r5/skERE9YozdFRVe33xtz0tqZZLTIcck2qa88zSqioqazdibHQEVuzTHyOqFluxf61AT370Sm4OTETTDxs6qor9F//+Zem25ou9uTMPfvrcVQXs8Cgq6zaiggpUlXPEVHU20r9FFTntkaWL/pR0LURE1cKGjtxZrObA9M0f9Wa2fjjV0eo/3a2povLURlRGRxBhy00OnI2j6rKRHbDWvP/hJaddn3QtRETVxoaOYtv3gpv3SDelvpHa7S//6rV2ZcY/qrAbRjC2cQgRovGbHJ67vRyRc9bqSlj96PIrT/tR0rUQEdUKGzraJfMX39I8pxmfMDOa3+3NnpGHkfHr4Ecr40uq0RisbGni2MVR9dnIlhDh48uvOu3KpGshIqo1NnQ0KQs/f8upqZmZj5j2GQeaJs8AgFYiVNYOIaqMItpygwOvjaMa4YwcEREbOpqAhZ+/5VRvRvqDpr3lYK+1KQ0AOhahsmY9orExVDwdn4Xjdl5UQzay/4TVDy9fsugXSddCRJQ0NnT0HPssXp5pypTfJ62p08yslgO91qY0dHzj37HV6xBVKog8BdQCBrwujmrKRvqgVPSM5VeddkfStRAR1Qs2dAQAOPCC371I0pkPeTOajpH2aIFJdwqgsBtHMFoehLURIrN5OZVNHNWYqlq1uiyy9v3cR46I6LnY0DWohYtv2Q1NOD3Vkn6btDUf5M1smQGML6VG6zZhrDKKyNjxvk10vIkjqjG1OmwtlkbeyEce+1+e7EBEtCNs6BrEXl+8rafZi95pMpljZUbTwtSslt1gxpdRo3XDGCmthRU7fmcqAHjgLBwlxka6UhVfffiKU7+WdC1ERFMBG7ppaJ/FyzOZ5vJxJmXejOb0oWZG83yvrakJAOzQCOzQKEbKa2GNwprNZ2564PYilChVtRrhTlvBxx5ZeipPdSAimgQ2dFPcfl+4LZ/2omMknTrSNHv7S1PTPGnDLDFdsJtGYDeNorJxCGNDG2FTeOa4rRTAKTiqBxrpOlVdiqGmcx7+yYkbkq6HiGgqYkM3Bbxw8V2z2jKbDpOUHC5pb39Jp/aQ5lSvyaRmQ5DS0QpsJUIURbAjm6CV4fGZN2C8eUtvnoVj/0Z1QlUtLO7Vin724atO+23S9RARTXVs6OrUARfedC5SqX83zandYaI0JAMFYAGoZ6EyBh0dGf9kxfhNC0/ffcrOjeqTWu23Ea58qrn9goFL3zSUdD1ERNMF9/Ovc/t+5jeHaFrOlNbU0Whr7pGUeeZntuWat637t22vg9vS4G3b423d+G35u+1+7Xa+focf1+18zo4+vr3MnTweZu7g49v72slkVvcxaqTrYPVXY6qffnzJon+CiIicY0M3heyz+JqM6oyTJJM6WVpTh8mMpjlbzlB9Ghu6Bsysv4ZOI7tBI9yk8M5/5Mp3/BVERFRVbOimsH0W39KmdniRSZs3ozn1EszMzBUjz/6ZsqFrgMw6aegiXWstbhToRcv/99Q/g4iIaoYN3XSy+JbU3nborZIyb0dT6jBpzfiS8QwbuumemUxDN77NiD6JyN4gSH9t+RUn/x1ERJQINnTT3L7n/vwQbUqdiJT3Smn29kRLpl08ETZ00ymzdg2dRjqokf4Zqpc/PP+Jq3H++RZERJQ4NnQNZp/F12R0tOWNJu0dj4x3KJpTu0tzqgUibOimbGb1GjqNdEQj+3eo/MqoXPzQ5e8IQEREdYcNHaFn8S9aZ4/IMUjL65DyXmIy3gJtSe0m3pY7atnQ1Xemu4ZOI92ASB/Riv5O1FzOZVQioqmBDR3t0L7n/vwQ65ljJWVegZTsJZl0lzSnMs98Bhu6+sjctYZOKxqJtasiq8slwq8raVzx+KWnrAIREU05bOhoUvb5wDVt2tZytEnJkerJSyTtvQBpr1OavOZn/TZNi0ZpqmTuvKHTSCNEtqhWH1aLW6OKXvv4Fac8CiIimhbY0JEbi9XsvfH6QyRljhDPHKye7GlSXk5TspukvSZstXr79P/UfaM0VTK3btxshAiDsDaAxcOq9k4r5oZH/+fkx0FERNMWGzqqib0+9tP9PM97OSAL1ZO9xJhepNAJz2tD2msa3z+v3hql+szUyFpEulGtXS0WBbX6uAXuSI3pDbxpgYioMbGho7qw11k/7fFS5qVWzP4Cu0CMyasnWRh0iDHt8EwLPJMWb/PGyVOk+dqFu0otrB2BxUa1uhbWrobKCqg+Yq3cs2kk/ccVV7zlKRAREW2FDR1NKT3/7xet7c1jL/A8swBi56mY+QC6xUOXQmZB0AaRGSLSCoNmCDIiklbAwBgjBts5SWPL/zto6FSh0fjiJ1QtIo0AHYXqJo2wHtB1sHgKitWqWoJK0cAGVr0Hhjatf2TFFf827ODbREREDYYNHTWk+R/+v91aK7YdRjtEzAwAsApPVLt39rVi7SpAR7b8uWLMKq3Y9U9ccmKhmjUTEREREREREREREREREREREREREREREREREREREREREREREREREREREREREREREREREREREREREREREREREREREREREREREREREREREREREREREREREREREREREREREREREREREREREREREREREREREREREREREREREREREREREREREREREREREREREREREREREREREREREREREREREREREREREREREREREREREREREREREREREREREREREREREREREREREREREREREREREREREREREREREREREREREREREREREREREREREREREREREREREREREREREREREREREREREREREREREREREREREREREREREVF9kaQLmIiurq6splI9njHtqtqmIunJZoxt3HjL2rVrB6tR37PMn9+crdhz48YUU+ZCrFgx7KIkIiKqX9l8/mRY7BUvxS4rFgrLnBRENdXe3r5bc9uss+LmpFwU49Ls3t58Bt5r1MORUOwrwJ4i0r7l70V2rQtNtbQchLVr73NY6na1P/VUs8xqX+wg55uDABs6IqLp72QxclycALUGAJY5qYZqqrm5eTcxErtvqIuGbm5v70GeeO+E4DgReSGwuWmbEvOHRERERMlKsqHLZH3/VEA+KCIvSbAOIiIioiktiYYuk/X99wLm0yLoSWB8IiIiommlpg1dNpc7BmK+uWVZlYiIiIjiq0lD193d3amp9HdF5O21GI+IiIiokVS9oevqnXe0Gl0iIt3VHouIiIioEZkqZks2lz9XjN7AZo6IiIioeqo1Q5fO+v7/iMi7qpRPRERERJtVo6HLZH3/WhHzpipkExEREdE2XDd0mS5/3nUiONZxLhERERHtgMuGzsv6+aVs5oiIiIhqy1lD153LfxncloSIiIio5pzc5dqVy50KIx93kUVEREREkxN7hq67e94+EP1vF8UQERER0eTFnaFLa0qXQKTVSTVERERENGmxZui68vlzBPISV8XsjKoOArIa0PWT/VoLbKpGTURERERJ2+WGLpvNLgDkPJfFbEtVi6r4CRS/t6Py51WrgoFqjkdEREQ0Fe1yQ6fp9JcN0OyymKezVe+zar9QLhSuB1CpxhhERERE08UuNXSdudxCI+Yk18Wo6iqFnlUKwx8CUNf5RERERNPRLjV0BuYc14Wo4saNUeUdGwYGVrnOJiIiIprOJt3QdXd3z1eB09k5a/U7pUJwFoDIZS4RERFRI5j0tiXqpc8UEc9ZBVYvKhWCD4HNHBEREdEumewMnYHBKa4GV9WrioXgE67yiIiIiBrRpGbosrnckQLpdTGwqj5Y9Mx7wZsfiIiIiGKZ3JKriJNr51S1AsEpWLFi2EUeERERUSObbEP3WiejCr5dDIKHnGQRERERNbgJX0PXkcv5Atkj7oCqunET9Itxc4iIiIho3IRn6FIiR7oZUi9dF4Zr3GQRERER0YQbOhE52MmIY/J9JzlEREREBGAy19CpvjDuYFbt8mIxWB43h4iIiIieMYmbIuTFcQcT4Ma4GURERET0bJO5yzX2DRGwcmfsDCIiIiJ6lond5Tp/frNYTccdzIp9NG4G1Yy0t7e3xw0ZHBwcxPTbPDrV3t7eFifA8zy7Zs2ada4Kmsa89vb2mcC0/V2adtrb23cDgMHBwfVooCMd58yZM7NSqezSsZiiSEPija8izVu+9661traODgwMDFUju161t7fv1tzcPFYsFjcmXctETaihmzk2NgPeZE8Je65Rz+uLHUI10d7e3t4yq32tg6jZg4ODTznIqRvZXO4IMd4tcTJUdQXWrNndUUlTVkcu56fVOxCi+ynwIggWCJADMAdAh4g8/TLXMqsdqhoBWA1gNRR9EH1SRR5HJA8YO3r/ypUry0k9loYwf35ztlJZqMABEG8/gV0AyHwAXQDmiMjTb/w3/7ysAKt1/Of1pAD/UNFHBXggGhm5t1wub0juwbiVamm9PS2yMKnxjeATLbPaq3KUplV7BYDTq5GdiPnzm7vGxg6CpPaHYF+BXQCRBVB0Yvx55+nf4+78PKjqBgDDAAoQPAnVfwL4u6reUyoU/gpgJKFH8iwT6tJao2imi4ZusK9vfewQIpqyOnI5Py3yegWOFsjhIuKP/41MaIJCRDyMNw9dEOz99Nd5ALwMsn7+CYH+UYHfDVn7u/X9/aur9VgahOnq7T1MxHsDBEcjsgeL8TLP/Kye/6odETEAOgXohGAv4JmftGlqtlk/fz+gy9SaX5f6+25Hnbww0rTjdfbkX25SeD0Ur0FkDxYvtdWq4+bf4x08CYlIG4A2AHMBLMTm95kiQNbPj4niPgDLIpXry/19f0JCM9Pxu7TJqdR4PCJK2Oze3nzGmHcAcpKIvATY4fNmbCLyIkBeJMDprUZsi5+/FYprhmzl2g0DA6uqNOy0k/X9Q1XlNBF5mwh6qjHG5mbvIEAOEg8fyfr5dYBcr5EuKQ0ENwGw1RiXGkc2lztMYU41gpMg0gnA+ZOPiKQhOATAIR7w8ayfX6WK61Xl8nJ/3x/djvb8at3QEVFjMF29+WPF4AwAr9966bRWRMQIcBQER82Q1Lda8/mfGtVLVobhrbWuZUqYP785G0WnAnKmiCys9U9MRGYBOE1SclrWz/8T0EuG16+/dLpdskFV5vstXWpOE6MfEsh+tX7iEZG5Ing3gHdn/fwjqrhUR4cvq8XlBalsPv+znX6WaquLwSY01i4qBsHx1comognLdOXy/yaCs8dny+qDiGQEOBkiJ2fz+XustReWC4WfgjdZAL7f0g2cqZH9mIjpSrocABCRBYB8pXnmrM82zWz/zlA09lXOsNLz6ezsbDOZ5jMBnC0Gc6u3DjBxIrK3CL6hTc3ndfn+t0bWr7+4mm9QUgI5bgJVORlsQmMR0VRkOnP5U43gc+MvxvVLIC/1jHdt1s/fB7XnFQuFXyVdU0JMVy73boF8HiLdyb/8PZeIzBDgEzO81Jmt+fyXS6pfRxhuSrouqiteVy7/HhGcLyLZpIvZHhGZI5DPN8+cdXbTzJkXlMLw2wDGXI8zmX3oiIieo6u39xVZf97dnpEr6r2Z25qIHCjG+2U2n79hTk/PXknXU0tz8vmXZv38n43xLhWR7qTr2RkRmWEgX8hCHsnmcsckXQ/Vh6zvH5r1838xRi6p12ZuayLSbsR8Nevn78/mcq92nc+Gjoh2SUdHx6xsPv9dMd4fRODmrOcECOR1KS91f5fvfxZAJul6qqypO5f/z5TiT1tuUJlKRGS+GO+X2Vx+afu8ebOTrocSMn9+c9b3vwHInSJyQNLlTJaI7C3Guynr5y/NZrMzXOWyoSOiSevsyR+Rbp3xgEDen8QND66JSMaIOT/r5+/q6O7eO+l6qmFOb++eWT//Jxj5+ObtX6YsMXJKs9UH5vr+kUnXQrWVzeb3zUb2bhFz1uY7pacsEXkv0pm/2FTqpS7ypvQ3g4hqTrp8/7PGw60iMj/pYlwTkQPTqfS92Xz+35KuxaVO339rynj3iMiBSdfiioj4HuTmrnz+o0nXQrWR7c2fiDTuEpH9k67FFRF5sWe8n7jIYkNHRBMye/bs9i5/3s+NmPOn+jvj5yMiLQL5Qdb3v4dpsATblc9/2hNz3ebNUacVEfEM5Gvdvn85psHPinZIsrn8+eLJj0XE2RLldDNtn5SJyJ3ZPT3zMm1tfzCCY5OupVZEzBlZP//r2bNnxz7TOCFe1s9faiBfSLqQqhNzetaf96uenh4nW2xRXfGyvn+5GPls0oXUOzZ0RPS8stn8vhkvdYdA9ku6lloTkddk2tr+kM1m62J/tknwsrn8lSLy3qQLqRURHG291E1TuAGn58pk/fzVIuZdSRcyFbChI6Id6vL9/ZHGMhHJJV1LUgSyHzKZOzpyOT/pWiZovJkzckrShdSaiLwsM6Ptt5ypmxa8Lt9fIiJvT7qQqYINHRFtVzaf308gN4vI3KRrSZpA9kgbs6y7u7sz6Vp2JpvPX9yIzdwWIvIy66WvB6+pm9K6cvlLjZgTk65jKmFDR0TP0d3dPR+K37KZe4ZA9tBUuq6X9LK+f45A3p90HUkTwdHdvv/fSddBu6Yrn/+0MfLvSdcx1bChI6JnmT17djtSmV838jLrjojI/pkZM34CIJ10LdvqzuXeCMiFSddRN8Sczi1Npp6ufP64hriRpwpSSRdARHXFZFrbroZgn1oOqqoWkL8C9h4VeVwiPBFppQCRDep5G2wUeUZ1BlKpNk81Lyp7qsGLRfEKEdmzlrWKmNd25fLfKBWCM2s57vPJZrMLVMzSWm7yrMBaqL0dKvcp7BMCPCGRt35ExjaI50USRTORSrUZa+eLyN6isg8M/kUgvbWqURT/Odf371kVhrdVe6zKpqFXViqVXdqwuWXmrKUQeWOc8a3iKyPrB6vS0Le2to5WI3dbc3O5F4niStRwq3JVXQ3gVigehOhjAvxttFLZAM9bDxEVa9vgeTOf9Xss8ioR9NSuyolhQ0dET8vm8p8TI6+vxViquhHAz9TimrFNG25du3bt4AS/9J6t/9DZ2dktTU2vEeBEQF4vIlW/dsoY+WB3b/7PK/uDK6o91gSkkM4sFZG7X3B8AAAdiUlEQVTdqj2QqgYKvcpG5rpVA31/BWAn8GXP+nnN6enZK2XSx4lgUbXfOIiI5ymWts+bd8BgX9/aao61evXq9bv6tc2zZo3F7WFEdXhwcPCpmDHbNTg40X+asaRTMEshMqvqI6k+qYqrrEbXlfv7H8Au/x6njodgkYjUxekybOiICACQzeWOguC8ao9j1S43Vi4yWvnJwMDAUNy8crm8EsBSAEtn+X5Hi8VpEJwtIvn41T4Pg+/O7e29c1V//+NVHWcnunz/XBF5eTXHUKu3WdELy2F4Ayb24rdDqwcGHgXwKICvZH3/UIh8Coo3V2t2UUT85ki/Mwi8sxr55EY2lz8PRg6p6iCqy6yVL5b6g5sAaJyozb/HFwK4MJvLHQZjPimQ45zUuYt4DR0Rob29fTeIWVLNJTtVfVBtdGwpDPdf2R9c4aKZ29a6MFxTLATfKobBCxDp6ara53qMp4m0eib1QyT4xnhOT89eAvlMtfJV9X610VHFQvAv5TD8DWI2c9sqhuHdxSA4XiqynypudJm9NTFyyvg1hlSPsvn8fhB8qlr5qrjXRpXDV4bBUaX+vhsRs5nbVrFQuKsYBMdbtQeo6k0usycjZa1+ZGefJECHmPhPGhMZi4hqr2nWrK8LqnMThAJrRe15xTC8FEClGmNsR2Vlf3AFfP+arMW5EHxCRJpcDyKCg7O5/MeLheDLrrMnIu2lvodqLDGrDqniU8VC8F+owc9s5cq+hwG8NtubPxEGF4uI842cVcx34ft7Iww3uc6mWAQql4i4f2M0flmHfqIYht+D4zcj21MKwwcBHJ3N508WxbchUtNtjlKlQvDNnX1SNpvdHZmm2A3dRMYiotrK5nKvFkhVDqNX1ZvHoIvWhGGhGvk7FYabisDi7u55P9aUXl2VQ70Fi+fmcteuKhSecJ79PDp9/60QeZXzYMXDOoYTi8VgufPsnSj2B9d0dnbeZpqal4rIq11mi8j8LuCjJeCLLnMpnmw+f5IAh7vOVehDlahywual0ZoqBsHVc/L521JWfyRGjqzVuFxyJWpsKRjzLdehqqpq9VPFMHhtYs3cVlau7Hu46JlDVe0lrrNFpMkT+Zrr3J1IGchXXIeq2l/o2MihSTRzW5TL5ZXFMHidqnX+eymKT7b19HBvxfqRBuB8ixJVva6oemgSzdwWq4Ogv1gIXm2t/letxmRDR9TAOvP597o+o1VVN1m1J25ehqz6MseErVgxXAzD91vo2ePbpLgjYt7U1ZN/rcvM55PtzZ8qIi90mWmhlxfD8C3FYnGjy9xdFBXD8Cy16vS6KhGZ0eqlP+Yyk3ZdVy7/boHs4TJT1V5SDIOT6mRpPSoVgjOt2sW1GIwNHVGj8v0Wo/isy0hVXac2OrpcKFzrMtelUhB8HYJ3Om/qPFwA1GQHLQODc10GqtorS0HwbgCRy9y4ioXgy86bOuiZ7e3tVd/ihXbKiMjHXQZaq98vhuEHUGe/x6Uw/Hwtmjo2dEQNqkvlfSLS7SpPVTdB7VtK/f13uMqslmIQXK3QRS6bOhE5rKs3/yZXeTuS7c0f43IzZVX9TTEM3wPHd/65UiwEX3a5/CoiM5pnzvx/rvJo13Tmcm8RwQtc5Sn0+lIheB/q9Pe4FIafr/byKxs6osaUEsHZrsJU1YratxcLhZtdZVZbKQyXqsLp8psYOcdl3nYZODurVRX/GN244R0AxlxlVkMxDM9WVYe/W3IG+PqXKCPmA66yVPUxOzx8KupsZm5bpUJwlir+WK18/kITNaAu3z9RRHxXeSr47MpC4deu8mqlVAi+oWqdnfYggsOzudxhrvK21d3dPR+Ak5M8VHU0inDiJE7oSFJkR4bfqaolF2EisqCrJ/8aF1k0eZ35/B6u7mJWYFihJ5TL5Q0u8qqsMqbRyZuPG3OODR1RAxK4m+Wxil+WguBLrvJqreh5Z6jq/c4CRZx9b7elXvodzjZ/Vnx51UDfvU6yaqBcLq+ExYdc5Ymnp7rKoskR1VOchVm9YPP+b1PCmkIhVOiHq5HNho6owXR0d+8tYo5wkaXAWh3Z9F7U6XUrE7JixbC10emq6mgDXTmxo6OjOudRCk5wEaOKfxRTpioHuVdTsT+4xt2JEnI8AOebTdPOiciJLnJU9bFiIfiqi6xaKoXhD6G6zHUuGzqiBpP20u7eHUf60c1nqU5p5f7++xR6kYssEWnJNM94i4usrXXkcr6IvMRFltXoE1ixYthFVs2N6VkuYkRkVlfvvFe6yKKJy2azu7vaKkkFnwAw6iKrxrRio4+6DmVDR9RoBG7eHUPvKfYHzq4/S1oJuEBVnTSnKniHi5ytpUVcXTv3SLlQ+KmLrCQUi8FyhV7vIkuM5fmuNWYzmTe4yFHV+0tB8HMXWUlY1d//V6v6K5eZbOiIGkh397x9ROTFLrK0gk9hKi+1bisMNwn0AidZglfPmTNnppOsLVSOcpIjuAj1tOHzrlB1dM1mFY5Oo+flOfo9VrVfxRR//rECp6e9sKEjaiA2rY5mefDH0kDwexdZ9WRlGF6mqrGPKhORtNfS4vQuShG8Im6Gqm60w8M/cVFPkopheLeqPuIgamFnZ2ebgxyaIAViX7+rqutKqVTdbl4+UauC4HZVdXYGNBs6ogYiFq9zk2Rrdj5hjY0q9FInSSpHO8kB0NbTMxciu8dP0uumyPYOO6e4Mm6EiBivqelgF+XQznX4fk4EPQ6irpmy14BuQ6FLXGWxoSNqHAaCl8dOUS0Xw/A6B/XUJTts/sfFHa8iONxFPQDQKrLQRY5VnbLXHG2rYis/c5GjwP4ucmjnPOAAJ0FWnFxDWQ/U4b9JNnREDaLL9/cVkdjbaVjFNZiad5ZNyKpVfQMQuDiV4ABX19GJMXvHzVBVHRG5xUU99WD1wMCjqlqMmyMqsb+3NDEi8b/XqhqNblp/u4t66kG5UHhAVVe5yGJDR9Qo1BzoJgbTZpZnhxy8a968nOdkewaILHCQ8tC6MFzjIKduqCB2g6oCF99bmggb/3stir9MkdNNJkqhcNKgsqEjahAGGntpSVU3lINgmYNy6tpoFP3CSZB4bpaYFPMcZDzkoJL6ovpw3AiBzHdRCu2ciMb+PVaJ/zOvQ07+bbKhI2oQahB7uxIF/oxpvNy6xdqBgT6F9sfNEeBFLuoRYG7sDJHHXNRST8TGf0wKjf29pYmSztgRKo87KKSuKKyTx8SGjqhRKHaPGyGKKXP2Z2yq8R+rxP+eA4ACs2NniPa5qKWuGH3SQcocBxk0MbG/1yq6wkUh9cQa4+QxsaEjahx+3AAVvc9FIVOBwMRu6BTIu6gFwG5xA6zqdLruCAAgFRN7CxYR8VzUQhMS/+xcK+sd1FFXJIqcPCY2dESNQQB0xA3RSKbdu+MdUdggboY4+J47IzI99p/byoiMOXlM7e3tsRtmmpDYDZ2IXeeikHpiosjJmy02dEQNoL29vV1EJHaQ5+as06nAArGvoYNI3SznGWun3bWPdmho2r24T3MtSRdQp5wcYZZyEUJE9c20tsbefw4ADHB21vdHXGTVOxXJxg/RZgelEBHtFBs6ogaQsdbJbLyIOcNFzlQQfzoTEBHOSBBRTXDJlYioSlwcIUZENBFs6IiIqmfa3VlKRPWJDR0RUZWI4h9J10BEjYENHRFRlajoX5KugYgaAxs6IqIqETU3JV0DETUGNnRERFWgqhvEjv0q6TqIqDGwoSMiqgIFLh8YGBhKug4iagxs6IiIHFPVTWM2uijpOoiocbChIyJyTeX8tf39sc+CJSKaKJ4UQUTkkKreXCwEX026DiJqLJyhIyJyRFUfGbLRiQCipGshosbCGToiIgdU9X47Mvz69eXy6qRrIaLGwxk6IqKYVHWpHRk+olwur0y6FiJqTJyhIyLaRar6BKx8tNgf/DLpWoiosbGhIyKaBFUdFeDGSO0PyoXC/wGwSddERMSGjqgBjBpjmxzkqNpLAIw4iJpaVJ6yBkVP9WETRX/mhsFEVG/Y0BE1ADs0tA6z2mPnRNZ+Y1V//+MOSiIiIod4UwRVldfW1pZ0Da5ZkZaka5iswcHBQVXV2EHGdDsoh4gaknBme/vERQgbOtquwcHB9S5yxNpp19B5alw8plEHGZOhAGJvp2HUzHdQCxE1JI39vKfGxF9qqDPW85w8JjZ0tCORqsa/2DuVmnYNnYqd5SBmo4OMyQrjBojYg1wUQkQNaTh2gur0e00xJvZrigLDbOhoh8TFjI61uzsopb6ouJilqv3ms4p/xs4QeamDSoioMbl43lvgIKOuOFn5UF3Nho52SB384xORvV3UUk9EZK+4GQqteUOngifiZojiYAAubpglokYjKMePwItclFJPBPpiBzFFNnT0fFzM6OzjoI66otD94mYYlRUuapkUtQ/GzhBp7fT9VzuohogajCr64qfI/vEz6k7s1xQIAjZ0tEPiYIlOFEe5qKVedHd3d7qYdbTAP1zUMxlSMX91kWNE3uQih4gajIvLPoCFs2fPnk43RhgIjoydovokGzraIRV9JG6GiGQ7urunzbKrmrST2Snj4Hs7WcVi8IiqDsYOUpwALrsSuaOoJF1CLajow3EzRMSk29pe5aCcutDZ23uAiHTEzVHV5WzoaIcEiL9EByDtpY93kVMXBMe5iNlkzAMucibJArgjboiIzO3K5U5wUA8RAQB0Q+wE0YyLSqpJh9087xnVafOaYsRz8lgEeIANHe1QNDJyr5OtSwSLHJSTuI6Ojlkw8pa4Oar6t8G+vrUuapr82PidixwRc6aLHCICADwVN0BEdnNRSDWtWtU3oND+uDkKeVtPT0+ri5oSJhA5LW6Iqo4VU6n72dDRDpXL5Q0A7o+bIyJ7dfX2vsJBSYlKtbScJEBz/CSNPUu2qyJb+a2LHBE5rNP33+Aii6jhqcTfyF3h4k7JqlPV2+NmiMjMyKTf5qKeJHX7/pEieIGDqHuxYgX3oaOdUNzsIkY87xwXOQlKiTGfcJJk5RYnObtg9cDAo6r6mIssA/kSHB1ZQ9TI1MDFjH38OyVrQd08/4noJzHFD0dQlU86CRLcBEzxbwZVn2r0Gxc5AjmuM5db6CIrCVnfP0Ege7jIsmPDTmbJdpniJy5iROTArty897rIImpkEsnjsTNEsnN6emLvkVltY7bi5jVFZO8u33+zi6wkdPv+IWLkX11kRcANABs62olSf/8fnNwZCUDEfMNFTq2NX6shF7rIUtW7yuXyShdZuyrSaImrLBG9qMP3c67yiBqR9dzc9Z7yvLpvcNYODPSpqpObIwRyEebPd3AZTM2JwtHroWp5VRDcAbCho50bUcV1LoKMyFFdvn+Ki6xaijzvMyIyz0WWQp3MjsWxqr//cbV6q4ssEZmVVvk++FxCtMvKQfCkavyD611cYF8Tih+5iBGRF3ZF0ZS7nCebz58ugsNdZCn0pwAigE/CNBEa/dBVlEC+3ZHL+a7yqq2rt/flAvmYiyxVjSIRJ09ksSm+5ypKjPxrNpf/nKs8ogYUAfLnuCEC2a/T950s41VVZfRqVVUXUQL59NyeeQe7yKqF2T098wD5mqu8SGTplv9nQ0c7Vervv1nVzckGIjInbcwPAXgu8qpplu93iPF+LCIpJ4GCX64Ogti37LtQ7A+uU1Vnx4+Jkc90+v5bXeURNRzVG13EGJjPoM5vVioWi08Cbh6viGQ8D9dMkdMj0hkv9WMBZrsIU9VHVwXB03cNs6GjiVCBvcRVmEBe2Z3Lf9tVXpVkWiA/EZG8q0Cr6mxWzIEKVL7uMtBAru7q7X2Ny0yixmGXuUgRweGduXzdL72qyH+5yhLBCzIz2n4EIO0qswqkK5e/RERe5i5Sv7v1n9jQ0YSMbNx4qarG3ytpCyMf6PbnLXaW55bX7c+7SkScHUKv0IfKYehkU19XioW+/1bVwFWeiKTFeL/I5nLOvm9EjaJYKNypqrE3GAYAY+Sb40t79asUBL9Q1dh3924hIm/I+v5lqNPZyazvf8EY+XdXeQqstSMjl2/9MTZ0NCFr164dVMh3d/6ZkyD4XB1ee5Xp8v2lELg+2uqLAJxcM+LQCKCfdxkoIi0Q89su33+ny1yiBjACyDUuggSY3WRS19b5aQoWFl92GShiFnX7/g9QX5f0SNb3vyhiPuU01eq3N2/+/zQ2dDRhm2zlIldbmGwhRhZnff97ANxcpxZDR0fHrKzv/9KIOcllrqo+UgwCJ0/UrhXD8AeqGvs0kK2JSNqIuSqby38e9fXESlTX1FaucBZm5BDrpa4FULdnvBb7g6sU+nenoWJO7/Lz13d2drY5zd016a5c/jLXzZyqrhnesO6b236cDR1N2Pr+/tVQfMV1rog5I+vPW5bk3a9ze+YdnG5t+6uIea3zcLUfBxD/TNzqsJHgQ9UIFiOfyfrzbu3u7p5fjXyi6abU33+n+2XI/K87Ojpmucp0rGKtdXMCz1aMyDGmqfmeLt/f33X2RM3u6ZmX9fO3uVxm3UIVXxgcHHzO8jwbOpqUYiH4uqr+03WuCA5Pi7mvM5dfhNpeA5HJ5vKf9Dy9w9GZes+iVm8oFgq/cp3r0qoguF3V/nc1skVwuKbSD3b5/sdQ3xcsE9UDFei3XAaKyGvSrTPuTrK5eT7lQuE6V/tibk1E9hQxd29+7qnlCpBkff/fM6n0fW5vgBinqo+VCsF3tvd3bOhoskYs9P3VCBaROZ6RK7K5/LK5vb0HVWOMrXX6/huyfv5+MfIlEXG+LKGqm6zBB13nVsPY0NA5qtpXjWwRmWnEXJT18w925nJvB593iHZoJXC5qjo9TUZE9hTIPVnf/yJ8v8VltgsVWznDycbK2xCg2Yi5qMv376vFHfhZ3z8068+7XcR839XWJM+h9v0Axrb3V3xipUkrh+ENqvbKauWLkSNTXuov2Vz+t3Pz+VfC7YxdqtP335r1593jifm1iFTt7EOFfrYcBG6vD6mSNWvWrIsEp6pq1ZaGRWRPz3g/yfr5x7py+TOmyL5RRLUVhpsA/YLrWBHJiJhPZSH/yOby57b19Mx1PcauWj0w8KhCL6hWvhGzr/FSN2b9/J+yvfOOhdtreyWbyx2VzeV/K2LucnUCxPao6mXFQuGWHRYykZBsNru7ZJpiL7OtDPrq8nZil9rb23drmdW+Nm7OpnWDs7e3Rl4vZs+e3Z6Z0Xa/iFT9+iiF/l1UlkS2cn25v/8BTP56tExnT/5Q4+nbAXmHiHRVo85nUV22Mgxeg/q9dm67unz/M0aM0ztfd0RVRwD8EoJr7fDwsqTPuK1nWT//ZNx/a2qjo4qFwjJHJdWFafx8m8r6+QdEZO9qDaCqFQVuEMXvI1u53bP2sWKxuLFa401AKuvnbxORl1d7IFVdCcVVqtFPS/39fwZQmWSE6eztPcCI9xYIThORBdWoc2sK/bsdHj5w2ztbt8aGzrFp/ATzHF29va8Q4y0TkZpdG6Wqq6G4HcBDCnlcEAVW9Sl43nq11sDamUZkthizO1T2BrAfBEeIyIwa1rhqTO1BawqFsFZjOiRZ379exLyp1gOr6mOA3qUij6u1j8GalZBog4miQSSw5ctYKlWpl58hG7rtm87Pt9lc7tVivJtqOaaqrgHw/PuNKq4tFgInxyFuK5vNLkCm6d6qLVduh6puEOA2Czwkgkdh7QqrugbGbJBRYzVVmeUZ0x6pzDcGLwawHyBH1rjGUYEesTIMn/d4uMS3iqCpq9Tff0fW988GpGanPojIHAiOB3D8+LsD75m5c+ON//f0J9eqqmeoqlUbnbymv78uGoFdoJVNm96Zamm9XUQW1nJgEdkTkD0F2PyzBIAU4CXzNJUePxpt90QGp4ZXLBRuzvr5y0TkPbUaU0Q6AHQ83+cobNWWaovF4j87ff+dBvIrEanJM7iItAF4owHeCAAwW72mNAFb2iQvwekoVXtmsVDY6Vm/vIaOYimG4cWq+j9J11E/9MOl/v6avqt2bfXq1evHoMeoaiHpWogamR0Z/ojzfdrqXDkMf6PQc5Kuo15Yq98pFQoTeo1lQ0exFcPgA2r1hqTrSJqq/UYxDLd7O/lUsyYMCxb6KlUtJV0LUaMql8sbbBS9XYHhpGuppVIYftVanRbPpXGo1Z+VCsFZE/18NnTkQsXYyluhuizpQpKiqpcVw/DspOtwqRyGf1Po0a63UCCiiSv399+nat+ddB21VioE/6FWf5h0HUmxqrcUC8FJAKKJfg0bOnJiYGBgaGTjhuOt6g5vqZ6urNUfFMPgDNTfWa2xlcLwQQt9paoGSddC1KhKYfhDq/YzSddRY1osBIsasalT1Zu9qHIsgEntzceGjpxZu3btoBdVjm2k5VerenGpELwHk3gXNdWUw/Bv0bAcpqp/TboWokZVCsMv2CocvVjnomIhWASr3026kFpRqz8rhsEbBgYGhib7tWzoyKmBgYGhYiE4RhWXJl1LNamqtdCzS2HwH5iGM3PbWrWqbwBjo69U1euSroWoUZXCvnMbsalbWQg+qFY/mXQh1WZVLy4WgrdjkjNzW7Cho2qIimHf+1Tth1R1u0eUTGUKrLXQY0tB8PWka6mlYrG4sRgGJ0DtOao62Y04iciBUth3rlo9q5qnutSjYiG40EZ6nKoOJl2La6o6qmrfu3mCYJdXe9jQUdUUw/A7aqN/UdXYm1LXC1W9S0fw0nIY/ibpWhKiK8PwIkAPb7TtFIjqRbEQfAtWjlPVutoMudpK/cHPI7WHqOLepGtxRVWfqAgOL4bhZXGz2NBRVZX6++8cG9p4oKq9Iula4lDVilo9vxgGR5RKff9Iup6kFcPwblOpHKBqv9FoMwVE9aDY3/dLK3ipqt6VdC21tKpQeKIY9r1c1X5JVaf0tcuquNSODL9kdRDc4yKPDR1V3Zo1a9YVw/B0G+G1U3FWR1XvhOCgYiH4HCZ/5t+0NTAwMFQMw49GkRyqqnckXQ9RoykHwd+LYXCEhZ63+WzkRjFWDMNPWxu91KrenXQxk6Wqj0Ltq4ph3/ue72zWyWJDRzVT6u+7sRgE+2y+Bqvur4NQ1cCqPbUYBocXg+ChpOupV6sG+u4thsERGulJqvp40vUQNZhKKQi+GKndX9X+Iuliaqnc339fKQxeFll911TYWklVV1urHymGwQErw/BW1/ls6KjWRleG4UXD69ftrlbPr8fGTlVDVXtmMQxeWArDpWiAu1gd0GJ/cE0xDPaNrL5LoWyAiWpofCkyfLPa6Ci16rxZqGNaLgRXFqF7WqsfqccjC1V1jVo9v7JpaEGpEHwTQFVuFmRDR4kYHBx8qlgIPmdHhv3N/wgTn9lR1Ts3z8gtKIbhf2EXbx1vcJVyIbiyGAQHRGpfr1b/j3fEEtVOsVBYViwEr1K1h6naK1V1Y9I11UQYbioVgm8Ww+AF1mIRrO70MPuqUzysas/E2Oi8YiH43OrVq9dXc7hUNcOJdmbz9QPfBPCtub7/Sg84BZC3icjcWoyvqn0K+RFgl5bC8MFajNkgtByGNwC4obOzs9s0NZ0A4ERADhcRSbo4oumuGIZ3A7i7s7Pzg5JpeYsRPRnAqyDSmnRtVTZaKvQtAbCkM5dbaIxZBMUJIpKvyeiqZYVep9ZeWervv7MmY27Gho7qha4Kw9sA3AbgzLm+/woDvF4gRwE4WETSTgYZf7d6FxQ3Wo1+U+7vvx9cUq2qcrm8EsDFAC5u6+mZ22rM60Xk6M3N3QuTro9oOtv8pnnJ5v8ynT35Q8XTV4vKgSr6YoG82NXza70pFwr3AzgbwMfm9vQcZDzvjQI5SoCXuWpsN9+Mci8UN6lGvyn199+NhE4OYkNH9aiyVXMHzJ/fnK1UFipwgIjsA5EFUPEBzQKYIyItW3+xqm4QYJUFSgaywkL/CZWHFNED5UJhOXinamI2DAys2gBchfH/0N3d3WmNOQDiHQBgDxG8AEAOgrmAdAjQnGjBRNPLaHkg+AOAP2z1MW92b29v2pjdYO1M9bw2Ud1hs2OjqK/6ZTqnqwYG/gLgLwC+ACDV2du7n0hqf4juZyALLHS+QOYC2ikiM5/1xaobAKyBoASLAAb/hOrDFZH7V4fBgwDq4g7j/w9OffWKeZHcCwAAAABJRU5ErkJggg==;" vertex="1" parent="9pdm4Na_A3fy9SokRHZq-4">
          <mxGeometry x="430" y="540" width="40" height="40" as="geometry" />
        </mxCell>
        <mxCell id="jFfQ0kwEmFCJYvK7oUmH-1" value="" style="shape=image;verticalLabelPosition=bottom;labelBackgroundColor=default;verticalAlign=top;aspect=fixed;imageAspect=0;image=data:image/png,iVBORw0KGgoAAAANSUhEUgAAAZAAAAEsCAYAAADtt+XCAAAACXBIWXMAAAsTAAALEwEAmpwYAAAgAElEQVR4nO2dd3gU1frHvycNEkJChwSkht4R+aGCJiIgkgCiIt0CNu71KqiICqhwvRYU5HoVy1UEG0oNoCgliehVAQtSpQcICR0JISGE5P39MbsaINmdM3NmZ3b3/TwPzy055T2zs/PZc+YUASagIKIIAJ0BXA2gBYDmAOoDiHb9CwOQB+AMgBMAdrn+bQGQIYTItiFsxg8gIgGgNYBu0O6tFgAaAYiFdm9FAiiAdm+dBrAXwA4A2wF8B2C7EIJ8HznDMOVCRLFENIqIviais2SOnUQ0k4iucj0wmCCGiMKJqB8RfUxER0zeW9lENJeI+hBRmN1tY5ighojauL7YBSa/2OXxOxH9g4gq2d1WxrcQ0RVENJ2Ijll0bx0mopeJKN7utjJMUEFErYjoMyIqsejLfSnHiGgisUgCHiJqQET/JaLzPrq3ColoFhHVs7vtDBPQEFENIvqIfCeOS9lPRLcQD20FHEQUQURPElG+TfdWHhE9RkThdl8Lhgk4iOgmIsqx6ct9KYuJqJrd14RRAxG1JaKtNt9Tbn4jopZ2XxOGCQiIKJKI/m3zl7os9hPRNXZfH8Y4RCSI6B6y7h2aUc4S0Ui7rw/D+DVEVJWI1tn8ZfbEeSIaYvd1YuQhohAimmHz/eONaUQUYve1Yhi/g4hqEdFGm7/AennE7uvF6Ie09x2f2H3T6GQu8XsRhtEPEdUlou02f3FlmWT3dWO8Q0ShRLTA7ptFknnEPRFHwh+KwyCiGACroa3yVVs2CIXFhThfcl510QAwhVgijoa02XNvALjVkvJh2SLzOwDMJJ795zh4NaiDcH1BZkOBPHbn7saSzCX45fgv2HpyK3bl7kLBhYI//14nqg4aRjdE22pt0ateL/So2wNVK1Q1W+0UIoIQYqrZghhLeAzA/WYLySvKw8qslVhxcAX25+1HTn4OcvJzcPLcSVSrWA1xUXGIi4pDo8qN0OeKPuhVrxeiwqLMVvt3aFujzDBbEKMONrqDIKLHAEwzmr/gQgHe/f1dzN4xGxtPbJTKGyJC0K9BP4xtOxbd47pDmLs1JrNEnAVpM+bWAgg1lB+ExfsWY/aO2Vh1aBUKiwt1540Mi0TPuj0xqsUopDRIMXNvFQHoJoRYb7QARi0sEIdARN0BpMPAF/xCyQW88/s7eP6X55Gdb34vxC61umBWt1noVKOTmWKeEUJMMR0MYxoiigWwCdqmmtKszVmL8evGY93RdaZj6VanG6Z1nYautboaLSITQDshxBnTwTCmYYE4ANI2ltsIbadTKfbm7sWwtGH48eiPSmMKESEY13YcpnSegsiwSKPFsEQcABH9G8BDsvn+OP8HRn8zGgv3LVQe09CEoXi7+9uIDo82kn2GEGKc6pgYeVggDoCIHgTwpmy+hfsW4q6Mu5BXlGdBVBpda3VFau9U1IqsZbQIloiNEFEnABsgOWFm5+md6Pd1P+z4Y4c1gQFoV60dlt60FA2iG8hmLQZwpRDiNwvCYiRggdgMEVWBdh5HDZl8H+z8AKO+GYUSKrEmsFI0qtwIK/qsQPMqzY0WwRKxCSJKB5Aok2f1odW4bdVtOH3+tDVBlaJmxZpI7Z2Kq2tfLZt1lRCilxUxMfphgdgMEb0AYIJMnvd3vI9R34yyKKKyqR1ZGxkpGWhRxfAEMZaIj3G9OP+fTJ6NJzbi2tRrkX8h36KoLic2IhbrBqwz8gOlixBigxUxMfpggdgIEVUAcAhAdb151h1dh+5Lu6OopMi6wMpBgUSeFUI8pzImpnyIaDmAvnrTHy04iqsWX4UDeQcsjKpsmsU2w48DfpSdSp4qhBhgVUyMd3ghob30g4Q8jp87jttW3WaLPADgSMERJC5LxO9//G60iGeJ6BmVMTFlQ0T1ISGPCyUXMHDVQFvkAWjvXO5Yc4fskGwKEdW1KibGOywQexktk3jihonIOptlVSy6YIn4DcNkEs/ZOQf/Oyw12qWcVVmr8Pnez2WyhECynYxaeAjLJojoCgD7ofMz2HxyMzos7OCTl+Z64OEsZ0NEW6BzWnj+hXw0nddUyRoiszSOaYztg7YjIiRCb5atQog2VsbElA/3QOyjByQEPvmnyY6RB8A9ESfj+nGie03RzC0zHSEPQFvX9Na2t2SytCY+Dtc2WCD2ofswppz8HCzbv8zKWAyhSCLPKgyJ0eihN2ExFWPm5plWxiLN9E3TZTdm1N1eRi0sEPvQPfF99o7ZKKZiK2MxjAKJPMMSUU6i3oTrjq7DkYIjFoYiz/68/fjthNQawSSrYmE8wwKxAdfiQd1DDE7sfZSGJeI4dL8TSM1MtTIOw0jGJb0FEKMGFog9tILO9x/nis/h5+M/WxyOeVgizsB1JIDuFXmp+x0qELm4WvBZIfbAArEH3duW/Hr8V9vWfchypOAIkpYnsUTspQ4AXTsUFpUUWbrXlRm2ntwq8x4kGlq7GR/DArEH3YsH953ZZ2Ucyjmcf5glYi+6763D+YetjMMU50vO41ThKZks1ayKhSkfFog96P6Snyw8aWUclsASsRXd+6M7ZepueeTk58gkN7QvPGMOFog96BbIiXMnrIzDMlgitlFZb0KnCyT7rFR8utvNqIMFYg/hehP6y/uPsmCJ2ILuEy1ljqW1g8ISqfjCrIqDKR8WCGMpLBGGCVxYIIzlKJLIczxVk2GcBQuE8QkKJDIZ2tYnLBGGcQgsEMZnsEQYJrBggTA+hSXCMIEDC4TxOW6JmFgFzRJhGAfAAmFs4XD+YSQuTzQrEX6xzjA2wgJhbEOBRCaBJcIwtsECYWyFJcIw/gsLhLEdlgjD+CcsEMYRsEQYxv9ggTCOQZFEprBEGMY3sEAYR6FAIhPBEmEYn8ACYRwHS4Rh/AMWCONIWCIM43xYIIxjUbBinSXCMBbCAmEcTU5+jgqJTGWJMIx6WCCM41EgkafBEmEY5bBAGL+AJcIwzoMFwvgNLBGGcRYsEMavYIkwjHNggTB+hyKJ/JMlwjDmYIEwfokCiTwFlgjDmIIFwvgtLBGGsRcWCOPXuCWy8/ROo0WwRBjGICwQxu/Jyc9B4rJElgjD+BgWCBMQKJLI8ywRhtEPC4QJGBRI5EmwRBhGNywQJqBgiTCM72CBMAEHS4RhfAMLhAlIWCIMYz0sECZgUSSRf7FEGKZsWCBMQKNAIhPAEmGYMmGBMAEPS4RhrIEFwgQFOfk5SFpmasU6S4RhLoEFwgQN2fnZLBGGUQgLhAkqFEnkBZYIw7BAmCBEgUSeAEuEYVggTHDCEmEY87BAmKCFJcIw5mCBMEENS4RhjMMCYYIeRRJ5kSXCBBssEIaBEomMB0uECTJYIAzjwi2RXad3GS2CJcIEFSwQhilFdn42EpclskQYRgcsEIa5BJYIw+iDBcKYIjYi1u4QLEGRRF5iiTCBDAuEMcXCngtRr1I9u8OwBAUSeRwsESaAYYEwpmgS0wQZKRkskfJhiTABCwuEMQ1LxCssESYgYYEwSmCJeOVxAC+zRJhAggXCKIMl4pXHwBJhAggWCKMUlohXWCJMwMACYZTDEvEKS4QJCFggjCUEg0SSlpva9oQlwvg9LBDGMgJdIofOHlIhkWksEcZfYYEwlsIS8cqjYIkwfgoLhLEclohXWCKMX8ICYXwCS8QrLBHG72CBMD6DJeIVlgjjV7BAGJ/CEvHKowBeYYkw/gALhPE5LBGvjANLhPEDWCCMLTSJaYL0lHSWSPmwRBjHwwJhbCMhJiEoJLI7d7fRIlgijKNhgTC2EgwSSVyWyBJhAhIWCGM7LBGvjAPwKkuEcRosEMYRsES8MhYsEcZhsEAYx8AS8QpLhHEULBDGUbBEvMISYRwDC4RxHCwRr7BEGEfAAmEcCUvEK2MBTGeJMHbCAmEcC0vEK4+AJcLYCAuEcTQsEa+wRBjbYIEwvmS2kUzBIJGkZaZWrLNEGFtggTC+5FEAM41kDHSJZJ3NUiIRACwRxmewQBhfQtBe/pqSSN1KddVG5RAUSeRZdRExjGdYIIxPEUKYlkhGSgZLpHy6qIyHYTzBAmF8DkvEMwokwjA+gQXC2AJLxDMsEcYfYIEwtsES8QxLhHE6LBDGVlginmGJME6GBcLYDkvEMywRxqmwQBhHwBLxjFsie3L32B0Kw/wJC4RxDCwRz2SdzULiskSWCOMYWCCMo2CJeIYlwjgJFgjjOEpJ5DUj+VkiDOMbWCCMI3FJZBxYImXCEmGcAAuEcSwsEc+wRBi7YYEwjoYl4hmWCGMnLBDG8bBEPMMSYeyCBcL4BSwRz7BEGDtggTB+gwqJpCcH9nkiLBHGl7BAGL/CrESaxjZliTCMIlggjN/BEvFM1tksJC3nbU8Y62GBMH4JS8QzB/MOskQYy2GBMH4LS8QzLBHGalggjF/DEvEMS4SxEhYI4/eUksgMI/lZIgxjDBYIExC4JPIoWCJlwhJhrIAFwgQMLBHPsEQY1bBAmICCJeIZlgijEhYIE3CwRDzDEmFUwQJhAhKWiGcO5h3EpA2T7A6D8XNYIEzAwhLxDIHsDoHxc1ggTEDDEmEY62CBMAGPKonER8WrDYxh/BwWCBMUqJBIRkoGS4RhSsECYYIGlgjDqIUFwgQVLBGGUQcLhAk6WCIMowYWCBOUlJLIdCP5WSIMwwJhghiXRB4DS4RhDMECYYIalgjDGIcFwgQ9LBGGMQYLhGHAEmEYI7BAGMYFS4Rh5GCBMEwpWCIMox8WCMNcAkuEYfTBAmGYMmCJMIx3WCAMUw4sEYbxDAuEYTygQiLpKbwVPBOYsEAYxgtmJdIsthlLhAlIWCAMo4NSEnnVSH6WCBOIsEAYRicuiTwOlgjDAGCBMIwULBGG+QsWCMNIwhJhGA0WCMMYgCXCMCwQhjEMS4QJdlggDGMClggTzLBAGMYkLBEmWGGBMIwCWCJMMMICYRhFsESYYIMFwjAKYYkwwQQLhGEUwxJhggUWCMNYQCmJvGIkv1sicVFxagNjGIWwQBjGIlwSGQ8TEslIyWCJMI6FBcIwFsISYQIZFgjDWAxLhAlUWCAM4wNYIkwgwgJhGB/BEmECDRYIw/gQlggTSLBAGMbHsESYQIEFwjA2wBJhAgEWCMPYBEuE8XdYIAxjIywRxp9hgTCMzbBEGH+FBcIwDoAlwvgjLBCGcQilJDLNSH6WCONrWCAM4yBcEnkCLBHGD2CBMIzDYIkw/gILxB7O601YObyylXGYJiYiRiZ5oVVxBBoqJJKe7N/niUSHRcsk1/2dYtTBArGHPL0J4ys591S6CqEVULVCVb3JSwCcszCcgMOsRJpXae7XEpGM+4xVcTDlwwKxB903u5OPNY2PioeA0Jv8jOuByEgQzBJhgTgfFog9HNGb0Mk9EMkvuO42MxcTjBKJCotC5Qip4dujVsXClA8LxB526E2YEJMgM0zkU7rU6iKT/Her4ggGgk0iV9a4UqZ3e1wIcdLKeJiyYYHYwy69CcNDwtG3fl8rYzHMgIYDZJLrliZTNsEkkVsa3SKTnO8tm2CB2IAQIh8Sv8glH9Q+oXrF6ri29rUyWTZaFUswESwS6d+gv0xyvrdsggViH2l6E/au1xtRYVFWxiJNvwb9EBYSJpNFd3sZzwS6RDpU74DGMY1lsvC9ZRMsEPvQfdNHh0djbNuxVsYiRagIxYQOE2SybBNCHLYqnmAkkCUysdNEmeQEIMOaSBhvsEDsYzUk1kWMbz8e1StWtzAc/dzb8l40i20mk2WpVbEEM6Uk8rKR/E6USNdaXTGw0UCZLN/zC3T7YIHYhBDiNIBUveljImIwqdMkCyPSR6WwSnim0zOy2T60IhbmT4lMQIBI5OWuL8vMvgKAuVbFwniHBWIvUg/WMa3GIDE+0aJQ9DHzmpmoE1VHJssvQohtVsXDBI5E/t767+hep7tMlvMA5lsUDqMDFoi9fAVgt97E4SHhWHDjAtkXjMoY23YsRrUYJZttphWxMBfj7xLpUbcHZlw9Qzbbh0KIU1bEw+hDqq/IqIeIRgH4r0yebae2oeuSrjhT5LvdG2664iYs671MduZVJoBmQogia6JiLoWIBIAXoZ0rIs2OP3YgaXkScvJz1AbmgYSYBKy7ZR2qVagmk60EQHMhhO4fYIx6uAdiPx8C2C+ToVXVVshIyUDdSnUtCulibm98Oxb0XCArDwD4F8vDt6joiXzf/3u0q9ZObWDl0KlGJ6Qlp8nKAwA+ZXnYD/dAHAAR3QJgkWy+nPwc3LLyFqw7us6CqDSe6/wcJnWaJPtiEwB+AdBFCFFsQViMF8z2RPKK8jAyfSQWZy5WG1gpBjUehNmJs42scToLoIUQIsuCsBgJuAfiDJYA+EI2U1xUHDJSMjC27ViEh4QrDahh5YZI7Z2KyZ0mG5EHARjD8rAPsz2R6PBoLOi5AC90eQGVwiopjS02IhYzrp6BeTfOM7pA9lmWhzPgHohDIKL60LZkMLRz4r4z+zBpwyR8vPtjU3FUq1ANEztNxJhWY1AhtILRYqYLIR41FQijBLM9EQA4WnAU//r1X5i1bRbOlxg/tykiJAIPtXkIT3V8ysiQlZv1ALrx0KgzYIE4CCJKgclFd1tObsG8PfOwJHMJtp7aqitPeEg4boi/Af0b9seQhCGoElHFTAjrAFwnhOAT4hyCCokAwP68/Zi7cy6WH1iODUc3gKDveJeutbqif8P+GJowFPWj65sJ4Q8AHYUQmWYKYdTBAnEYRPQSTH7R3ezO3Y20Q2k4ePYgss9mIzs/G7nnc1E7sjbiouIQFxWH5lWao1e9XoiNiFVR5TEAVwkhpCYFMNajSiJujhQcwcqsldh9ejdy8nOQk5+DE4UnUL1C9T/vrYaVG+KmK25SNTWYAAwQQvCuBg5CuUCIKATAlQD6AWgHIM71rzqAUwByAByGthvtMgD/E0JcUB2HLyGi5tDa2xpAvOtfLQAnAWQDOARtC/flAH71dDKf6/p9BGCIxWGrpgTAQag/tpYA5ALIgta7+VAIYekcUyKqAKAngEQADQE0AFAf2sI19/27G9o6nm+EEIbOencNW/YC0AhAHde/CFcdh6DdOz8C+FkIUWK4QX/Vp1QiPmaMEGKWt0Sua9oTQAKA2q5/FaB9ZjnQrukPANaruKZ2Q0Qx0NrbAn89a6sCOAGtvTkAtgJY7doF3JkQURMiepOIskmO40T0ARG1srsNMhBRbSJ6noi2S7b3ABG9TkRNPZQdQURfSZYbLJwn7X5pacFn2oOIPiKi0xLx5BHRQiLqqrOOuqTdN5sk6jhERLOI6HoFbRRE9KJE3U7gWS9tuoKIXia57+IRInqfiHqRJla/gYgqEdEYIlpJ2vdBDwVEtJSI7iHtB5IzIKI4InqbiIokPryyKCai94iont1t8gQRVSai50h7cJihiIj+Q0S1yqmnAhHNN1lHIJNPRLcp+kzbkBphf0lEV5VTR10i+jcRnTNZxyoi6miyvYKIxpuMw1fsI6Ie5bSjERG9Q/ofouXxDRFdY+aa+gLSflj+jYgOm2xvJhENJ220w9YGDSCtB6GSAiK619aGlQNpv1aOKG7vGSK6q5z6Qkl76DDl86SJzzOCtN5gscJ4SohoChGFlqrnbtKEp5I5RBRttO2l4jL7w89XfE7acI1bgKNJe1aoZD4RmZpBYhVE1I2I9ihu769E1NqOxoQQ0WuKG3Mp/yEitYsbDELaDfswqX3QXMp0IipzqTdpvxbM9ngCmZsNfKY1SPvlaRWriaghEc22sI7fiKiByXu7K2m/SP2BnUR0DRF9YmEdO4iohZlrqhoiup/M97LKI5eI+hiNTX6FmPaQew/ASKOVSpAObeZFrg/qKhPSxkffBPCAD6r7CsAtQojLXkS7buo5ALr4IA5/IxtAG70b65E26eELAE0sjUqbAGD1+PoxaN+R740WQERVAcwCcIeyqPybXACDhRAr7AzC9ax9HdY/e0oAjBNCSG98KjUG5nqYvg3fyAMAkgB8Ra6uq008Dd/IAwBuAvAOlfFSTwjxO4CrAdwPbTYb8xfxAF7Qk5C0d04rYb08AN9Mk68J4AvyMCnDG0KIU0KIwQB6Q5stGOzEAEglIqmD2VXikseH8M2zJwTAa0Q0XDaj1A1ORPdBE4iv+QHATb7uiZDBPaoU8LgQ4pXy/khE1QD8A8DDABw5ZmsDRQAShBAHyktA2pDoagDX+Swq37EDQFchxB9mCiFths7d0Kb6NlIRmB9zAcDtQoglvqy0lDwG+7JeAIUAugshNujNoFsgpL1s+QXaPHU78KlEiKgRgC0ADG3WY7Z6aKu5v/OYiKghgO0AKvoiKD/gDSHE38v7IxHNhCbeQGU5gH6e1hnpxfUQuw3APQB6IHj3zbsAYJAQwrpdJUvhuu4fwb7hxGwAnYQQR/Qk1iUQ15DKSgA3mghMBT6TCBF9AnsX860DcLWXRYevAhjnu5AcTyGARmUtNCSidtD2GvOrOf8GuFn12D0RxUOTSQ8A1wNQsm2BH3EBwB1CCEtHI1w95I8B3G5lPTqYJYQYoyehXoEkQ1s17gQslwgRXQngJ6vKl+B2IcSCsv7g6iH9Dvt6hE7lNSHE2Ev/TyL6AoD0bC0/ZDO0/aIs2QmZtOnJXaGdRW7P0Zj2UAxNIgutKNwlj0+gidpuLkA7rGuvt4R6BZIG7YW2bgiELw98icWZi5GRnYFThacQHR6NZrHNMLjJYNzW+DYz+y9ZKhEi+hKA1NQ2AuGrg1/h092fYv2x9ThacBSxEbFoXbU1BjQcgBFNRxjZ3XYntHMPLuuFyPaQss5mof2C9igsNrTrhm1UjqiM7YO2y2zwmA+gXukZWaSt4M6QrTs7Pxtvb3sbyw8sx67Tu0AgNKzcECn1UzCm9RjUq2R+zWsJlWD1odV/1lFwoQBxUXG4Lu463NroVtSKLHOdqTdGCiE+NB1cGbhmbK2Ctl2RfH4QNhzdgPl752PfmX3ILcpF3ai6SIpPws31b0aNijVMx1hUUoRPd3+KpfuXYuuprdr+b1G1cW3tazGi6Qh0qWV4ImMxtNlZZf6oM4pLHp8CuNVoGV9nfY0Fexfg1+O/4tT5U6heoTqurHklBjUehKR4qUe3m7lCiDu9JfIqECJqDGCPTM17cvdgzHdjsDJrZblp6laqi3k95qFbnW4yRZfGEokQUXUARyEx5nsg7wCGpQ3Dd4fLf2XRsHJDzE2ai+51usuG1FkI8fMlMXYGoPtFFwCMXjsa7/3+nmzdjuDZK5/FM1c+I5NlnBDizwO2jQxHzto2C+PXjUdeUV6Zf48Mi8SUzlPwWLvHZIq9iPVH1+P+b+/HxhMby/x7pbBKeLLjk5jQYQJCRWiZacohTQhR5uptM5iVx87TOzFkzRD8cvyXMv8eGxGLqZ2n4sFWDxo5/RIA8O3hb3FXxl3Ym1v+j+fbGt+Gd6971+iu08UAhggh5hsK8BLMymNP7h6MSB+BH478UG6a6+Oux5ykOWgQLbVkqBhATW9T4/UI5CkAz+utNfNMJq5JvUbXmcqhIhRvdX8Lo1uM1lv8pXwPoI9KiRDRSGjrLXSxO3c3uqV2w5EC7++cwkPCsaDnAvRr0E8mpOeFEBNLxSegrY/RvS/S9j+2o+38tigm/zzfqWqFqsgckomYCN2zuXdD64KXuL6gxyAxbj9h/QS8tPElXWkfaPUAZnXzusffZSzJXILBawbr6hEOaDgA82+cL/NQLQZQWwhxQjqwcjArj9TMVAxPH16ukEszsNFAfH7j57LSxKJ9izBkzRBdZ5Y0i22GVX1XGd1evhjAUCHE50Yyu3Hdm/MADDSS/7vD36Hf1/1wqtD7rP6aFWsiLTkNbaq1kaliiBBinqcEen5l657yeK74HHp/2VuXPACgmIpx79p78e7v7+qt4lKuAbBC8TqRAXoTFhYXov/X/XXJA9C61kPXDMXuXKmjnC+NJwUS8gCAp9c/7bfyAIBThafw+tbXZbIkQNuhFAC6Q0Iec3fO1S0PAHhr21t4c9ubMrFh08lNGJo2VPdw4pLMJRi/TmoD3VAAfaWC8oBZeSzctxC3rb5NlzwATQRjf7jsNZZHNp/cjBHpI3QfeLXz9E4kLU/CgbxyZ317IhTAJ0RkeKYUEUUA+AwG5fHt4W/RZ0UfXfIAgGPnjqH/yv7IPS/1WzvZWwKPAnG9MNO9ydicnXOw8/ROvcn/5L619zlJIlfrTfjW9rew7dQ2qcLPXjiLiRsmek/4F63prz2AwgDof7oB+OHID5aea+0rZmyegfwLUrtR/831n7qHcs4UncFjP8oPST25/kkcO3dMV1oC4eHvH0bBhQKpOmZumYktJ7fIZLlBqoJyUCGPwWsG40KJ3IkNr295XfeBaAAw7odxsvcH9ubuReKyRLMSkV6r4ZLH5wBuMVLxt4e/xc0rbtYtZDd7c/filU3lLi8ri97eEnjrgcQDqKy3thmbZ3hPVA5OkIirS1lbb3qj7xQW7F2g+5eDC/eJPKOh7fuvGyMPRCdy4twJfLr7U5ksya51MlfozfDJ7k90i6A0uedzMWenvlHPrSe3IiM7Q7qOEiqR7enUla7kEuyShxu9PcGdp3di9aHVhurYd2afGYmEAPiYiHS/XyslD0Or3I3Kw82sbbNQQrqPQalBRJU8JfAmEN0HF+eez8WOP3boTV4mDpBIbeicmXb83HFsPrnZUCXFVIxvD38rkyWeiCoDeE4m06J9i/D9EcNbJDmON7a9IZNcQNsGIl5vhhUHjS+f+OrgV/rSZelLZ6YOF6aOAbRbHgCQnp2uK52nyTp6cEtkf56hgzRDAHxEREO9JXTJYz5MyKPPl30MywPQnlubTm6SyVLH0x+VCWTHaXPycGOzRHQ/bA6dPWSwCo2ss1kyyeMAPA7tlENdFJUUYcL6CbJhOZpfj/+KH4/+KJNlNCS249h/xvhJvHrzmqnjQN4BmXdZuvdPeNcAAB8ZSURBVO/lS3GCPADtO3L2wlmv6TLPZJqqB9AkkrQsyYxEPiSiYeUlcG0RswDayaXSuOWh53p4Q/Ie9PhDxJtAdC9cOH3+tN6kXlEkEd1Db6XQvW1JQbHcGPalSI7XNgUgNRb19va3set04O2L98ZWqV5IdUgsdjtTdEY6Htm8ZuoopmKZdyeGfkQ5RR5ujhXIDykaRUFPZG5ZGxKWkkeKkYLX5qxVJg9Aew8ngUcHOHZ/m/vW3of//v5fo9mvgbaLrxGJOJFHAETqTZx7PhdTfp5iYTj2MX/vfEPvKRjvOE0eejE4FbdMMs9kqpDICPf/4ZLHQuiY0VQWa3PW4uYVNyuTByB9vTxOqXWsQADg3rX3skQ0pFY8vfTbSwH7kC0sLvTbBZFOxl/lAQA96/X0nkgCt0QMDo0JAHOIaCQRVYS2m7ehKdVWyKNmxZroUL2DTJZsT390tEAAlogsWWezTM2G8wfe3v62zEwSxgv+LA8AaFmlpdHtOspFgUQ+gLbQ2dD+a9/kfKNcHgAwpvUYhAjdj/18AB7fTTheIABLRIZJGyZJrzHwNzLPZOKLA1/YHUZA4O/ycDP96umoGKr2VIP9efvNSqSjkYzf5HyDviv6KpdH09imslvvrPV2NIBfCARgiehh08lNmLtrrt1h+ATZ1d/M5QSKPACgQ/UOeP/69yEU79ZvUiLSWCWPahWqIbV3KqLDo2WyLfeWwG8EAmgSMTH+HfASefzHx4NmaOfrg19jT67UHp9MKVTI447VdzhCHm6GJAzBf6//r2US2Xdmn9JyL8VKeazuuxotq7SUzepVIMa2vLSR0Wu1jRdHtRhlJLtbIjcJIYzPp3QgK7NWml5QBQBxUXFGtxCXgohkFzRdnB+EWdtm4ZWuUlszMFAnDyfur3ZP83sgIDB67WilP6b25+1H0rIkpKeko1Fl9Sf9ut95yG7H4g23PDrWkB5NWyuE8DoVze8EAiiRyAoi6hMoEimhEjz+4+OmywkVoViTvMbILxVD9Pyip+EtKABg9o7ZmNp5KiLDdM9wDnoCWR5u7m5+NwBYIpHEZYnISMlQKhEr5bEmeY3srCs3ujbs86shrNKYPN/iWhhfbOg45u6aa+rXvJvRLUb7TB4AMKnTJFP5TxaexLw9HnebZkoRDPJwc3fzu/He9e/JzDjSxYG8A0qHszKyMyyRR/WK1c3IY4UQQtdeS34rEIAlAgAFFwowaYO5BzEARIdH47nOUlttmea6uOuMHLB1EZIr04OWYJKHm7ua3WWpRDwdWqWHjOwM9P2qryXyWN13tVF5nAfwpN7Efi0QgCXy2pbXZPfVKpPx7cejdqTujYiVMbGT1Nb2l/Hz8Z+x/uh6RdEEJsEoDzd3NbsL71//viUSSVqeZFgiVspjTV/DPQ8AuF8I8ZvexH4vEECbnfX+jveNZvdbiRw7dwwvbnzRdDnxUfF4tN2jCiKSp1e9XmbOqAbAU3o9EczycHNnszstk0jicvmeSHp2uqXyaF+9vdEiXhVCfCCTISAEQiCM/ma0aYlA4uwTJzDl5ymyJ4yVydSrpiIqTPc+ksqZ2NFcL+SzPZ/hxDllp7cGDCyPv7iz2Z2Yff1s5RI5mHdQSiLp2elI/irZifJIBfCEbKaAEAigTCKGtwD2NbtO78Lb2982XU7bam1xV7O7zAdkgpQGKWa63DhXfM7M5x6ohIDlcREjm420VCLe1iVZKY+05DQz8lgKYJAQQvrDDhiBAEok4vuXAAaZsH4CikqKTJczres05V8oIzzd8WlT+d/a/lbQLKLUiQDL4zKslEjS8qRyJZKWnWaJPGpUrIG05DS0q9bOaBGpAG4XQug7TP4S7H9yKEaBRBzP/w7/D4v2LTJdTq96vdC7ntdjj33CrY1vRauqrQzn35u7V/bEPqYMAlkebkY2G4kPEj+wpiey7PKeSFp2GlK+SrFEHmuS15iRx2JoPQ9D8gACUCBA4Evk8XXmFw2GiBBM6zpNQTRqEBB4soPu2YNlInnkLXMJC/YuCHh5uBnRdIQlEsk6m3WRRBwujzvMyAMIUIEAgSuRBXsX4IcjP5gu585md5q5+SxhSMIQJMQkGM7/1cGvLN+vKFBZsHcBBq8ZHBTycDOi6QjMSZxjmUTe3/G+ZfIwOWy1CJo8TI+BO0Yg49qNU3qyGBB4EikqKcKT6839SgeAqLAoTO08VUFEagkVoZjQwfg57iVUglnbZimMKDiwSh4Nohvg1ka3Ki1TNcObDrdMIqO+GaVcHjUr1kRachraVmtrtIiFAAarkAfgoL2wGlVuhIyUDCQuS8SBvAPKynVLBNA2WvNn3tr2Fnbn7jZdzrh241C3Ul0FEalnZLOROH3+NEpg7IV49QrVDdf9QKsHcPzccUN5K4f71QzwP7FSHhkpGfjP1v8oLdcLhwBI39jDmw6HEAIj00c6eiJGzYo1sSZ5jRl5LAAwVJU8AAcJBGCJeOL0+dOY8ov5c85rR9bGE+2lp3v7jPCQcIxrN86WuiUP2/F7rJZHw8oNlZarg/4A5gKQno0xLGEYAODO9DsdOYzn7nm0qdbGaBHzAQxTKQ/AQUNYbtwS4eGsi3lx44uGfx2X5tkrn5U9VIYJQAJQHgBwBMANALYayTwsYRjmJM1BqAhVG5VJFMjjcyjuebhxnEAA6yUye8dspeVazcG8g3ht82umy2lZpSVGtxitICLGnwlQeQAAhBBuiWwxkn9YwjDMTZrrGIkokMdn0Hoelpz85UiBANZKZNQ3o/xKIhN/mohzxedMl/PS/72EsBBHjVoyPiaQ5eFGCHEUJiQyNGGoIyRSs2JNpKekm5HHPADDrZIH4GCBAJpE0pPTg1oiG09sxEe7PjJdTmJ8IlIapCiIiPFXgkEeboQQx6BJZLOR/EMThuLDpA9tk0ityFpIT0lH66qtjRbxKYARVsoDcNhL9LJoHNMY6cnpSFqepPzF+qhvtBMN3SeYOREV55wLCGVHvxIIB/IO4Ej+ERSWFIKIQKC//rP0f7f4/5OlZ72eHres35O7x/D2MKEiFE1jmxrK6wuCSR5uhBDHiKgHgNUApBdNDEkYAgAYkT7Cpy/Wa0XWQlpymhl5fALgTqvlAfiBQIDglcjyA8tNHfnqZkjCEFxZw9C2SH9y+vxpTPttGubumouDeQdNx+Rr6lWqh0FNBnlM0/vL3l43xCuP2pG1cXjEYUN5rSYY5eHmEolI7zboa4kokMfH0OThE+M5egirNG6JBMtwVlFJER770fy00oqhFfGvLv8yVcZ3h79D88+a4/lfn/dLeQDagVkRIRF2h+FzglkeboQQxwH0AKD7oKTSDEkYgo9u+Mjy4axakbWQnmxq2Ooj+FAegB8JBLBeIh/s/EBpuWaYtW0Wdvyxw3Q5/2jzDzSIbmA4/9qcteixvAeOFBwxHYtdxEXF4d6W99odhs+Zv3d+0MvDjRDiBDSJbDSSf3CTwZZKxC0PExuKfgjgLl/KA/AzgQB/SeSK6CuUlksg3JNxj2MkoqpH1K1ON8N5T5w7gVtX3YrzJab2W7Od8e3Ho2JoRbvD8Cnz987HkDVDWB4XUwTA8N4ilcMrWyaQCqEVzN6j3/taHoAfCgTQJJKRnBHQEnmig5rV4k9veNrwQ+Sfv/5TyeJFO6kdWRv3t7zf7jB8CsvjcogoBsBXAK4xkn/5geUYuHKgZT+m3OeJGD1jHcAsIvL5je6XAgECXyKDmwzGNbUN3esXsfnkZry7Xf6gxaKSIszZOcd0/XbzWPvHEBkWaXcYPoPlcTml5HG1kfzL9i/DrSut74kbPWO9FG8R0QMqY/KG3woECHyJzLh6BgSE6XIm/zQZp8+flsqz6eQmnCo8ZbpuO6lZsSbGtBpjdxg+g+VxOUQUC+BrGJTH0v1Lcduq23w2jCt7xnoZzPKlRPxaIEBgS6RLrS4Y1nSY6XKOnTuGqb/Ibd+ek59jul67ebTdo4gKi7I7DJ/A8ricUvLoaiT/0v1Lcfuq233+DlDvGesemEVED6qMqTz8XiCA9RKxcyjnhS4vKHkIvr7ldamt4KtGVDVdp51Ur1gdf2v9N7vD8Aksj8shoioAVgL4PyP5fd3zuBRvZ6zr4E0isrz7HRACAayVyN0Zd9smkXqV6inZZvx8yXmpdSVtqrXx63UTY9uODYpdh1kel1NKHl2M5E/NTMVtq24zvCuBKso7Y12CN6yWSMAIBLB2iq+dEhnfYbySA6BSM1ORlp2mK21sRCySGySbrtMOqlaoiodaP2R3GJbD8rgcIqoKYBWAq4zkX5K5BLevvt12ebi59Ix1A7xBRJZ1xQNKIADQJKZJwEmkUlgl/Osqc6vJ3Yz9fqzuvbWmdp7ql7v3PtL2EcRExNgdhqWwPMrELY/ORjIvzlyMQasHOUYebtwSMXEa6X+skkjACQQITImMaDYCnWsa+l5cxKaTm/Df3/+rK22rqq0wvet003X6kioRVfBwm4ftDsNSWB7lshiAoU3fFu1bhDtW3+E4ebjJOpuFpGVJZiXyd5UxAQEqEMB6iczdOVdpud4QEJhx9QwlZU36aRJyz+fqSvtQm4cw/erptp+NoJeH2z6M2IhYu8OwDJaHR5oYybRo3yLcsca58nCjoCfyumqJBKxAAGslMmvbLKVl6qFbnW64vfHtpss5WnBUalrv2LZj8cOAH3BD/A1K1qVYRWxELB5p+4jdYVjKqG9GsTwU4pbHhRK1O583rNwQs7rNUj4R5dDZQyokouwFof8NcEvilkjiskRknc2yOxzTvPx/L2Pp/qUoLC40Vc6/t/wbD7R6AE1i9P1ou6rmVViTvAZZZ7Pwv8P/w5GCI7hQcgEhIuSifwLir/8ND38r9ff9efsx7odxptoDaBtHVomoYrocJ0OQPwfFE8Esj4X7FmLwmsHK5dGociOkp6SjQXQD1K1UV/l0YLdE0pPTjZ5B828iEkKIf5uNJeAFAmgSyUjJCAiJNKzcEGPbjsWLG180VY57Wu/iXoul8tWrVA93NLnDVN2Xct/a+0yXERMRg7FtxyqIJngIZnks2LsAQ9KGWCKP0kdxpzRIwcJeC5VvhXLo7CEkLU8yI5GZLonMNBNHQA9hlcYtkXqV6tkdimme6viUx5P19LIkcwnSs9MVRGScA3kHlExKeKj1Q6hawb8XP/qSYJbH/L3zLZFH45jGF8nDTXL9ZCzstdCy4axdp3cZLeI1IjI148RfBWLoigWKRCqHV8Y/r/qnkrLG/qB/Wq8VvLjxRdO/zCqHV8a4duaHwIIFBfLw203SPt/7OYamDbVGHsmXy8NNcv1kLOq1CBVCKyitNzs/W4VEDL849FeBzADwqpGMgSKRe5rfgw7VO5gu57cTv+G9He8piEierLNZeO9383X/vfXfUa1CNQURBT4K5PEqgE/VReQ7Pt/7OYalDVMujyYxTXTtgtG3fl8s6mmdRHae3mm0iBlGeyL+KhAC8DiCWCIhIgTTr1azRmPihom6p/Wq5KWNL5nufUSHR+PRdo8qiiiwUSSPxwHFb/J9gKXySNG/hdLN9W/G4l6LLZFI0rIkMxJ5jYj6yWbyV4FACBH0EkmKT0L/hv1Nl3O04Cie//V5BRHpJyc/R/eCRk+MaTUG1StWVxBRYKNKHq7vnV/x2Z7PMHSN+mGrhJgEQ8+QPlf0capEPiYiqQPZ/VYggBqJpKek+7VEXun6ipKXczO3zDRzBoE0L//2Ms4VnzNVRqWwSnisvfmNJgOdYJbHvD3zMCxtmPK1M0bl4abPFX2wpNcSpw1nRQNY6toGXxd+LRDAvEQSYhL8WiIJMQn4exvzi0sLiwvx+LrHFUTknSMFR/D29rdNl/NgqwdRs2JNBREFLsEsj093f4rhacOVy6NpbFNkpGSY3uD0pituQmrvVLNnoV9GTn4OEpclYscfO4xkbwzteaqLgFgHIoQgInI3WnpA3C2RpGVJfrlOZHKnyZi7c67p88sX7VuExZmL0bZaW0WRlc3MzTNRcKHAVBlRYVF4vL1vhOevBLM8Ptn9CUamj7RMHvFR8UrK612vN1J7p6L/1/1N98hLk5Of8+c6keZVmstmH0tErwshjnhLGBACAYJbIrERsXiu83P423fmN9wcuHKggois54FWD6BWZC27w3AsCuQxHSyPi2gW2wzpKenK5OGmV71eTpNIFICJALxueeL3Q1ilUTWcpeLsDV9zf8v70bqq1PsvvyUyLBLj24+3OwzHokgej/mjPD7e/bFfycNNr3q9sLT3UkSGRSotNyc/B4nLDQ1n3UVEXl/QBJRAADUSUTG+6WtCRaiyab1O5/6W9ytZiR+IBLM8Fu1bhDvT71Quj+ZVmisdtiqPnvV6WiKRw/mHkbg8EZlnMmWyRQO43luigBMIELwS6VWvF26uf7PdYVhKxdCK3Psoh2CWx9ZTWzEifYQl8khPTkdcVJzScsvjxro3YlnvZZZIJOXrFNkhshRvCQJSIEDwSuTVrq/65SmCerm35b0++zL7E8EsDwB49IdHkX8hX2mZLaq0QEZyhpn7zdCWLz3q9rBEIltObsEbW9+QydLTW4KAFQgQnBJpUaUFHmz1oN1hWEKF0Ap4ov0Tstns2+jLRwS7PPbk7sHXWV8rLbNllZZIT05Hnag6RouYBqAlgO1GMveo2wPLb1qOqLAoo/WXiaRAriAijwcABbRAgICRiNRRac9e+WxA7kw7usVo2c/hewD+NaVOkmCXBwCsPrRaaXktq7REeoopebwM4AnXNNgkANuMFHJD/A3KJbLvzD7syd2jN3kUgMqeEgS8QICAkMibkPglXa1CNUzuNNnCcHxPREgEJnSYIJvtOfjhvk16USCPGfBzeQDAwbyDyspqVbUV0lPSzUzSeAnABPc1dUnkBhiUSFJ8knKJSL5M92hRbwI5o7eWyuEeRaU6v+643CiZ4pusbopvdFi0TPIfALwjk+Fvrf+GZrHNpGJyMqNajJLdLeBHAKsgMQ5tptemdzdgVauOFcnjUYPy0H0cptn2ql6l7YlWVVshPdmUPF4E8OSl17RUT2SrkUKT4pPwxU1fKB/O0kmopz96E0i23lrMHkwjeW75ISN1mJVI09imyiRSL1rqYZgDYDIA3VvmhoeE45Wur8iG5UgiQiLwZIcnZbM95/q8va6mdWPwZDcAQEJsgq508ZXMTwW1WR6AxHPBTHvDQsJQM9L7VjUqDsVqXbU10pPTzSxO/ReAp8q7pkKIo9B6IoYkkhifiC/7fIlKYZWMxvcnktfL4/fHm0By9NZSO7I22ldvrzf5RVQKq4Rral8jk0X3DXwpTpBIREgEro/zOsW6NDlCiGMApspkSmmQghvr3igVmxO5u/ndsj8w1gNwv1XVLZABDQfI1HER/Rvo2xU5MS7RcB2AI+QBSHz/zLS3e53uCBUefwAD0NZPmKF11dZIS04zI4/nAUz0dk1LSWSLkUquj7vetESaxDRBk5gmepMXwUsP3qNAhBDnAOjeYGlMqzF6k17E3c3vlu2qGhYIYL9EhjcdLjtk5xb56wB0vwEDgOlXT9f1JXQq4SHheLKjdO9jSqkvs+7rdUvDW4zsG4T60fUxNGGorrTX1rnWcE/HIfIAJEYAWlZtiS61uhiq5M5md+pK1yC6AZLrJxuqo021NkhPMdXz+CeASXqvqVmJXBd3nSmJ/KPNP2SS53hrl56X6Gv11nZP83ukb5a4qDhMvlLqhe/PQog8qUrKwC6JVKtQDc91fk4my0/u9gohCgFI7V/etlpbjGoxSiaLoxjRdAQaRDeQyfITgC9L/e8vy0t4KeEh4Xin+ztS62hCRAjeue4d3XP2Q0Uopv3fNN3lu3GQPABgEwBdh2sICLzS9RWECLn5Op1rdsbwpsN1p3+l6yuIDpd6r4i21doiLTnNzI7OUwFMlr2mrtEEUxJZcfMK6fZ2rNER97e8XyZLurcEej7VpXprCwsJw+Jei5EQo288uGqFqkjtnSr7AS6RSewJVRLR+4CrFFYJC3sulH0ZvPiS/50KHR9saaZ2nmp6koMdhIpQPNXxKdlsUy75Qv8C4LDezNfFXYf3rntPl0RCRSje7v42etfrLRVg/4b9MbHTRN3pG1Vu5CR5QAjxByTuwe51ukttsxMfFY9FPRdJ9ZybV2mOT3t8qnsk48oaV2JN8hoz8pgC4Bmj17SURDYbyd+9Tnes6LNC98SPxjGNkdorVfb8keXeEugRyBeQmEIaHxWPdbesw6DGgzym61anG9bfsh5X1bxKb9FulAkEUCORDQM3IKWB51X/7au3x3f9v0NifKJsFRe11xXvOEhMT60VWcvIg9h2hiQMkRmvBTRZXHTTCyFKACyTKWRks5FY03cNWlRpUW6aZrHNsKrvKoxuMVqm6D+Z2nkq3uz2pteZNb3r9cb6W9abkcdrUCiPUqTKJH64zcP4+IaPERvh+awi93NB8p0XACC5fjK+SfnG46aioSIUD7R6AN/2+9aMPJ4TQhiWhxuXRHrAoES61emGdQPWeX1/PLDRQKwfIH1NLwBY6S2Rx1WGbohoGQDpQcZfjv+Cz/Z8hp+O/YRj546hWoVqaFOtDQY2Goik+CQIfdWXZiOATlbMW3etuJwGA1vBu/n+yPeYt2cefjzyI46fO44qFaqgddXWGNhoIPo16GfkXcRPALqU1V4ieheA7qdXYXEhhqYNxdmis7Ix2MZr17zm8SFeBgOEEJc92FzHdG6GzvvdTVFJEVYcXIHUzFTsPbMXIQhBo5hG6Fu/L5LrJyM8JFymuDLJzs/Gm1vfxBcHvsCe3D3Iv5CPOlF1cH3c9bir2V24sd6NRr4nbl4DMM6i70tdAJmQPBLixLkTeHPbm1i2fxl2nt6JvKI81I6sjW51umF40+FIbpBspr0AgGIqRmpmKpZkLsGu07tQUFzwZx1DEoboHiEph2eFEFJj0N4gohoA1gBoZ7SMtOw0LMlcgk0nNuFU4SnUqFgDXWp1waDGg9CxRkcjRc4TQgzxlkivQNoC+E1vegu5SQihds+CUqiQiGJuFEKsKesPRFQbwC54WSkaRHj8cUFEcwCM9G1I8hDI9APUhWXycENErwMwdRymwvb6gmeEEFOsKFiFRBRSDKCVEMLrubi63mwJITYD+MBkUGZJg44ulRnMDmcpZmV58gD+XJz0gg/jcTrPeXlYPgPJLWHswF/k4WIqAFMTWvxIHpOtkgcACCGOQxvO+s2qOiSYrUcegESPwtVl3QzAjk2WzgPoKoT41ReVOaAnUght6GqTp0REFAlgBwD5AePA4jcAHb09MInoMWifayDjK3kAAIjoaWhTWQOZSUIIn7SRiKpD64kYW1RnnpMA2gshdO0hp3tunRDiEIBB0Lo3vuY+X8kDcERPZLQ3eQCAEKIAgP+9HVePt96Hm1cBfGx1MDbiU3m4eAnAVz6sz9c87St5AIAQ4gTs64kUA7hdrzwMQURjyLe8bFljvLdVENErPm7vi5IxhhDRTz6O0Un8RES6fwgRUSQF5vWaQV623rYKIoolom02t98KpFewKrym1YnoVx+392++atxkHzXoXSKydRk1aRJ51sntJaJORFTooxidxHnSJnjIXq8aRLTW5thV8hLZJI9S17QJER2w+TqoopiIHrHzerquaXUi+t5HbX6BfHkPEdHtRJRvUWOKiegRnzbIC0Q0yOL2/sNMe4noPoticzKGh++IqAIRfWhhbO8TUUci2mxhHeeIyDEzy4ioNln7wCsioidIu7ZW8QcRya0MtRDS7tPZFrb3PBHdY1fjOpL6rushIupjS4O8QERXEtEuxe3NIqJeCmITRDRNcWxO5nUiMnV2L2nX7BEiOq0wrjwiGlGqjkpENFdh+W4OEpH0KlyrIaKKRPSBBe09QERXl6rndiI6pbiOjUTkuDMQSLtPHyXtYa+SHCK6zu7GhRHRKNIe/GY4TUQTiMiWTe/1QkThRPQgER022d4/XO1VevAxEQ0lorMmY3MyF4joAcXXrCYR/cdVtlEKXWVcNiOOtAdAXyL62WzjSbtvniQi8/t6WwgRXU9E6xW0N5+0IbrLDlwhojgimk7mRwb2EtEwsnm43BtE1JiIPjbZViKiM0Q0iYjkNtOyEiKKIu3BupK0rqZevietW1rd7jbIQNovy4eJKIO0ISg9lPiivUSUQNov9FyJz8Hp5BPRm0Qkv12u/uvWhLQv1iaJuH4nopdJm+burXxBRANIu2dkZbWLiP5JZTxInYqrvbcTUZqB9h4jbWKA19OdiKiW69pslyi/kIi+IqLRRBThi+uhCiLqQFqv9oTkNd1J2rsOw3u4XIol7xiIKBZAHwCtANQFEA+gFrQ5xtmuf7sBfCmE0H3miFMhTQZ9ALSBdgRkHICaAE5Aa+sh/NVe3Rv7KYgrGkBvAE0BNIb2GfgTZwEcBfArtGun+2gBs5AmqusA1AfQwPWf56FtzHgE2ue5Ugixz2D5VaF9Nr0BNIR239QBUNFVR47rP3+EtqHpDn8+epY08d0M4CZo19P9XKgA7bmQ4/r3PbT9934WQkgvGSCiBtCuaWv8dU2joX1m7mv6C7TPTvpkUydB2hDuNQD6AkjAX8+eKtC+N+5r+huAVCHE76pj+H8bhK1cLwdCJQAAAABJRU5ErkJggg==;clipPath=inset(0% 4% 2% 3.67%);" vertex="1" parent="9pdm4Na_A3fy9SokRHZq-4">
          <mxGeometry x="220" y="420" width="50.25" height="40" as="geometry" />
        </mxCell>
        <mxCell id="jFfQ0kwEmFCJYvK7oUmH-2" value="" style="shape=image;verticalLabelPosition=bottom;labelBackgroundColor=default;verticalAlign=top;aspect=fixed;imageAspect=0;image=data:image/png,iVBORw0KGgoAAAANSUhEUgAAAZAAAAEsCAYAAADtt+XCAAAACXBIWXMAAAsTAAALEwEAmpwYAAAgAElEQVR4nO2dd3gU1frHvycNEkJChwSkht4R+aGCJiIgkgCiIt0CNu71KqiICqhwvRYU5HoVy1UEG0oNoCgliehVAQtSpQcICR0JISGE5P39MbsaINmdM3NmZ3b3/TwPzy055T2zs/PZc+YUASagIKIIAJ0BXA2gBYDmAOoDiHb9CwOQB+AMgBMAdrn+bQGQIYTItiFsxg8gIgGgNYBu0O6tFgAaAYiFdm9FAiiAdm+dBrAXwA4A2wF8B2C7EIJ8HznDMOVCRLFENIqIviais2SOnUQ0k4iucj0wmCCGiMKJqB8RfUxER0zeW9lENJeI+hBRmN1tY5ighojauL7YBSa/2OXxOxH9g4gq2d1WxrcQ0RVENJ2Ijll0bx0mopeJKN7utjJMUEFErYjoMyIqsejLfSnHiGgisUgCHiJqQET/JaLzPrq3ColoFhHVs7vtDBPQEFENIvqIfCeOS9lPRLcQD20FHEQUQURPElG+TfdWHhE9RkThdl8Lhgk4iOgmIsqx6ct9KYuJqJrd14RRAxG1JaKtNt9Tbn4jopZ2XxOGCQiIKJKI/m3zl7os9hPRNXZfH8Y4RCSI6B6y7h2aUc4S0Ui7rw/D+DVEVJWI1tn8ZfbEeSIaYvd1YuQhohAimmHz/eONaUQUYve1Yhi/g4hqEdFGm7/AennE7uvF6Ie09x2f2H3T6GQu8XsRhtEPEdUlou02f3FlmWT3dWO8Q0ShRLTA7ptFknnEPRFHwh+KwyCiGACroa3yVVs2CIXFhThfcl510QAwhVgijoa02XNvALjVkvJh2SLzOwDMJJ795zh4NaiDcH1BZkOBPHbn7saSzCX45fgv2HpyK3bl7kLBhYI//14nqg4aRjdE22pt0ateL/So2wNVK1Q1W+0UIoIQYqrZghhLeAzA/WYLySvKw8qslVhxcAX25+1HTn4OcvJzcPLcSVSrWA1xUXGIi4pDo8qN0OeKPuhVrxeiwqLMVvt3aFujzDBbEKMONrqDIKLHAEwzmr/gQgHe/f1dzN4xGxtPbJTKGyJC0K9BP4xtOxbd47pDmLs1JrNEnAVpM+bWAgg1lB+ExfsWY/aO2Vh1aBUKiwt1540Mi0TPuj0xqsUopDRIMXNvFQHoJoRYb7QARi0sEIdARN0BpMPAF/xCyQW88/s7eP6X55Gdb34vxC61umBWt1noVKOTmWKeEUJMMR0MYxoiigWwCdqmmtKszVmL8evGY93RdaZj6VanG6Z1nYautboaLSITQDshxBnTwTCmYYE4ANI2ltsIbadTKfbm7sWwtGH48eiPSmMKESEY13YcpnSegsiwSKPFsEQcABH9G8BDsvn+OP8HRn8zGgv3LVQe09CEoXi7+9uIDo82kn2GEGKc6pgYeVggDoCIHgTwpmy+hfsW4q6Mu5BXlGdBVBpda3VFau9U1IqsZbQIloiNEFEnABsgOWFm5+md6Pd1P+z4Y4c1gQFoV60dlt60FA2iG8hmLQZwpRDiNwvCYiRggdgMEVWBdh5HDZl8H+z8AKO+GYUSKrEmsFI0qtwIK/qsQPMqzY0WwRKxCSJKB5Aok2f1odW4bdVtOH3+tDVBlaJmxZpI7Z2Kq2tfLZt1lRCilxUxMfphgdgMEb0AYIJMnvd3vI9R34yyKKKyqR1ZGxkpGWhRxfAEMZaIj3G9OP+fTJ6NJzbi2tRrkX8h36KoLic2IhbrBqwz8gOlixBigxUxMfpggdgIEVUAcAhAdb151h1dh+5Lu6OopMi6wMpBgUSeFUI8pzImpnyIaDmAvnrTHy04iqsWX4UDeQcsjKpsmsU2w48DfpSdSp4qhBhgVUyMd3ghob30g4Q8jp87jttW3WaLPADgSMERJC5LxO9//G60iGeJ6BmVMTFlQ0T1ISGPCyUXMHDVQFvkAWjvXO5Yc4fskGwKEdW1KibGOywQexktk3jihonIOptlVSy6YIn4DcNkEs/ZOQf/Oyw12qWcVVmr8Pnez2WyhECynYxaeAjLJojoCgD7ofMz2HxyMzos7OCTl+Z64OEsZ0NEW6BzWnj+hXw0nddUyRoiszSOaYztg7YjIiRCb5atQog2VsbElA/3QOyjByQEPvmnyY6RB8A9ESfj+nGie03RzC0zHSEPQFvX9Na2t2SytCY+Dtc2WCD2ofswppz8HCzbv8zKWAyhSCLPKgyJ0eihN2ExFWPm5plWxiLN9E3TZTdm1N1eRi0sEPvQPfF99o7ZKKZiK2MxjAKJPMMSUU6i3oTrjq7DkYIjFoYiz/68/fjthNQawSSrYmE8wwKxAdfiQd1DDE7sfZSGJeI4dL8TSM1MtTIOw0jGJb0FEKMGFog9tILO9x/nis/h5+M/WxyOeVgizsB1JIDuFXmp+x0qELm4WvBZIfbAArEH3duW/Hr8V9vWfchypOAIkpYnsUTspQ4AXTsUFpUUWbrXlRm2ntwq8x4kGlq7GR/DArEH3YsH953ZZ2Ucyjmcf5glYi+6763D+YetjMMU50vO41ThKZks1ayKhSkfFog96P6Snyw8aWUclsASsRXd+6M7ZepueeTk58gkN7QvPGMOFog96BbIiXMnrIzDMlgitlFZb0KnCyT7rFR8utvNqIMFYg/hehP6y/uPsmCJ2ILuEy1ljqW1g8ISqfjCrIqDKR8WCGMpLBGGCVxYIIzlKJLIczxVk2GcBQuE8QkKJDIZ2tYnLBGGcQgsEMZnsEQYJrBggTA+hSXCMIEDC4TxOW6JmFgFzRJhGAfAAmFs4XD+YSQuTzQrEX6xzjA2wgJhbEOBRCaBJcIwtsECYWyFJcIw/gsLhLEdlgjD+CcsEMYRsEQYxv9ggTCOQZFEprBEGMY3sEAYR6FAIhPBEmEYn8ACYRwHS4Rh/AMWCONIWCIM43xYIIxjUbBinSXCMBbCAmEcTU5+jgqJTGWJMIx6WCCM41EgkafBEmEY5bBAGL+AJcIwzoMFwvgNLBGGcRYsEMavYIkwjHNggTB+hyKJ/JMlwjDmYIEwfokCiTwFlgjDmIIFwvgtLBGGsRcWCOPXuCWy8/ROo0WwRBjGICwQxu/Jyc9B4rJElgjD+BgWCBMQKJLI8ywRhtEPC4QJGBRI5EmwRBhGNywQJqBgiTCM72CBMAEHS4RhfAMLhAlIWCIMYz0sECZgUSSRf7FEGKZsWCBMQKNAIhPAEmGYMmGBMAEPS4RhrIEFwgQFOfk5SFpmasU6S4RhLoEFwgQN2fnZLBGGUQgLhAkqFEnkBZYIw7BAmCBEgUSeAEuEYVggTHDCEmEY87BAmKCFJcIw5mCBMEENS4RhjMMCYYIeRRJ5kSXCBBssEIaBEomMB0uECTJYIAzjwi2RXad3GS2CJcIEFSwQhilFdn42EpclskQYRgcsEIa5BJYIw+iDBcKYIjYi1u4QLEGRRF5iiTCBDAuEMcXCngtRr1I9u8OwBAUSeRwsESaAYYEwpmgS0wQZKRkskfJhiTABCwuEMQ1LxCssESYgYYEwSmCJeOVxAC+zRJhAggXCKIMl4pXHwBJhAggWCKMUlohXWCJMwMACYZTDEvEKS4QJCFggjCUEg0SSlpva9oQlwvg9LBDGMgJdIofOHlIhkWksEcZfYYEwlsIS8cqjYIkwfgoLhLEclohXWCKMX8ICYXwCS8QrLBHG72CBMD6DJeIVlgjjV7BAGJ/CEvHKowBeYYkw/gALhPE5LBGvjANLhPEDWCCMLTSJaYL0lHSWSPmwRBjHwwJhbCMhJiEoJLI7d7fRIlgijKNhgTC2EgwSSVyWyBJhAhIWCGM7LBGvjAPwKkuEcRosEMYRsES8MhYsEcZhsEAYx8AS8QpLhHEULBDGUbBEvMISYRwDC4RxHCwRr7BEGEfAAmEcCUvEK2MBTGeJMHbCAmEcC0vEK4+AJcLYCAuEcTQsEa+wRBjbYIEwvmS2kUzBIJGkZaZWrLNEGFtggTC+5FEAM41kDHSJZJ3NUiIRACwRxmewQBhfQtBe/pqSSN1KddVG5RAUSeRZdRExjGdYIIxPEUKYlkhGSgZLpHy6qIyHYTzBAmF8DkvEMwokwjA+gQXC2AJLxDMsEcYfYIEwtsES8QxLhHE6LBDGVlginmGJME6GBcLYDkvEMywRxqmwQBhHwBLxjFsie3L32B0Kw/wJC4RxDCwRz2SdzULiskSWCOMYWCCMo2CJeIYlwjgJFgjjOEpJ5DUj+VkiDOMbWCCMI3FJZBxYImXCEmGcAAuEcSwsEc+wRBi7YYEwjoYl4hmWCGMnLBDG8bBEPMMSYeyCBcL4BSwRz7BEGDtggTB+gwqJpCcH9nkiLBHGl7BAGL/CrESaxjZliTCMIlggjN/BEvFM1tksJC3nbU8Y62GBMH4JS8QzB/MOskQYy2GBMH4LS8QzLBHGalggjF/DEvEMS4SxEhYI4/eUksgMI/lZIgxjDBYIExC4JPIoWCJlwhJhrIAFwgQMLBHPsEQY1bBAmICCJeIZlgijEhYIE3CwRDzDEmFUwQJhAhKWiGcO5h3EpA2T7A6D8XNYIEzAwhLxDIHsDoHxc1ggTEDDEmEY62CBMAGPKonER8WrDYxh/BwWCBMUqJBIRkoGS4RhSsECYYIGlgjDqIUFwgQVLBGGUQcLhAk6WCIMowYWCBOUlJLIdCP5WSIMwwJhghiXRB4DS4RhDMECYYIalgjDGIcFwgQ9LBGGMQYLhGHAEmEYI7BAGMYFS4Rh5GCBMEwpWCIMox8WCMNcAkuEYfTBAmGYMmCJMIx3WCAMUw4sEYbxDAuEYTygQiLpKbwVPBOYsEAYxgtmJdIsthlLhAlIWCAMo4NSEnnVSH6WCBOIsEAYRicuiTwOlgjDAGCBMIwULBGG+QsWCMNIwhJhGA0WCMMYgCXCMCwQhjEMS4QJdlggDGMClggTzLBAGMYkLBEmWGGBMIwCWCJMMMICYRhFsESYYIMFwjAKYYkwwQQLhGEUwxJhggUWCMNYQCmJvGIkv1sicVFxagNjGIWwQBjGIlwSGQ8TEslIyWCJMI6FBcIwFsISYQIZFgjDWAxLhAlUWCAM4wNYIkwgwgJhGB/BEmECDRYIw/gQlggTSLBAGMbHsESYQIEFwjA2wBJhAgEWCMPYBEuE8XdYIAxjIywRxp9hgTCMzbBEGH+FBcIwDoAlwvgjLBCGcQilJDLNSH6WCONrWCAM4yBcEnkCLBHGD2CBMIzDYIkw/gILxB7O601YObyylXGYJiYiRiZ5oVVxBBoqJJKe7N/niUSHRcsk1/2dYtTBArGHPL0J4ys591S6CqEVULVCVb3JSwCcszCcgMOsRJpXae7XEpGM+4xVcTDlwwKxB903u5OPNY2PioeA0Jv8jOuByEgQzBJhgTgfFog9HNGb0Mk9EMkvuO42MxcTjBKJCotC5Qip4dujVsXClA8LxB526E2YEJMgM0zkU7rU6iKT/Her4ggGgk0iV9a4UqZ3e1wIcdLKeJiyYYHYwy69CcNDwtG3fl8rYzHMgIYDZJLrliZTNsEkkVsa3SKTnO8tm2CB2IAQIh8Sv8glH9Q+oXrF6ri29rUyWTZaFUswESwS6d+gv0xyvrdsggViH2l6E/au1xtRYVFWxiJNvwb9EBYSJpNFd3sZzwS6RDpU74DGMY1lsvC9ZRMsEPvQfdNHh0djbNuxVsYiRagIxYQOE2SybBNCHLYqnmAkkCUysdNEmeQEIMOaSBhvsEDsYzUk1kWMbz8e1StWtzAc/dzb8l40i20mk2WpVbEEM6Uk8rKR/E6USNdaXTGw0UCZLN/zC3T7YIHYhBDiNIBUveljImIwqdMkCyPSR6WwSnim0zOy2T60IhbmT4lMQIBI5OWuL8vMvgKAuVbFwniHBWIvUg/WMa3GIDE+0aJQ9DHzmpmoE1VHJssvQohtVsXDBI5E/t767+hep7tMlvMA5lsUDqMDFoi9fAVgt97E4SHhWHDjAtkXjMoY23YsRrUYJZttphWxMBfj7xLpUbcHZlw9Qzbbh0KIU1bEw+hDqq/IqIeIRgH4r0yebae2oeuSrjhT5LvdG2664iYs671MduZVJoBmQogia6JiLoWIBIAXoZ0rIs2OP3YgaXkScvJz1AbmgYSYBKy7ZR2qVagmk60EQHMhhO4fYIx6uAdiPx8C2C+ToVXVVshIyUDdSnUtCulibm98Oxb0XCArDwD4F8vDt6joiXzf/3u0q9ZObWDl0KlGJ6Qlp8nKAwA+ZXnYD/dAHAAR3QJgkWy+nPwc3LLyFqw7us6CqDSe6/wcJnWaJPtiEwB+AdBFCFFsQViMF8z2RPKK8jAyfSQWZy5WG1gpBjUehNmJs42scToLoIUQIsuCsBgJuAfiDJYA+EI2U1xUHDJSMjC27ViEh4QrDahh5YZI7Z2KyZ0mG5EHARjD8rAPsz2R6PBoLOi5AC90eQGVwiopjS02IhYzrp6BeTfOM7pA9lmWhzPgHohDIKL60LZkMLRz4r4z+zBpwyR8vPtjU3FUq1ANEztNxJhWY1AhtILRYqYLIR41FQijBLM9EQA4WnAU//r1X5i1bRbOlxg/tykiJAIPtXkIT3V8ysiQlZv1ALrx0KgzYIE4CCJKgclFd1tObsG8PfOwJHMJtp7aqitPeEg4boi/Af0b9seQhCGoElHFTAjrAFwnhOAT4hyCCokAwP68/Zi7cy6WH1iODUc3gKDveJeutbqif8P+GJowFPWj65sJ4Q8AHYUQmWYKYdTBAnEYRPQSTH7R3ezO3Y20Q2k4ePYgss9mIzs/G7nnc1E7sjbiouIQFxWH5lWao1e9XoiNiFVR5TEAVwkhpCYFMNajSiJujhQcwcqsldh9ejdy8nOQk5+DE4UnUL1C9T/vrYaVG+KmK25SNTWYAAwQQvCuBg5CuUCIKATAlQD6AWgHIM71rzqAUwByAByGthvtMgD/E0JcUB2HLyGi5tDa2xpAvOtfLQAnAWQDOARtC/flAH71dDKf6/p9BGCIxWGrpgTAQag/tpYA5ALIgta7+VAIYekcUyKqAKAngEQADQE0AFAf2sI19/27G9o6nm+EEIbOencNW/YC0AhAHde/CFcdh6DdOz8C+FkIUWK4QX/Vp1QiPmaMEGKWt0Sua9oTQAKA2q5/FaB9ZjnQrukPANaruKZ2Q0Qx0NrbAn89a6sCOAGtvTkAtgJY7doF3JkQURMiepOIskmO40T0ARG1srsNMhBRbSJ6noi2S7b3ABG9TkRNPZQdQURfSZYbLJwn7X5pacFn2oOIPiKi0xLx5BHRQiLqqrOOuqTdN5sk6jhERLOI6HoFbRRE9KJE3U7gWS9tuoKIXia57+IRInqfiHqRJla/gYgqEdEYIlpJ2vdBDwVEtJSI7iHtB5IzIKI4InqbiIokPryyKCai94iont1t8gQRVSai50h7cJihiIj+Q0S1yqmnAhHNN1lHIJNPRLcp+kzbkBphf0lEV5VTR10i+jcRnTNZxyoi6miyvYKIxpuMw1fsI6Ie5bSjERG9Q/ofouXxDRFdY+aa+gLSflj+jYgOm2xvJhENJ220w9YGDSCtB6GSAiK619aGlQNpv1aOKG7vGSK6q5z6Qkl76DDl86SJzzOCtN5gscJ4SohoChGFlqrnbtKEp5I5RBRttO2l4jL7w89XfE7acI1bgKNJe1aoZD4RmZpBYhVE1I2I9ihu769E1NqOxoQQ0WuKG3Mp/yEitYsbDELaDfswqX3QXMp0IipzqTdpvxbM9ngCmZsNfKY1SPvlaRWriaghEc22sI7fiKiByXu7K2m/SP2BnUR0DRF9YmEdO4iohZlrqhoiup/M97LKI5eI+hiNTX6FmPaQew/ASKOVSpAObeZFrg/qKhPSxkffBPCAD6r7CsAtQojLXkS7buo5ALr4IA5/IxtAG70b65E26eELAE0sjUqbAGD1+PoxaN+R740WQERVAcwCcIeyqPybXACDhRAr7AzC9ax9HdY/e0oAjBNCSG98KjUG5nqYvg3fyAMAkgB8Ra6uq008Dd/IAwBuAvAOlfFSTwjxO4CrAdwPbTYb8xfxAF7Qk5C0d04rYb08AN9Mk68J4AvyMCnDG0KIU0KIwQB6Q5stGOzEAEglIqmD2VXikseH8M2zJwTAa0Q0XDaj1A1ORPdBE4iv+QHATb7uiZDBPaoU8LgQ4pXy/khE1QD8A8DDABw5ZmsDRQAShBAHyktA2pDoagDX+Swq37EDQFchxB9mCiFths7d0Kb6NlIRmB9zAcDtQoglvqy0lDwG+7JeAIUAugshNujNoFsgpL1s+QXaPHU78KlEiKgRgC0ADG3WY7Z6aKu5v/OYiKghgO0AKvoiKD/gDSHE38v7IxHNhCbeQGU5gH6e1hnpxfUQuw3APQB6IHj3zbsAYJAQwrpdJUvhuu4fwb7hxGwAnYQQR/Qk1iUQ15DKSgA3mghMBT6TCBF9AnsX860DcLWXRYevAhjnu5AcTyGARmUtNCSidtD2GvOrOf8GuFn12D0RxUOTSQ8A1wNQsm2BH3EBwB1CCEtHI1w95I8B3G5lPTqYJYQYoyehXoEkQ1s17gQslwgRXQngJ6vKl+B2IcSCsv7g6iH9Dvt6hE7lNSHE2Ev/TyL6AoD0bC0/ZDO0/aIs2QmZtOnJXaGdRW7P0Zj2UAxNIgutKNwlj0+gidpuLkA7rGuvt4R6BZIG7YW2bgiELw98icWZi5GRnYFThacQHR6NZrHNMLjJYNzW+DYz+y9ZKhEi+hKA1NQ2AuGrg1/h092fYv2x9ThacBSxEbFoXbU1BjQcgBFNRxjZ3XYntHMPLuuFyPaQss5mof2C9igsNrTrhm1UjqiM7YO2y2zwmA+gXukZWaSt4M6QrTs7Pxtvb3sbyw8sx67Tu0AgNKzcECn1UzCm9RjUq2R+zWsJlWD1odV/1lFwoQBxUXG4Lu463NroVtSKLHOdqTdGCiE+NB1cGbhmbK2Ctl2RfH4QNhzdgPl752PfmX3ILcpF3ai6SIpPws31b0aNijVMx1hUUoRPd3+KpfuXYuuprdr+b1G1cW3tazGi6Qh0qWV4ImMxtNlZZf6oM4pLHp8CuNVoGV9nfY0Fexfg1+O/4tT5U6heoTqurHklBjUehKR4qUe3m7lCiDu9JfIqECJqDGCPTM17cvdgzHdjsDJrZblp6laqi3k95qFbnW4yRZfGEokQUXUARyEx5nsg7wCGpQ3Dd4fLf2XRsHJDzE2ai+51usuG1FkI8fMlMXYGoPtFFwCMXjsa7/3+nmzdjuDZK5/FM1c+I5NlnBDizwO2jQxHzto2C+PXjUdeUV6Zf48Mi8SUzlPwWLvHZIq9iPVH1+P+b+/HxhMby/x7pbBKeLLjk5jQYQJCRWiZacohTQhR5uptM5iVx87TOzFkzRD8cvyXMv8eGxGLqZ2n4sFWDxo5/RIA8O3hb3FXxl3Ym1v+j+fbGt+Gd6971+iu08UAhggh5hsK8BLMymNP7h6MSB+BH478UG6a6+Oux5ykOWgQLbVkqBhATW9T4/UI5CkAz+utNfNMJq5JvUbXmcqhIhRvdX8Lo1uM1lv8pXwPoI9KiRDRSGjrLXSxO3c3uqV2w5EC7++cwkPCsaDnAvRr0E8mpOeFEBNLxSegrY/RvS/S9j+2o+38tigm/zzfqWqFqsgckomYCN2zuXdD64KXuL6gxyAxbj9h/QS8tPElXWkfaPUAZnXzusffZSzJXILBawbr6hEOaDgA82+cL/NQLQZQWwhxQjqwcjArj9TMVAxPH16ukEszsNFAfH7j57LSxKJ9izBkzRBdZ5Y0i22GVX1XGd1evhjAUCHE50Yyu3Hdm/MADDSS/7vD36Hf1/1wqtD7rP6aFWsiLTkNbaq1kaliiBBinqcEen5l657yeK74HHp/2VuXPACgmIpx79p78e7v7+qt4lKuAbBC8TqRAXoTFhYXov/X/XXJA9C61kPXDMXuXKmjnC+NJwUS8gCAp9c/7bfyAIBThafw+tbXZbIkQNuhFAC6Q0Iec3fO1S0PAHhr21t4c9ubMrFh08lNGJo2VPdw4pLMJRi/TmoD3VAAfaWC8oBZeSzctxC3rb5NlzwATQRjf7jsNZZHNp/cjBHpI3QfeLXz9E4kLU/CgbxyZ317IhTAJ0RkeKYUEUUA+AwG5fHt4W/RZ0UfXfIAgGPnjqH/yv7IPS/1WzvZWwKPAnG9MNO9ydicnXOw8/ROvcn/5L619zlJIlfrTfjW9rew7dQ2qcLPXjiLiRsmek/4F63prz2AwgDof7oB+OHID5aea+0rZmyegfwLUrtR/831n7qHcs4UncFjP8oPST25/kkcO3dMV1oC4eHvH0bBhQKpOmZumYktJ7fIZLlBqoJyUCGPwWsG40KJ3IkNr295XfeBaAAw7odxsvcH9ubuReKyRLMSkV6r4ZLH5wBuMVLxt4e/xc0rbtYtZDd7c/filU3lLi8ri97eEnjrgcQDqKy3thmbZ3hPVA5OkIirS1lbb3qj7xQW7F2g+5eDC/eJPKOh7fuvGyMPRCdy4twJfLr7U5ksya51MlfozfDJ7k90i6A0uedzMWenvlHPrSe3IiM7Q7qOEiqR7enUla7kEuyShxu9PcGdp3di9aHVhurYd2afGYmEAPiYiHS/XyslD0Or3I3Kw82sbbNQQrqPQalBRJU8JfAmEN0HF+eez8WOP3boTV4mDpBIbeicmXb83HFsPrnZUCXFVIxvD38rkyWeiCoDeE4m06J9i/D9EcNbJDmON7a9IZNcQNsGIl5vhhUHjS+f+OrgV/rSZelLZ6YOF6aOAbRbHgCQnp2uK52nyTp6cEtkf56hgzRDAHxEREO9JXTJYz5MyKPPl30MywPQnlubTm6SyVLH0x+VCWTHaXPycGOzRHQ/bA6dPWSwCo2ss1kyyeMAPA7tlENdFJUUYcL6CbJhOZpfj/+KH4/+KJNlNCS249h/xvhJvHrzmqnjQN4BmXdZuvdPeNcAAB8ZSURBVO/lS3GCPADtO3L2wlmv6TLPZJqqB9AkkrQsyYxEPiSiYeUlcG0RswDayaXSuOWh53p4Q/Ie9PhDxJtAdC9cOH3+tN6kXlEkEd1Db6XQvW1JQbHcGPalSI7XNgUgNRb19va3set04O2L98ZWqV5IdUgsdjtTdEY6Htm8ZuoopmKZdyeGfkQ5RR5ujhXIDykaRUFPZG5ZGxKWkkeKkYLX5qxVJg9Aew8ngUcHOHZ/m/vW3of//v5fo9mvgbaLrxGJOJFHAETqTZx7PhdTfp5iYTj2MX/vfEPvKRjvOE0eejE4FbdMMs9kqpDICPf/4ZLHQuiY0VQWa3PW4uYVNyuTByB9vTxOqXWsQADg3rX3skQ0pFY8vfTbSwH7kC0sLvTbBZFOxl/lAQA96/X0nkgCt0QMDo0JAHOIaCQRVYS2m7ehKdVWyKNmxZroUL2DTJZsT390tEAAlogsWWezTM2G8wfe3v62zEwSxgv+LA8AaFmlpdHtOspFgUQ+gLbQ2dD+a9/kfKNcHgAwpvUYhAjdj/18AB7fTTheIABLRIZJGyZJrzHwNzLPZOKLA1/YHUZA4O/ycDP96umoGKr2VIP9efvNSqSjkYzf5HyDviv6KpdH09imslvvrPV2NIBfCARgiehh08lNmLtrrt1h+ATZ1d/M5QSKPACgQ/UOeP/69yEU79ZvUiLSWCWPahWqIbV3KqLDo2WyLfeWwG8EAmgSMTH+HfASefzHx4NmaOfrg19jT67UHp9MKVTI447VdzhCHm6GJAzBf6//r2US2Xdmn9JyL8VKeazuuxotq7SUzepVIMa2vLSR0Wu1jRdHtRhlJLtbIjcJIYzPp3QgK7NWml5QBQBxUXFGtxCXgohkFzRdnB+EWdtm4ZWuUlszMFAnDyfur3ZP83sgIDB67WilP6b25+1H0rIkpKeko1Fl9Sf9ut95yG7H4g23PDrWkB5NWyuE8DoVze8EAiiRyAoi6hMoEimhEjz+4+OmywkVoViTvMbILxVD9Pyip+EtKABg9o7ZmNp5KiLDdM9wDnoCWR5u7m5+NwBYIpHEZYnISMlQKhEr5bEmeY3srCs3ujbs86shrNKYPN/iWhhfbOg45u6aa+rXvJvRLUb7TB4AMKnTJFP5TxaexLw9HnebZkoRDPJwc3fzu/He9e/JzDjSxYG8A0qHszKyMyyRR/WK1c3IY4UQQtdeS34rEIAlAgAFFwowaYO5BzEARIdH47nOUlttmea6uOuMHLB1EZIr04OWYJKHm7ua3WWpRDwdWqWHjOwM9P2qryXyWN13tVF5nAfwpN7Efi0QgCXy2pbXZPfVKpPx7cejdqTujYiVMbGT1Nb2l/Hz8Z+x/uh6RdEEJsEoDzd3NbsL71//viUSSVqeZFgiVspjTV/DPQ8AuF8I8ZvexH4vEECbnfX+jveNZvdbiRw7dwwvbnzRdDnxUfF4tN2jCiKSp1e9XmbOqAbAU3o9EczycHNnszstk0jicvmeSHp2uqXyaF+9vdEiXhVCfCCTISAEQiCM/ma0aYlA4uwTJzDl5ymyJ4yVydSrpiIqTPc+ksqZ2NFcL+SzPZ/hxDllp7cGDCyPv7iz2Z2Yff1s5RI5mHdQSiLp2elI/irZifJIBfCEbKaAEAigTCKGtwD2NbtO78Lb2982XU7bam1xV7O7zAdkgpQGKWa63DhXfM7M5x6ohIDlcREjm420VCLe1iVZKY+05DQz8lgKYJAQQvrDDhiBAEok4vuXAAaZsH4CikqKTJczres05V8oIzzd8WlT+d/a/lbQLKLUiQDL4zKslEjS8qRyJZKWnWaJPGpUrIG05DS0q9bOaBGpAG4XQug7TP4S7H9yKEaBRBzP/w7/D4v2LTJdTq96vdC7ntdjj33CrY1vRauqrQzn35u7V/bEPqYMAlkebkY2G4kPEj+wpiey7PKeSFp2GlK+SrFEHmuS15iRx2JoPQ9D8gACUCBA4Evk8XXmFw2GiBBM6zpNQTRqEBB4soPu2YNlInnkLXMJC/YuCHh5uBnRdIQlEsk6m3WRRBwujzvMyAMIUIEAgSuRBXsX4IcjP5gu585md5q5+SxhSMIQJMQkGM7/1cGvLN+vKFBZsHcBBq8ZHBTycDOi6QjMSZxjmUTe3/G+ZfIwOWy1CJo8TI+BO0Yg49qNU3qyGBB4EikqKcKT6839SgeAqLAoTO08VUFEagkVoZjQwfg57iVUglnbZimMKDiwSh4Nohvg1ka3Ki1TNcObDrdMIqO+GaVcHjUr1kRachraVmtrtIiFAAarkAfgoL2wGlVuhIyUDCQuS8SBvAPKynVLBNA2WvNn3tr2Fnbn7jZdzrh241C3Ul0FEalnZLOROH3+NEpg7IV49QrVDdf9QKsHcPzccUN5K4f71QzwP7FSHhkpGfjP1v8oLdcLhwBI39jDmw6HEAIj00c6eiJGzYo1sSZ5jRl5LAAwVJU8AAcJBGCJeOL0+dOY8ov5c85rR9bGE+2lp3v7jPCQcIxrN86WuiUP2/F7rJZHw8oNlZarg/4A5gKQno0xLGEYAODO9DsdOYzn7nm0qdbGaBHzAQxTKQ/AQUNYbtwS4eGsi3lx44uGfx2X5tkrn5U9VIYJQAJQHgBwBMANALYayTwsYRjmJM1BqAhVG5VJFMjjcyjuebhxnEAA6yUye8dspeVazcG8g3ht82umy2lZpSVGtxitICLGnwlQeQAAhBBuiWwxkn9YwjDMTZrrGIkokMdn0Hoelpz85UiBANZKZNQ3o/xKIhN/mohzxedMl/PS/72EsBBHjVoyPiaQ5eFGCHEUJiQyNGGoIyRSs2JNpKekm5HHPADDrZIH4GCBAJpE0pPTg1oiG09sxEe7PjJdTmJ8IlIapCiIiPFXgkEeboQQx6BJZLOR/EMThuLDpA9tk0ityFpIT0lH66qtjRbxKYARVsoDcNhL9LJoHNMY6cnpSFqepPzF+qhvtBMN3SeYOREV55wLCGVHvxIIB/IO4Ej+ERSWFIKIQKC//rP0f7f4/5OlZ72eHres35O7x/D2MKEiFE1jmxrK6wuCSR5uhBDHiKgHgNUApBdNDEkYAgAYkT7Cpy/Wa0XWQlpymhl5fALgTqvlAfiBQIDglcjyA8tNHfnqZkjCEFxZw9C2SH9y+vxpTPttGubumouDeQdNx+Rr6lWqh0FNBnlM0/vL3l43xCuP2pG1cXjEYUN5rSYY5eHmEolI7zboa4kokMfH0OThE+M5egirNG6JBMtwVlFJER770fy00oqhFfGvLv8yVcZ3h79D88+a4/lfn/dLeQDagVkRIRF2h+FzglkeboQQxwH0AKD7oKTSDEkYgo9u+Mjy4axakbWQnmxq2Ooj+FAegB8JBLBeIh/s/EBpuWaYtW0Wdvyxw3Q5/2jzDzSIbmA4/9qcteixvAeOFBwxHYtdxEXF4d6W99odhs+Zv3d+0MvDjRDiBDSJbDSSf3CTwZZKxC0PExuKfgjgLl/KA/AzgQB/SeSK6CuUlksg3JNxj2MkoqpH1K1ON8N5T5w7gVtX3YrzJab2W7Od8e3Ho2JoRbvD8Cnz987HkDVDWB4XUwTA8N4ilcMrWyaQCqEVzN6j3/taHoAfCgTQJJKRnBHQEnmig5rV4k9veNrwQ+Sfv/5TyeJFO6kdWRv3t7zf7jB8CsvjcogoBsBXAK4xkn/5geUYuHKgZT+m3OeJGD1jHcAsIvL5je6XAgECXyKDmwzGNbUN3esXsfnkZry7Xf6gxaKSIszZOcd0/XbzWPvHEBkWaXcYPoPlcTml5HG1kfzL9i/DrSut74kbPWO9FG8R0QMqY/KG3woECHyJzLh6BgSE6XIm/zQZp8+flsqz6eQmnCo8ZbpuO6lZsSbGtBpjdxg+g+VxOUQUC+BrGJTH0v1Lcduq23w2jCt7xnoZzPKlRPxaIEBgS6RLrS4Y1nSY6XKOnTuGqb/Ibd+ek59jul67ebTdo4gKi7I7DJ/A8ricUvLoaiT/0v1Lcfuq233+DlDvGesemEVED6qMqTz8XiCA9RKxcyjnhS4vKHkIvr7ldamt4KtGVDVdp51Ur1gdf2v9N7vD8Aksj8shoioAVgL4PyP5fd3zuBRvZ6zr4E0isrz7HRACAayVyN0Zd9smkXqV6inZZvx8yXmpdSVtqrXx63UTY9uODYpdh1kel1NKHl2M5E/NTMVtq24zvCuBKso7Y12CN6yWSMAIBLB2iq+dEhnfYbySA6BSM1ORlp2mK21sRCySGySbrtMOqlaoiodaP2R3GJbD8rgcIqoKYBWAq4zkX5K5BLevvt12ebi59Ix1A7xBRJZ1xQNKIADQJKZJwEmkUlgl/Osqc6vJ3Yz9fqzuvbWmdp7ql7v3PtL2EcRExNgdhqWwPMrELY/ORjIvzlyMQasHOUYebtwSMXEa6X+skkjACQQITImMaDYCnWsa+l5cxKaTm/Df3/+rK22rqq0wvet003X6kioRVfBwm4ftDsNSWB7lshiAoU3fFu1bhDtW3+E4ebjJOpuFpGVJZiXyd5UxAQEqEMB6iczdOVdpud4QEJhx9QwlZU36aRJyz+fqSvtQm4cw/erptp+NoJeH2z6M2IhYu8OwDJaHR5oYybRo3yLcsca58nCjoCfyumqJBKxAAGslMmvbLKVl6qFbnW64vfHtpss5WnBUalrv2LZj8cOAH3BD/A1K1qVYRWxELB5p+4jdYVjKqG9GsTwU4pbHhRK1O583rNwQs7rNUj4R5dDZQyokouwFof8NcEvilkjiskRknc2yOxzTvPx/L2Pp/qUoLC40Vc6/t/wbD7R6AE1i9P1ou6rmVViTvAZZZ7Pwv8P/w5GCI7hQcgEhIuSifwLir/8ND38r9ff9efsx7odxptoDaBtHVomoYrocJ0OQPwfFE8Esj4X7FmLwmsHK5dGociOkp6SjQXQD1K1UV/l0YLdE0pPTjZ5B828iEkKIf5uNJeAFAmgSyUjJCAiJNKzcEGPbjsWLG180VY57Wu/iXoul8tWrVA93NLnDVN2Xct/a+0yXERMRg7FtxyqIJngIZnks2LsAQ9KGWCKP0kdxpzRIwcJeC5VvhXLo7CEkLU8yI5GZLonMNBNHQA9hlcYtkXqV6tkdimme6viUx5P19LIkcwnSs9MVRGScA3kHlExKeKj1Q6hawb8XP/qSYJbH/L3zLZFH45jGF8nDTXL9ZCzstdCy4axdp3cZLeI1IjI148RfBWLoigWKRCqHV8Y/r/qnkrLG/qB/Wq8VvLjxRdO/zCqHV8a4duaHwIIFBfLw203SPt/7OYamDbVGHsmXy8NNcv1kLOq1CBVCKyitNzs/W4VEDL849FeBzADwqpGMgSKRe5rfgw7VO5gu57cTv+G9He8piEierLNZeO9383X/vfXfUa1CNQURBT4K5PEqgE/VReQ7Pt/7OYalDVMujyYxTXTtgtG3fl8s6mmdRHae3mm0iBlGeyL+KhAC8DiCWCIhIgTTr1azRmPihom6p/Wq5KWNL5nufUSHR+PRdo8qiiiwUSSPxwHFb/J9gKXySNG/hdLN9W/G4l6LLZFI0rIkMxJ5jYj6yWbyV4FACBH0EkmKT0L/hv1Nl3O04Cie//V5BRHpJyc/R/eCRk+MaTUG1StWVxBRYKNKHq7vnV/x2Z7PMHSN+mGrhJgEQ8+QPlf0capEPiYiqQPZ/VYggBqJpKek+7VEXun6ipKXczO3zDRzBoE0L//2Ms4VnzNVRqWwSnisvfmNJgOdYJbHvD3zMCxtmPK1M0bl4abPFX2wpNcSpw1nRQNY6toGXxd+LRDAvEQSYhL8WiIJMQn4exvzi0sLiwvx+LrHFUTknSMFR/D29rdNl/NgqwdRs2JNBREFLsEsj093f4rhacOVy6NpbFNkpGSY3uD0pituQmrvVLNnoV9GTn4OEpclYscfO4xkbwzteaqLgFgHIoQgInI3WnpA3C2RpGVJfrlOZHKnyZi7c67p88sX7VuExZmL0bZaW0WRlc3MzTNRcKHAVBlRYVF4vL1vhOevBLM8Ptn9CUamj7RMHvFR8UrK612vN1J7p6L/1/1N98hLk5Of8+c6keZVmstmH0tErwshjnhLGBACAYJbIrERsXiu83P423fmN9wcuHKggois54FWD6BWZC27w3AsCuQxHSyPi2gW2wzpKenK5OGmV71eTpNIFICJALxueeL3Q1ilUTWcpeLsDV9zf8v70bqq1PsvvyUyLBLj24+3OwzHokgej/mjPD7e/bFfycNNr3q9sLT3UkSGRSotNyc/B4nLDQ1n3UVEXl/QBJRAADUSUTG+6WtCRaiyab1O5/6W9ytZiR+IBLM8Fu1bhDvT71Quj+ZVmisdtiqPnvV6WiKRw/mHkbg8EZlnMmWyRQO43luigBMIELwS6VWvF26uf7PdYVhKxdCK3Psoh2CWx9ZTWzEifYQl8khPTkdcVJzScsvjxro3YlnvZZZIJOXrFNkhshRvCQJSIEDwSuTVrq/65SmCerm35b0++zL7E8EsDwB49IdHkX8hX2mZLaq0QEZyhpn7zdCWLz3q9rBEIltObsEbW9+QydLTW4KAFQgQnBJpUaUFHmz1oN1hWEKF0Ap4ov0Tstns2+jLRwS7PPbk7sHXWV8rLbNllZZIT05Hnag6RouYBqAlgO1GMveo2wPLb1qOqLAoo/WXiaRAriAijwcABbRAgICRiNRRac9e+WxA7kw7usVo2c/hewD+NaVOkmCXBwCsPrRaaXktq7REeoopebwM4AnXNNgkANuMFHJD/A3KJbLvzD7syd2jN3kUgMqeEgS8QICAkMibkPglXa1CNUzuNNnCcHxPREgEJnSYIJvtOfjhvk16USCPGfBzeQDAwbyDyspqVbUV0lPSzUzSeAnABPc1dUnkBhiUSFJ8knKJSL5M92hRbwI5o7eWyuEeRaU6v+643CiZ4pusbopvdFi0TPIfALwjk+Fvrf+GZrHNpGJyMqNajJLdLeBHAKsgMQ5tptemdzdgVauOFcnjUYPy0H0cptn2ql6l7YlWVVshPdmUPF4E8OSl17RUT2SrkUKT4pPwxU1fKB/O0kmopz96E0i23lrMHkwjeW75ISN1mJVI09imyiRSL1rqYZgDYDIA3VvmhoeE45Wur8iG5UgiQiLwZIcnZbM95/q8va6mdWPwZDcAQEJsgq508ZXMTwW1WR6AxHPBTHvDQsJQM9L7VjUqDsVqXbU10pPTzSxO/ReAp8q7pkKIo9B6IoYkkhifiC/7fIlKYZWMxvcnktfL4/fHm0By9NZSO7I22ldvrzf5RVQKq4Rral8jk0X3DXwpTpBIREgEro/zOsW6NDlCiGMApspkSmmQghvr3igVmxO5u/ndsj8w1gNwv1XVLZABDQfI1HER/Rvo2xU5MS7RcB2AI+QBSHz/zLS3e53uCBUefwAD0NZPmKF11dZIS04zI4/nAUz0dk1LSWSLkUquj7vetESaxDRBk5gmepMXwUsP3qNAhBDnAOjeYGlMqzF6k17E3c3vlu2qGhYIYL9EhjcdLjtk5xb56wB0vwEDgOlXT9f1JXQq4SHheLKjdO9jSqkvs+7rdUvDW4zsG4T60fUxNGGorrTX1rnWcE/HIfIAJEYAWlZtiS61uhiq5M5md+pK1yC6AZLrJxuqo021NkhPMdXz+CeASXqvqVmJXBd3nSmJ/KPNP2SS53hrl56X6Gv11nZP83ukb5a4qDhMvlLqhe/PQog8qUrKwC6JVKtQDc91fk4my0/u9gohCgFI7V/etlpbjGoxSiaLoxjRdAQaRDeQyfITgC9L/e8vy0t4KeEh4Xin+ztS62hCRAjeue4d3XP2Q0Uopv3fNN3lu3GQPABgEwBdh2sICLzS9RWECLn5Op1rdsbwpsN1p3+l6yuIDpd6r4i21doiLTnNzI7OUwFMlr2mrtEEUxJZcfMK6fZ2rNER97e8XyZLurcEej7VpXprCwsJw+Jei5EQo288uGqFqkjtnSr7AS6RSewJVRLR+4CrFFYJC3sulH0ZvPiS/50KHR9saaZ2nmp6koMdhIpQPNXxKdlsUy75Qv8C4LDezNfFXYf3rntPl0RCRSje7v42etfrLRVg/4b9MbHTRN3pG1Vu5CR5QAjxByTuwe51ukttsxMfFY9FPRdJ9ZybV2mOT3t8qnsk48oaV2JN8hoz8pgC4Bmj17SURDYbyd+9Tnes6LNC98SPxjGNkdorVfb8keXeEugRyBeQmEIaHxWPdbesw6DGgzym61anG9bfsh5X1bxKb9FulAkEUCORDQM3IKWB51X/7au3x3f9v0NifKJsFRe11xXvOEhMT60VWcvIg9h2hiQMkRmvBTRZXHTTCyFKACyTKWRks5FY03cNWlRpUW6aZrHNsKrvKoxuMVqm6D+Z2nkq3uz2pteZNb3r9cb6W9abkcdrUCiPUqTKJH64zcP4+IaPERvh+awi93NB8p0XACC5fjK+SfnG46aioSIUD7R6AN/2+9aMPJ4TQhiWhxuXRHrAoES61emGdQPWeX1/PLDRQKwfIH1NLwBY6S2Rx1WGbohoGQDpQcZfjv+Cz/Z8hp+O/YRj546hWoVqaFOtDQY2Goik+CQIfdWXZiOATlbMW3etuJwGA1vBu/n+yPeYt2cefjzyI46fO44qFaqgddXWGNhoIPo16GfkXcRPALqU1V4ieheA7qdXYXEhhqYNxdmis7Ix2MZr17zm8SFeBgOEEJc92FzHdG6GzvvdTVFJEVYcXIHUzFTsPbMXIQhBo5hG6Fu/L5LrJyM8JFymuDLJzs/Gm1vfxBcHvsCe3D3Iv5CPOlF1cH3c9bir2V24sd6NRr4nbl4DMM6i70tdAJmQPBLixLkTeHPbm1i2fxl2nt6JvKI81I6sjW51umF40+FIbpBspr0AgGIqRmpmKpZkLsGu07tQUFzwZx1DEoboHiEph2eFEFJj0N4gohoA1gBoZ7SMtOw0LMlcgk0nNuFU4SnUqFgDXWp1waDGg9CxRkcjRc4TQgzxlkivQNoC+E1vegu5SQihds+CUqiQiGJuFEKsKesPRFQbwC54WSkaRHj8cUFEcwCM9G1I8hDI9APUhWXycENErwMwdRymwvb6gmeEEFOsKFiFRBRSDKCVEMLrubi63mwJITYD+MBkUGZJg44ulRnMDmcpZmV58gD+XJz0gg/jcTrPeXlYPgPJLWHswF/k4WIqAFMTWvxIHpOtkgcACCGOQxvO+s2qOiSYrUcegESPwtVl3QzAjk2WzgPoKoT41ReVOaAnUght6GqTp0REFAlgBwD5AePA4jcAHb09MInoMWifayDjK3kAAIjoaWhTWQOZSUIIn7SRiKpD64kYW1RnnpMA2gshdO0hp3tunRDiEIBB0Lo3vuY+X8kDcERPZLQ3eQCAEKIAgP+9HVePt96Hm1cBfGx1MDbiU3m4eAnAVz6sz9c87St5AIAQ4gTs64kUA7hdrzwMQURjyLe8bFljvLdVENErPm7vi5IxhhDRTz6O0Un8RES6fwgRUSQF5vWaQV623rYKIoolom02t98KpFewKrym1YnoVx+392++atxkHzXoXSKydRk1aRJ51sntJaJORFTooxidxHnSJnjIXq8aRLTW5thV8hLZJI9S17QJER2w+TqoopiIHrHzerquaXUi+t5HbX6BfHkPEdHtRJRvUWOKiegRnzbIC0Q0yOL2/sNMe4noPoticzKGh++IqAIRfWhhbO8TUUci2mxhHeeIyDEzy4ioNln7wCsioidIu7ZW8QcRya0MtRDS7tPZFrb3PBHdY1fjOpL6rushIupjS4O8QERXEtEuxe3NIqJeCmITRDRNcWxO5nUiMnV2L2nX7BEiOq0wrjwiGlGqjkpENFdh+W4OEpH0KlyrIaKKRPSBBe09QERXl6rndiI6pbiOjUTkuDMQSLtPHyXtYa+SHCK6zu7GhRHRKNIe/GY4TUQTiMiWTe/1QkThRPQgER022d4/XO1VevAxEQ0lorMmY3MyF4joAcXXrCYR/cdVtlEKXWVcNiOOtAdAXyL62WzjSbtvniQi8/t6WwgRXU9E6xW0N5+0IbrLDlwhojgimk7mRwb2EtEwsnm43BtE1JiIPjbZViKiM0Q0iYjkNtOyEiKKIu3BupK0rqZevietW1rd7jbIQNovy4eJKIO0ISg9lPiivUSUQNov9FyJz8Hp5BPRm0Qkv12u/uvWhLQv1iaJuH4nopdJm+burXxBRANIu2dkZbWLiP5JZTxInYqrvbcTUZqB9h4jbWKA19OdiKiW69pslyi/kIi+IqLRRBThi+uhCiLqQFqv9oTkNd1J2rsOw3u4XIol7xiIKBZAHwCtANQFEA+gFrQ5xtmuf7sBfCmE0H3miFMhTQZ9ALSBdgRkHICaAE5Aa+sh/NVe3Rv7KYgrGkBvAE0BNIb2GfgTZwEcBfArtGun+2gBs5AmqusA1AfQwPWf56FtzHgE2ue5Ugixz2D5VaF9Nr0BNIR239QBUNFVR47rP3+EtqHpDn8+epY08d0M4CZo19P9XKgA7bmQ4/r3PbT9934WQkgvGSCiBtCuaWv8dU2joX1m7mv6C7TPTvpkUydB2hDuNQD6AkjAX8+eKtC+N+5r+huAVCHE76pj+H8bhK1cLwdCJQAAAABJRU5ErkJggg==;clipPath=inset(0% 4% 2% 3.67%);" vertex="1" parent="9pdm4Na_A3fy9SokRHZq-4">
          <mxGeometry x="300" y="420" width="50.25" height="40" as="geometry" />
        </mxCell>
        <mxCell id="9pdm4Na_A3fy9SokRHZq-31" value="home-gw" style="sketch=0;points=[[0,0,0],[0.25,0,0],[0.5,0,0],[0.75,0,0],[1,0,0],[0,1,0],[0.25,1,0],[0.5,1,0],[0.75,1,0],[1,1,0],[0,0.25,0],[0,0.5,0],[0,0.75,0],[1,0.25,0],[1,0.5,0],[1,0.75,0]];outlineConnect=0;fontColor=#232F3E;fillColor=#ED7100;strokeColor=#ffffff;dashed=0;verticalLabelPosition=bottom;verticalAlign=top;align=center;html=1;fontSize=12;fontStyle=0;aspect=fixed;shape=mxgraph.aws4.resourceIcon;resIcon=mxgraph.aws4.ec2;labelBackgroundColor=default;" vertex="1" parent="9pdm4Na_A3fy9SokRHZq-4">
          <mxGeometry x="160" y="120" width="40" height="40" as="geometry" />
        </mxCell>
        <mxCell id="KCpZ5k9DulybXE29dxYF-20" value="&lt;span style=&quot;font-size: 11px; text-wrap: nowrap; background-color: rgb(255, 255, 255);&quot;&gt;24224&lt;/span&gt;" style="rounded=0;whiteSpace=wrap;html=1;" vertex="1" parent="9pdm4Na_A3fy9SokRHZq-4">
          <mxGeometry x="620" y="390" width="40" height="20" as="geometry" />
        </mxCell>
      </root>
    </mxGraphModel>
  </diagram>
</mxfile>
